<?xml version="1.0" encoding="utf-8"?>
<!-- Generator: Adobe Illustrator 26.3.1, SVG Export Plug-In . SVG Version: 6.00 Build 0)  -->
<svg version="1.1" id="pen_00000008127598963053465350000000856693238100223403_"
	 xmlns="http://www.w3.org/2000/svg" xmlns:xlink="http://www.w3.org/1999/xlink" x="0px" y="0px" viewBox="0 0 221.1 236.9"
	 style="enable-background:new 0 0 221.1 236.9;" xml:space="preserve">
<style type="text/css">
	.st0{opacity:0.8;fill:url(#SVGID_1_);enable-background:new    ;}
	.st1{fill:#DAA563;}
	.st2{opacity:0.4;fill:#DAA563;enable-background:new    ;}
	.st3{fill:#F6D069;}
	.st4{fill:#FBE19B;}
	.st5{fill:url(#SVGID_00000168836231975226094030000000766539220933868464_);}
</style>
<g id="pen">
	
		<radialGradient id="SVGID_1_" cx="156.13" cy="22.9367" r="9.11" gradientTransform="matrix(1 0 0 -0.39 4.000000e-02 202.98)" gradientUnits="userSpaceOnUse">
		<stop  offset="0" style="stop-color:#3E37A8"/>
		<stop  offset="1" style="stop-color:#7FA5FB;stop-opacity:0.1"/>
	</radialGradient>
	<ellipse class="st0" cx="155.9" cy="194.7" rx="10" ry="3.3"/>
	<g>
		<g>
			<path class="st1" d="M157.5,182.3l-2.4,12.4c-0.1,0.3,0.2,0.4,0.4,0.1l5.2-11.6L157.5,182.3L157.5,182.3z"/>
			<path class="st2" d="M155.2,195c0.1,0,0.2,0,0.2-0.1l5.2-11.6l-1.6-0.5L155.2,195L155.2,195z"/>
		</g>
		<g>
			<path class="st3" d="M166.4,144.5l-9,37.7c-0.1,0.5,0.5,1.1,1.4,1.4s1.8,0.2,2-0.3l14.5-36L166.4,144.5L166.4,144.5z"/>
			<path class="st2" d="M160.8,183.3l14.5-36l-4.4-1.4l-12,37.7C159.8,183.9,160.7,183.8,160.8,183.3L160.8,183.3z"/>
		</g>
		<g>
			<path class="st3" d="M196,90.8l-13.9-4.4l-15.8,54.9c0,0,0,0.1,0,0.1c0,0,0,0.1,0,0.1l-0.8,2.7l10.6,3.4l0.9-2.7
				c0,0,0.1-0.1,0.1-0.1c0,0,0-0.1,0-0.1L196,90.8L196,90.8z"/>
			
				<ellipse transform="matrix(0.3032 -0.9529 0.9529 0.3032 -20.0191 264.4998)" class="st3" cx="170.9" cy="145.9" rx="2.8" ry="5.6"/>
			<path class="st2" d="M189.1,88.6l-18.2,57.4l5.3,1.7l0.9-2.7c0,0,0.1-0.1,0.1-0.1c0,0,0-0.1,0-0.1L196,90.8L189.1,88.6
				L189.1,88.6z"/>
			<path class="st1" d="M176.2,147.4c0,0.1,0,0.1,0,0.2c-0.5,1.4-3.2,1.9-6.2,0.9s-5-2.9-4.5-4.3c0-0.1,0-0.1,0.1-0.2l0-0.1l0.6-2.2
				c0,0.5,0.1,0.9,0.5,1.4c0.7,1.1,2.2,2.1,4.2,2.7c1.9,0.6,3.8,0.6,4.9,0.2c0.5-0.2,0.9-0.5,1.2-0.8L176.2,147.4L176.2,147.4
				L176.2,147.4z"/>
			<path class="st2" d="M177,145.2c-0.2,0.4-0.6,0.7-1.2,0.8c-1.2,0.4-3,0.4-4.9-0.2l-0.9,2.8c2.9,0.9,5.7,0.5,6.2-0.9
				c0-0.1,0-0.1,0-0.2l0-0.1L177,145.2L177,145.2z"/>
		</g>
		<g>
			
				<ellipse transform="matrix(0.3032 -0.9529 0.9529 0.3032 47.3463 241.9342)" class="st4" cx="189.1" cy="88.6" rx="3.6" ry="7.3"/>
			<path class="st1" d="M192.5,84.6l-3.9-1.2c-1.3-0.4-2.8,0.3-3.2,1.7l-0.2,0.6l-0.1,0.2l-0.3,1c-0.4,1.1,1.3,2.6,3.8,3.4
				c2.4,0.8,4.7,0.5,5-0.6l0.3-1l0.1-0.2l0.2-0.6C194.6,86.4,193.9,85,192.5,84.6L192.5,84.6z"/>
			<path class="st2" d="M190.2,85.1L188,92c3.8,1.2,7.4,0.7,8-1.2S194,86.4,190.2,85.1L190.2,85.1z"/>
			<path class="st2" d="M192.5,84.6l-2-0.6l-1.9,6.1c2.4,0.8,4.7,0.5,5-0.6l0.3-1l0.1-0.2l0.2-0.6C194.6,86.4,193.9,85,192.5,84.6z"
				/>
			<path class="st3" d="M194.3,86.7C194.3,86.7,194.3,86.7,194.3,86.7c-0.1-1-0.8-1.8-1.8-2.1l-0.6-0.2l-2.8-0.9l-0.6-0.2
				c-1-0.3-2,0-2.6,0.7c0,0,0,0,0,0c-0.1,0.1-0.2,0.2-0.2,0.3c-0.3,1.1,1.3,2.5,3.6,3.3c2.4,0.8,4.5,0.5,4.9-0.6
				C194.3,87,194.3,86.8,194.3,86.7L194.3,86.7z"/>
			<path class="st2" d="M194.3,86.7c-0.1-0.9-0.8-1.8-1.8-2.1l-0.6-0.2l-1.4-0.4l-1.2,3.7c2.4,0.8,4.5,0.5,4.9-0.6
				C194.3,87,194.3,86.8,194.3,86.7C194.3,86.7,194.3,86.7,194.3,86.7L194.3,86.7z"/>
		</g>
		<g>
			
				<linearGradient id="SVGID_00000150811325004335226540000011897695413344444317_" gradientUnits="userSpaceOnUse" x1="194.2096" y1="203.2648" x2="226.9586" y2="203.2648" gradientTransform="matrix(0.9983 5.878369e-02 5.878369e-02 -0.9983 -15.0793 233.0916)">
				<stop  offset="0" style="stop-color:#DAA563"/>
				<stop  offset="0.99" style="stop-color:#AB7F46"/>
			</linearGradient>
			<path style="fill:url(#SVGID_00000150811325004335226540000011897695413344444317_);" d="M208.1,57.5
				c6.6-3.9,10.2-13.3,11.9-19.7l0.2-1.1c2.2-16.9-0.2-24.9-2.8-36.8c0,0-0.3,8.5-6.2,17.3c-2.4,3.6-5.9,6.1-9.6,9.2
				c-2.3,2-4,4.7-4.9,7.6c-2.1,6.8-3.4,15.9-1.4,22.3c0,0-3.2-10.5-3.8-17.7c-1.6,3-2.9,6.6-3.8,11c-4.3,20.7,2.7,35,2.7,35
				s16.9-10.2,25.4-31C212,56.2,208.1,57.6,208.1,57.5L208.1,57.5z"/>
			<path class="st3" d="M217.4,0c0,0-0.3,8.5-6.2,17.3c-2.4,3.6-5.9,6.1-9.6,9.2c-2.3,2-4,4.7-4.9,7.6c-2.1,6.8-3.4,15.9-1.4,22.3
				c0,0-3.2-10.5-3.8-17.7c-1.6,3-2.9,6.6-3.8,11c-4.3,20.7,2.7,35,2.7,35c0-7.2,1.1-16.5,8.1-28.6C220.8,17.5,217.4,0,217.4,0z"/>
		</g>
	</g>
</g>
</svg>
