<svg width="226" height="235" viewBox="0 0 226 235" fill="none" xmlns="http://www.w3.org/2000/svg">
<ellipse cx="112.5" cy="219.5" rx="106.5" ry="15.5" fill="#7D7D7D" fill-opacity="0.3"/>
<g clip-path="url(#clip0_923_1710)">
<path d="M134.906 199.182C134.792 199.182 134.604 199.182 134.491 199.182C130.7 199.03 126.777 198.689 123.005 198.159C120.421 197.8 118.629 195.414 118.988 192.821C119.346 190.228 121.722 188.429 124.306 188.789C127.776 189.281 131.379 189.584 135.019 189.736C137.621 189.736 139.677 191.856 139.677 194.468C139.677 197.08 137.508 199.2 134.906 199.2V199.182ZM157.274 196.228C155.199 196.228 153.294 194.828 152.728 192.726C152.049 190.209 153.539 187.596 156.067 186.934C159.499 186.006 162.894 184.852 166.176 183.47C168.571 182.466 171.343 183.602 172.343 186.025C173.342 188.448 172.211 191.212 169.797 192.215C166.138 193.749 162.347 195.036 158.518 196.077C158.103 196.191 157.689 196.247 157.292 196.247L157.274 196.228ZM101.806 192.556C101.24 192.556 100.656 192.442 100.09 192.234C96.3556 190.777 92.7345 189.073 89.2831 187.161C87.001 185.893 86.1712 183.015 87.4348 180.725C88.6984 178.434 91.5652 177.601 93.8472 178.87C96.9214 180.573 100.184 182.107 103.522 183.413C105.955 184.359 107.144 187.104 106.201 189.546C105.465 191.42 103.692 192.556 101.806 192.556ZM187.506 181.236C186.092 181.236 184.696 180.592 183.772 179.381C182.188 177.317 182.565 174.345 184.64 172.755C187.45 170.578 190.166 168.193 192.674 165.676C194.522 163.82 197.502 163.82 199.35 165.676C201.199 167.531 201.199 170.522 199.35 172.377C196.54 175.197 193.541 177.847 190.392 180.271C189.543 180.933 188.525 181.255 187.525 181.255L187.506 181.236ZM73.535 174.194C72.3279 174.194 71.1209 173.74 70.1967 172.812C67.3866 169.992 64.7462 166.944 62.3321 163.745C60.7667 161.662 61.1816 158.69 63.2562 157.119C65.3308 155.548 68.2919 155.964 69.8573 158.047C71.9884 160.886 74.3459 163.612 76.8543 166.111C78.7026 167.947 78.7026 170.957 76.8543 172.812C75.9302 173.74 74.7231 174.194 73.5161 174.194H73.535ZM209.723 155.794C208.931 155.794 208.101 155.586 207.366 155.15C205.103 153.844 204.348 150.948 205.65 148.676C207.422 145.591 209.026 142.354 210.384 139.06C211.383 136.637 214.137 135.501 216.551 136.504C218.965 137.508 220.096 140.271 219.097 142.695C217.588 146.367 215.796 149.983 213.816 153.428C212.948 154.942 211.364 155.794 209.723 155.794ZM55.1087 145.875C53.2227 145.875 51.4498 144.739 50.7143 142.884C49.2621 139.211 48.0362 135.388 47.0555 131.507C46.4142 128.97 47.9419 126.396 50.4691 125.752C52.9775 125.109 55.5613 126.642 56.2026 129.179C57.089 132.662 58.1829 136.107 59.4842 139.401C60.4461 141.824 59.2579 144.588 56.825 145.534C56.2592 145.761 55.6745 145.875 55.0898 145.875H55.1087ZM220.568 123.746C220.36 123.746 220.153 123.746 219.946 123.708C217.362 123.367 215.551 121.001 215.872 118.407C216.324 114.867 216.57 111.271 216.57 107.693V107.333C216.57 104.721 218.682 102.601 221.285 102.601C223.887 102.601 226 104.721 226 107.333V107.693C226 111.668 225.736 115.7 225.226 119.619C224.925 122.004 222.888 123.746 220.549 123.746H220.568ZM48.8283 112.52C46.2256 112.52 44.1133 110.476 44.1133 107.863V107.712C44.1133 103.793 44.3585 99.8371 44.8111 95.9754C45.1317 93.382 47.4704 91.5268 50.0542 91.8486C52.638 92.1704 54.4863 94.5178 54.1657 97.1112C53.7508 100.613 53.5244 104.172 53.5244 107.712C53.5244 110.324 51.4121 112.52 48.8094 112.52H48.8283ZM218.267 89.6338C216.192 89.6338 214.288 88.2519 213.722 86.1318C212.798 82.6865 211.628 79.2791 210.251 75.9853C209.252 73.5812 210.384 70.7985 212.779 69.7952C215.174 68.773 217.946 69.9277 218.946 72.3318C220.474 76.0042 221.775 79.8092 222.812 83.652C223.491 86.1696 222.02 88.782 219.493 89.4635C219.078 89.577 218.663 89.6338 218.248 89.6338H218.267ZM54.9767 79.2981C54.4109 79.2981 53.8262 79.1845 53.2604 78.9763C50.8275 78.0298 49.6393 75.2849 50.5823 72.8429C52.0345 69.1137 53.7319 65.4603 55.6368 62.015C56.9004 59.7245 59.7671 58.8916 62.0492 60.1599C64.3313 61.4282 65.1611 64.3055 63.8975 66.5961C62.2001 69.7006 60.6724 72.9565 59.3711 76.3071C58.6355 78.1812 56.8627 79.317 54.9767 79.317V79.2981ZM203.236 59.3459C201.821 59.3459 200.425 58.7212 199.501 57.5097C197.332 54.6891 194.937 51.9821 192.429 49.4644C190.58 47.6282 190.58 44.6184 192.41 42.7632C194.239 40.9081 197.238 40.8892 199.086 42.7443C201.896 45.5459 204.556 48.5558 206.97 51.6982C208.573 53.7615 208.196 56.7335 206.121 58.3426C205.254 59.0051 204.254 59.3269 203.236 59.3269V59.3459ZM73.2898 50.8842C72.0827 50.8842 70.8946 50.4299 69.9704 49.5023C68.1221 47.6661 68.1221 44.6562 69.9516 42.8011C72.7617 39.9616 75.7793 37.3114 78.9667 34.9073C81.0413 33.3361 84.0023 33.7336 85.5677 35.8349C87.1331 37.9172 86.7181 40.8892 84.6435 42.4603C81.8145 44.5994 79.1364 46.9657 76.628 49.4834C75.7039 50.4109 74.4968 50.8842 73.2898 50.8842ZM177.812 37.1032C177.02 37.1032 176.209 36.8949 175.474 36.4785C172.381 34.6991 169.155 33.1089 165.874 31.7649C163.46 30.7806 162.309 27.9978 163.309 25.5937C164.29 23.1707 167.062 22.016 169.457 23.0193C173.116 24.5337 176.718 26.2941 180.17 28.2818C182.433 29.588 183.206 32.4653 181.905 34.7369C181.037 36.2702 179.453 37.1221 177.812 37.1221V37.1032ZM101.467 32.3896C99.5807 32.3896 97.8079 31.2538 97.0723 29.3987C96.1105 26.9756 97.2986 24.2119 99.7316 23.2654C103.353 21.8267 107.162 20.5773 111.029 19.574C113.556 18.9304 116.121 20.4448 116.781 22.9814C117.441 25.518 115.914 28.0925 113.405 28.755C109.916 29.6637 106.483 30.7806 103.202 32.0678C102.636 32.295 102.051 32.4085 101.467 32.4085V32.3896ZM145.844 26.332C145.656 26.332 145.448 26.332 145.241 26.2942C141.846 25.8588 138.376 25.6316 134.924 25.6316H134.755C132.133 25.7263 129.964 23.7197 129.851 21.1073C129.738 18.495 131.775 16.2991 134.377 16.1855H134.849C138.734 16.1855 142.638 16.4127 146.448 16.9049C149.032 17.2267 150.861 19.6119 150.522 22.2053C150.22 24.5905 148.183 26.332 145.844 26.332Z" fill="#FFE978"/>
<path d="M125.571 69.9277L114.557 89.0849H136.585L125.571 69.9277Z" fill="#6DA6FE"/>
<path d="M18.369 84.0304C27.8581 84.0304 35.5505 76.3095 35.5505 66.7852C35.5505 57.261 27.8581 49.54 18.369 49.54C8.87992 49.54 1.1875 57.261 1.1875 66.7852C1.1875 76.3095 8.87992 84.0304 18.369 84.0304Z" fill="#94FBFC"/>
<path d="M96.6951 27.3349C104.216 27.3349 110.312 21.2158 110.312 13.6674C110.312 6.11912 104.216 0 96.6951 0C89.1746 0 83.0781 6.11912 83.0781 13.6674C83.0781 21.2158 89.1746 27.3349 96.6951 27.3349Z" fill="url(#paint0_linear_923_1710)"/>
<path d="M152.654 179.551C141.489 179.551 132.398 170.427 132.398 159.22C132.398 148.014 141.489 138.89 152.654 138.89C163.819 138.89 172.91 148.014 172.91 159.22C172.91 170.427 163.819 179.551 152.654 179.551ZM152.654 146.462C145.638 146.462 139.942 152.178 139.942 159.22C139.942 166.262 145.638 171.979 152.654 171.979C159.67 171.979 165.366 166.262 165.366 159.22C165.366 152.178 159.67 146.462 152.654 146.462Z" fill="#94FBFC"/>
<path d="M114.518 127.588C114.556 127.134 114.594 126.661 114.631 126.206C114.707 124.938 114.782 123.651 114.782 122.364C114.782 90.5613 89.0949 64.7598 57.3911 64.7598C25.6874 64.7598 0 90.5613 0 122.364C0 123.651 0.0565801 124.938 0.15088 126.206C0.188601 126.661 0.207461 127.134 0.264041 127.588C0.320621 128.194 0.396061 128.8 0.452641 129.406C5.58258 174.364 57.3911 212.981 57.3911 212.981C57.3911 212.981 109.2 174.345 114.33 129.406C114.405 128.8 114.481 128.194 114.518 127.588Z" fill="url(#paint1_linear_923_1710)"/>
<path d="M57.3918 145.685C70.2245 145.685 80.6274 135.244 80.6274 122.364C80.6274 109.483 70.2245 99.042 57.3918 99.042C44.5592 99.042 34.1562 109.483 34.1562 122.364C34.1562 135.244 44.5592 145.685 57.3918 145.685Z" fill="white"/>
</g>
<defs>
<linearGradient id="paint0_linear_923_1710" x1="83.0781" y1="13.6674" x2="110.293" y2="13.6674" gradientUnits="userSpaceOnUse">
<stop stop-color="#D8E3F4"/>
<stop offset="1" stop-color="#A3B8F9"/>
</linearGradient>
<linearGradient id="paint1_linear_923_1710" x1="0" y1="138.89" x2="114.763" y2="138.89" gradientUnits="userSpaceOnUse">
<stop stop-color="#71A5F7"/>
<stop offset="1" stop-color="#B3A7F8"/>
</linearGradient>
<clipPath id="clip0_923_1710">
<rect width="226" height="213" fill="white"/>
</clipPath>
</defs>
</svg>
