<?xml version="1.0" encoding="UTF-8"?>
<svg xmlns="http://www.w3.org/2000/svg" xmlns:xlink="http://www.w3.org/1999/xlink" viewBox="0 0 221.1 236.87">
  <defs>
    <style>
      .cls-1 {
        fill: url(#linear-gradient);
      }

      .cls-2 {
        fill: url(#radial-gradient);
        opacity: .8;
      }

      .cls-2, .cls-3 {
        mix-blend-mode: multiply;
      }

      .cls-4 {
        fill: #f6d069;
      }

      .cls-5 {
        fill: #fbe19b;
      }

      .cls-6, .cls-3 {
        fill: #daa563;
      }

      .cls-7 {
        fill: #e1e6f6;
      }

      .cls-3 {
        opacity: .4;
      }

      .cls-8 {
        fill: url(#__Á_____ó_ð_ðÆ__10);
      }

      .cls-9 {
        fill: url(#linear-gradient-8);
      }

      .cls-10 {
        fill: url(#linear-gradient-9);
      }

      .cls-11 {
        fill: url(#linear-gradient-3);
      }

      .cls-12 {
        fill: url(#linear-gradient-4);
      }

      .cls-13 {
        fill: url(#linear-gradient-2);
      }

      .cls-14 {
        fill: url(#linear-gradient-6);
      }

      .cls-15 {
        fill: url(#linear-gradient-7);
      }

      .cls-16 {
        fill: url(#linear-gradient-5);
      }

      .cls-17 {
        fill: url(#__Á_____ó_ð_ðÆ__10-2);
      }

      .cls-18 {
        fill: url(#__Á_____ó_ð_ðÆ__10-4);
      }

      .cls-19 {
        fill: url(#__Á_____ó_ð_ðÆ__10-3);
      }

      .cls-20 {
        fill: url(#__Á_____ó_ð_ðÆ__10-6);
      }

      .cls-21 {
        fill: url(#__Á_____ó_ð_ðÆ__10-5);
      }

      .cls-22 {
        fill: url(#linear-gradient-10);
      }

      .cls-23 {
        isolation: isolate;
      }

      .cls-24 {
        fill: #fff;
        opacity: .6;
      }

      .cls-25 {
        fill: #7d7d7d;
        opacity: .3;
      }
    </style>
    <linearGradient id="linear-gradient" x1="119.52" y1="352.3" x2="221.53" y2="508.33" gradientTransform="translate(-120.23 -128.52) rotate(-20.65)" gradientUnits="userSpaceOnUse">
      <stop offset="0" stop-color="#ddeffc"/>
      <stop offset="1" stop-color="#c7d9fc"/>
    </linearGradient>
    <linearGradient id="linear-gradient-2" x1="77.3" y1="354.83" x2="143.43" y2="354.83" gradientTransform="translate(-2.2 -190.23)" gradientUnits="userSpaceOnUse">
      <stop offset="0" stop-color="#d3e1f4"/>
      <stop offset="1" stop-color="#9cb7fc"/>
    </linearGradient>
    <linearGradient id="linear-gradient-3" x1="78.38" y1="370.92" x2="144.5" y2="370.92" gradientTransform="translate(3.4 -191.64)" xlink:href="#linear-gradient-2"/>
    <linearGradient id="linear-gradient-4" x1="101.75" y1="301.01" x2="138.39" y2="301.01" gradientTransform="translate(-21.81 -190.19)" xlink:href="#linear-gradient-2"/>
    <linearGradient id="linear-gradient-5" x1="102.26" y1="318.5" x2="138.9" y2="318.5" gradientTransform="translate(-15.67 -191.5)" xlink:href="#linear-gradient-2"/>
    <linearGradient id="linear-gradient-6" x1="60.62" y1="268.55" x2="126.75" y2="268.55" gradientTransform="translate(-31.56 -178.8)" xlink:href="#linear-gradient-2"/>
    <linearGradient id="linear-gradient-7" x1="69.2" y1="281.06" x2="135.33" y2="281.06" gradientTransform="translate(-27.69 -182.63)" xlink:href="#linear-gradient-2"/>
    <linearGradient id="__Á_____ó_ð_ðÆ__10" data-name="¹«Á¦ ±×¶óµð¾ðÆ® 10" x1="74.53" y1="321" x2="97.04" y2="321" gradientTransform="translate(-120.23 -128.52) rotate(-20.65)" gradientUnits="userSpaceOnUse">
      <stop offset="0" stop-color="#61a5fc"/>
      <stop offset="1" stop-color="#b4a4fc"/>
    </linearGradient>
    <linearGradient id="__Á_____ó_ð_ðÆ__10-2" data-name="¹«Á¦ ±×¶óµð¾ðÆ® 10" x1="102.26" y1="336.39" x2="114.1" y2="336.39" xlink:href="#__Á_____ó_ð_ðÆ__10"/>
    <linearGradient id="__Á_____ó_ð_ðÆ__10-3" data-name="¹«Á¦ ±×¶óµð¾ðÆ® 10" x1="117.96" y1="336.39" x2="129.8" y2="336.39" xlink:href="#__Á_____ó_ð_ðÆ__10"/>
    <linearGradient id="__Á_____ó_ð_ðÆ__10-4" data-name="¹«Á¦ ±×¶óµð¾ðÆ® 10" x1="133.66" y1="336.39" x2="145.5" y2="336.39" xlink:href="#__Á_____ó_ð_ðÆ__10"/>
    <linearGradient id="__Á_____ó_ð_ðÆ__10-5" data-name="¹«Á¦ ±×¶óµð¾ðÆ® 10" x1="114.1" y1="402.33" x2="184.36" y2="402.33" xlink:href="#__Á_____ó_ð_ðÆ__10"/>
    <linearGradient id="__Á_____ó_ð_ðÆ__10-6" data-name="¹«Á¦ ±×¶óµð¾ðÆ® 10" x1="84.31" y1="392.96" x2="111.44" y2="392.96" xlink:href="#__Á_____ó_ð_ðÆ__10"/>
    <linearGradient id="linear-gradient-8" x1="-44.67" y1="107.41" x2="-12.99" y2="107.41" gradientTransform="translate(185.82 323.98) rotate(151.75) scale(.61 1.19) skewX(16.11)" xlink:href="#linear-gradient-2"/>
    <linearGradient id="linear-gradient-9" x1="-66.31" y1="100.28" x2="-31.78" y2="100.28" gradientTransform="translate(185.82 323.98) rotate(151.75) scale(.61 1.19) skewX(16.11)" xlink:href="#linear-gradient-2"/>
    <radialGradient id="radial-gradient" cx="156.13" cy="194.73" fx="156.13" fy="194.73" r="9.11" gradientTransform="translate(.04 118.09) scale(1 .39)" gradientUnits="userSpaceOnUse">
      <stop offset="0" stop-color="#3e37a8"/>
      <stop offset="1" stop-color="#7fa5fb" stop-opacity=".1"/>
    </radialGradient>
    <linearGradient id="linear-gradient-10" x1="193.48" y1="35.94" x2="226.24" y2="35.94" gradientTransform="translate(-.29 -5.65) rotate(3.37)" gradientUnits="userSpaceOnUse">
      <stop offset="0" stop-color="#daa563"/>
      <stop offset=".99" stop-color="#ab7f46"/>
    </linearGradient>
  </defs>
  <g class="cls-23">
    <g id="Layer_1" data-name="Layer 1">
      <ellipse class="cls-25" cx="116.78" cy="222.55" rx="94.98" ry="13.09"/>
      <g>
        <g>
          <path class="cls-1" d="M217.62,204.9l-84.84,31.97c-2.79-7.6-5.44-11.93-8.19-14.32-3.69-3.21-7.55-2.88-12.17-2.12-5.7,.95-14,1.48-21.13-.95-2.91-.99-5.61-2.47-7.87-4.61-5.21-4.96-11.98-16.82-26.62-50.66-.79-1.83-1.6-3.72-2.44-5.69-7.41-17.31-12.91-28.46-16.71-35.48-3.8-7.06-5.92-9.96-6.52-10.74-.12-.17-.19-.24-.19-.24-3.1-4.1-7.9-6.6-12.96-6.84-2.27-.13-4.6,.22-6.85,1.07l84.82-31.96c1.89-.71,3.83-1.07,5.74-1.1,5.48-.08,10.77,2.47,14.08,6.87,0,0,.07,.07,.19,.24,.75,.94,3.71,5.05,9.28,15.97,3.55,6.96,8.17,16.73,13.95,30.24,16.37,38.22,23.57,51.13,29.06,56.35,7.81,7.4,20.97,6.89,29,5.55,8.04-1.32,13.81-1.39,20.37,16.44Z"/>
          <rect class="cls-13" x="75.1" y="162.1" width="66.13" height="5" rx="1.12" ry="1.12" transform="translate(-51.09 48.71) rotate(-20.65)"/>
          <rect class="cls-11" x="81.78" y="176.78" width="66.13" height="5" rx="1.12" ry="1.12" transform="translate(-55.84 52.01) rotate(-20.65)"/>
          <rect class="cls-12" x="79.94" y="108.31" width="36.64" height="5" rx="1.12" ry="1.12" transform="translate(-32.76 41.77) rotate(-20.65)"/>
          <rect class="cls-16" x="86.59" y="124.51" width="36.64" height="5" rx="1.12" ry="1.12" transform="translate(-38.05 45.15) rotate(-20.65)"/>
          <path class="cls-7" d="M37.65,123.04L3.86,135.78l-2.76-7.32c-1.67-4.43-1.38-9.14,.44-13.15,1.6-3.53,4.38-6.55,8.03-8.34,.5-.25,1.02-.48,1.55-.68,2.26-.85,4.58-1.2,6.85-1.07,5.06,.24,9.86,2.74,12.96,6.84,0,0,.07,.07,.19,.24,.61,.77,2.72,3.67,6.52,10.74Z"/>
          <path class="cls-24" d="M115.76,80.1c-3.31-4.4-8.6-6.95-14.08-6.87-1.91,.03-3.85,.39-5.74,1.1L11.12,106.29c2.26-.85,4.58-1.2,6.85-1.07,5.06,.24,9.86,2.74,12.96,6.84,0,0,.03,.04,.09,.11l84.82-31.96c-.05-.06-.09-.11-.09-.11Z"/>
          <rect class="cls-14" x="29.06" y="87.24" width="66.13" height="5" rx="1.12" ry="1.12" transform="translate(-27.65 27.67) rotate(-20.65)"/>
          <rect class="cls-15" x="41.51" y="95.93" width="66.13" height="5" rx="1.12" ry="1.12" transform="translate(-29.92 32.62) rotate(-20.65)"/>
          <path class="cls-24" d="M83.43,214.88c2.26,2.14,4.96,3.62,7.87,4.61,7.13,2.43,15.43,1.9,21.13,.95,4.06-.67,7.55-1,10.84,1.13l84.84-31.97c-3.3-2.13-6.79-1.79-10.86-1.12-8.03,1.34-21.19,1.85-29-5.55-.47-.45-.95-.96-1.45-1.53l-84.82,31.96c.5,.57,.99,1.08,1.46,1.53Z"/>
          <path class="cls-8" d="M86.42,146.44c-5.25-12.28-9.54-21.44-12.95-28.24l-18.47,6.96c3.41,6.8,7.7,15.96,12.95,28.24,.84,1.97,1.65,3.86,2.44,5.69,.9,2.07,1.75,4.03,2.59,5.94l18.48-6.96c-1.58-3.59-3.25-7.45-5.04-11.63Z"/>
          <circle class="cls-17" cx="99.62" cy="148.11" r="5.92"/>
          <circle class="cls-19" cx="114.3" cy="142.58" r="5.92"/>
          <circle class="cls-18" cx="128.99" cy="137.04" r="5.92"/>
          <path class="cls-21" d="M185.63,192.84c-8.03,1.34-15.5-.29-23.31-7.7-1.1-1.05-2.27-2.41-2.9-4.46l-36.07,13.59c.63,2.06,1.8,3.42,2.9,4.46,2.26,2.14,5.59,5.62,8.5,6.61,7.13,2.43,8.1,2.42,13.8,1.47,4.61-.75,8.48-1.09,12.17,2.12,.48,.42,.96,.91,1.43,1.45l37.06-13.97c-4.13-4.71-8.39-4.43-13.59-3.57Z"/>
          <path class="cls-20" d="M103.87,212.31l20.5-7.73c-1.75-.87-3.39-1.95-4.84-3.32-1.1-1.05-2.27-2.41-3.57-4.21l-20.5,7.73c1.3,1.8,2.47,3.16,3.57,4.21,1.45,1.37,3.09,2.44,4.84,3.32Z"/>
        </g>
        <path class="cls-9" d="M116.57,212.93l11.77-4.3c1.93-.7,4.24-.75,5.15-.11h0c.91,.64,.09,1.74-1.84,2.44l-11.77,4.3c-1.93,.7-4.24,.75-5.15,.11h0c-.91-.64-.09-1.74,1.84-2.44Z"/>
        <path class="cls-10" d="M131.8,214.26l13.44-4.94c1.93-.7,4.24-.75,5.15-.11h0c.91,.64,.09,1.74-1.84,2.44l-13.44,4.94c-1.93,.7-4.24,.75-5.15,.11h0c-.91-.64-.09-1.74,1.84-2.44Z"/>
      </g>
    </g>
    <g id="pen">
      <ellipse class="cls-2" cx="155.93" cy="194.73" rx="9.96" ry="3.32"/>
      <g>
        <g>
          <path class="cls-6" d="M157.54,182.3l-2.42,12.45c-.05,.28,.25,.38,.37,.12l5.22-11.57-3.16-1Z"/>
          <path class="cls-3" d="M155.25,195.01c.08,.02,.18-.02,.24-.14l5.22-11.57-1.57-.5-3.88,12.21Z"/>
        </g>
        <g>
          <path class="cls-4" d="M166.39,144.51l-8.97,37.74c-.15,.47,.49,1.09,1.43,1.39s1.82,.16,1.97-.3l14.48-35.99-8.92-2.84Z"/>
          <path class="cls-3" d="M160.83,183.34l14.48-35.99-4.45-1.42-12,37.71c.94,.3,1.82,.16,1.97-.31Z"/>
        </g>
        <g>
          <path class="cls-4" d="M196.03,90.79l-13.87-4.41-15.79,54.92s-.04,.05-.04,.08c-.01,.04,0,.08-.01,.12l-.79,2.74,10.65,3.39,.94-2.69s.05-.07,.06-.11c0-.03,0-.06,0-.09l18.85-53.95Z"/>
          <ellipse class="cls-4" cx="170.85" cy="145.93" rx="2.78" ry="5.59" transform="translate(-20.01 264.5) rotate(-72.35)"/>
          <path class="cls-3" d="M189.11,88.59l-18.24,57.35,5.32,1.69,.94-2.69s.05-.07,.06-.11c0-.03,0-.06,0-.09l18.85-53.95-6.93-2.2Z"/>
          <path class="cls-6" d="M176.23,147.44c0,.06-.02,.14-.04,.2-.46,1.45-3.23,1.88-6.18,.94-2.95-.94-4.96-2.88-4.5-4.34,.02-.06,.04-.13,.08-.19l.02-.08,.63-2.24c-.02,.46,.15,.91,.49,1.38,.72,1.05,2.24,2.08,4.16,2.69,1.91,.61,3.75,.65,4.95,.21,.54-.19,.95-.46,1.19-.84l-.78,2.19-.02,.08Z"/>
          <path class="cls-3" d="M177.04,145.17c-.25,.38-.65,.66-1.19,.84-1.19,.44-3.03,.4-4.94-.2l-.88,2.77c2.94,.93,5.71,.51,6.17-.94,.02-.06,.04-.13,.04-.2l.02-.08,.78-2.19Z"/>
        </g>
        <g>
          <ellipse class="cls-5" cx="189.1" cy="88.59" rx="3.62" ry="7.28" transform="translate(47.35 241.93) rotate(-72.35)"/>
          <path class="cls-6" d="M192.54,84.57l-3.93-1.25c-1.34-.43-2.78,.32-3.21,1.66l-.18,.55-.05,.15-.32,1.02c-.35,1.1,1.34,2.61,3.77,3.38,2.43,.77,4.68,.51,5.03-.59l.32-1.02,.05-.15,.18-.55c.43-1.34-.32-2.78-1.66-3.21Z"/>
          <path class="cls-3" d="M190.2,85.14l-2.19,6.89c3.83,1.22,7.42,.66,8.03-1.24s-2.01-4.43-5.83-5.65Z"/>
          <path class="cls-3" d="M192.54,84.57l-1.96-.62-1.95,6.14c2.43,.77,4.67,.51,5.02-.59l.32-1.02,.05-.15,.18-.55c.43-1.34-.32-2.78-1.66-3.21Z"/>
          <path class="cls-4" d="M194.29,86.71s0-.04-.01-.06c-.13-.94-.78-1.78-1.75-2.08l-.57-.18-2.79-.89-.57-.18c-.96-.31-1.97,0-2.63,.69-.01,.01-.03,.03-.04,.04-.09,.1-.16,.22-.2,.35-.34,1.06,1.3,2.53,3.65,3.28,2.35,.75,4.53,.49,4.87-.57,.04-.13,.05-.26,.04-.4Z"/>
          <path class="cls-3" d="M194.28,86.65c-.13-.94-.78-1.78-1.75-2.08l-.57-.18-1.39-.44-1.19,3.73c2.35,.75,4.53,.49,4.87-.57,.04-.13,.05-.26,.04-.4,0-.02,0-.04-.01-.06Z"/>
        </g>
        <g>
          <path class="cls-22" d="M208.13,57.54c6.64-3.89,10.18-13.27,11.88-19.68l.21-1.08C222.44,19.91,220.02,11.83,217.45,0c0,0-.33,8.47-6.24,17.28-2.42,3.61-5.89,6.06-9.57,9.25-2.33,2.02-4.02,4.67-4.91,7.62-2.05,6.8-3.4,15.87-1.42,22.3,0,0-3.2-10.54-3.81-17.66-1.57,3.02-2.91,6.58-3.83,10.96-4.34,20.66,2.7,34.99,2.7,34.99,0,0,16.89-10.22,25.45-30.95-3.81,2.44-7.69,3.76-7.69,3.76Z"/>
          <path class="cls-4" d="M217.45,0s-.33,8.47-6.24,17.28c-2.42,3.61-5.89,6.06-9.57,9.25-2.33,2.02-4.02,4.67-4.91,7.62-2.05,6.8-3.4,15.87-1.42,22.3,0,0-3.2-10.54-3.81-17.66-1.57,3.02-2.91,6.58-3.83,10.96-4.34,20.66,2.7,34.99,2.7,34.99-.03-7.23,1.13-16.53,8.09-28.58C220.78,17.48,217.45,0,217.45,0Z"/>
        </g>
      </g>
    </g>
  </g>
</svg>