<svg width="409" height="176" viewBox="0 0 409 176" fill="none" xmlns="http://www.w3.org/2000/svg">
<g filter="url(#filter0_d_843_3822)">
<rect x="18" y="116" width="40" height="40" rx="8" fill="white"/>
</g>
<path d="M37.995 127L29 133.62V145.47H34.9966V139.5C34.9966 138.81 35.5903 138.25 36.3348 138.25H39.6752C40.4097 138.25 41.0034 138.81 41.0034 139.5V145.47H47V133.62L37.995 127Z" stroke="#9E9E9E" stroke-width="1.5" stroke-miterlimit="10" stroke-linecap="round" stroke-linejoin="round"/>
<g filter="url(#filter1_d_843_3822)">
<rect x="66" y="116" width="40" height="40" rx="8" fill="white"/>
</g>
<path d="M86 127C81.03 127 77 131.03 77 136C77 137.91 77.6 139.67 78.61 141.13L77.11 144.97L81.67 143.89C82.96 144.6 84.43 145 86.01 145C90.98 145 95.01 140.97 95.01 136C95 131.03 90.97 127 86 127Z" stroke="#9E9E9E" stroke-width="1.5" stroke-miterlimit="10" stroke-linecap="round" stroke-linejoin="round"/>
<g filter="url(#filter2_d_843_3822)">
<rect x="114" y="116" width="40" height="40" rx="8" fill="white"/>
</g>
<path d="M143 132.171V141.181C143 142.448 142.071 143.484 140.929 143.484H127.071C125.929 143.484 125 142.448 125 141.181V130.303C125 129.035 125.929 128 127.071 128H131.706L133.661 130.565H141.548C142.342 130.565 143 131.29 143 132.171Z" stroke="#9E9E9E" stroke-width="1.5" stroke-miterlimit="10" stroke-linecap="round" stroke-linejoin="round"/>
<g filter="url(#filter3_d_843_3822)">
<rect x="162" y="116" width="40" height="40" rx="8" fill="white"/>
</g>
<path d="M181.997 136.915C184.459 136.915 186.455 134.92 186.455 132.458C186.455 129.996 184.459 128 181.997 128C179.535 128 177.539 129.996 177.539 132.458C177.539 134.92 179.535 136.915 181.997 136.915Z" stroke="#9E9E9E" stroke-width="1.5" stroke-miterlimit="10" stroke-linecap="round" stroke-linejoin="round"/>
<path d="M189.676 141.461C189.676 141.461 187.097 139.709 181.997 139.709C176.916 139.709 174.318 141.461 174.318 141.461C172.42 142.911 173.13 145.734 173.13 145.734H181.997H190.874C190.874 145.734 191.574 142.911 189.676 141.461Z" stroke="#9E9E9E" stroke-width="1.5" stroke-miterlimit="10" stroke-linecap="round" stroke-linejoin="round"/>
<g filter="url(#filter4_d_843_3822)">
<rect x="16" y="12" width="40" height="40" rx="8" fill="white"/>
</g>
<path d="M38.8616 38.1758C38.8616 39.7428 37.5818 41.0005 36.0003 41.0005C34.4188 41.0005 33.1494 39.7325 33.1494 38.1758H38.8616Z" stroke="#555555" stroke-width="1.5" stroke-miterlimit="10" stroke-linecap="round" stroke-linejoin="round"/>
<path d="M27 38.1752H45L42.8254 33.299V29.7629C42.8254 27.8969 42.0555 26.2062 40.8173 24.9897C39.8393 24.0206 38.5699 23.3402 37.1549 23.1031C36.7803 23.0412 36.3954 23 36 23C35.6046 23 35.2197 23.0309 34.8451 23.1031C31.6301 23.6495 29.1746 26.433 29.1746 29.7629V33.299L27 38.1752Z" stroke="#555555" stroke-width="1.5" stroke-miterlimit="10" stroke-linecap="round" stroke-linejoin="round"/>
<g filter="url(#filter5_d_843_3822)">
<rect x="112" y="12" width="40" height="40" rx="8" fill="white"/>
</g>
<path d="M130.351 37.3404C134.2 37.3404 137.321 34.2198 137.321 30.3704C137.321 26.521 134.2 23.4004 130.351 23.4004C126.501 23.4004 123.381 26.521 123.381 30.3704C123.381 34.2198 126.501 37.3404 130.351 37.3404Z" stroke="#606162" stroke-width="1.5" stroke-miterlimit="10" stroke-linecap="round"/>
<path d="M135.811 35.8301L140.621 40.6401" stroke="#606162" stroke-width="1.5" stroke-miterlimit="10" stroke-linecap="round"/>
<g filter="url(#filter6_d_843_3822)">
<rect x="64" y="12" width="40" height="40" rx="8" fill="white"/>
</g>
<path d="M91.13 41.2992H77C75.9 41.2992 75 40.3992 75 39.2992V29.6992C75 28.5992 75.9 27.6992 77 27.6992H91.13C92.23 27.6992 93.13 28.5992 93.13 29.6992V39.2992C93.13 40.3992 92.23 41.2992 91.13 41.2992Z" stroke="#555555" stroke-width="1.5" stroke-miterlimit="10" stroke-linecap="round" stroke-linejoin="round"/>
<path d="M75 32.0195H93.13" stroke="#555555" stroke-width="1.5" stroke-miterlimit="10" stroke-linecap="round" stroke-linejoin="round"/>
<path d="M82.8503 23.7902C84.0003 24.8902 83.7903 27.6302 83.7903 27.6302C83.7903 27.6302 80.9203 27.8302 79.7703 26.7302C78.6203 25.6302 78.7703 24.4602 79.6203 23.6502C80.4703 22.8402 81.7003 22.6902 82.8503 23.7902Z" stroke="#555555" stroke-width="1.5" stroke-miterlimit="10" stroke-linecap="round" stroke-linejoin="round"/>
<path d="M85.2802 23.79C84.1302 24.89 84.3402 27.63 84.3402 27.63C84.3402 27.63 87.2102 27.83 88.3602 26.73C89.5102 25.63 89.3602 24.46 88.5102 23.65C87.6602 22.83 86.4302 22.69 85.2802 23.79Z" stroke="#555555" stroke-width="1.5" stroke-miterlimit="10" stroke-linecap="round" stroke-linejoin="round"/>
<g filter="url(#filter7_d_843_3822)">
<rect x="160" y="12" width="40" height="40" rx="8" fill="white"/>
</g>
<path d="M183.76 24.0797L176.16 28.0797H172.4C171.63 28.0797 171 28.7097 171 29.4797V34.7697C171 35.5397 171.63 36.1697 172.4 36.1697H176.16L183.76 40.1697C184.23 40.4197 184.79 40.0797 184.79 39.5497V24.6997C184.79 24.1697 184.23 23.8397 183.76 24.0797Z" stroke="#555555" stroke-width="1.5" stroke-miterlimit="10" stroke-linecap="round" stroke-linejoin="round"/>
<path d="M188.83 26.9297V37.3197" stroke="#555555" stroke-width="1.5" stroke-miterlimit="10" stroke-linecap="round" stroke-linejoin="round"/>
<g filter="url(#filter8_d_843_3822)">
<rect x="304" y="12" width="40" height="40" rx="8" fill="white"/>
</g>
<path d="M333.62 39.0544C333.62 40.0988 332.766 40.9534 331.721 40.9534H316.53C315.485 40.9534 314.631 40.0988 314.631 39.0544V25.8989C314.631 24.8545 315.485 24 316.53 24H331.721C332.766 24 333.62 24.8545 333.62 25.8989V39.0544Z" stroke="#555555" stroke-width="1.5" stroke-miterlimit="10" stroke-linecap="round" stroke-linejoin="round"/>
<path d="M314.631 27.3438C314.631 27.8185 314.842 28.3038 315.327 28.6203L323.261 33.9373C323.788 34.2854 324.474 34.2854 325.001 33.9373L332.935 28.6203C333.409 28.3038 333.631 27.8185 333.631 27.3438" stroke="#555555" stroke-width="1.5" stroke-miterlimit="10" stroke-linecap="round" stroke-linejoin="round"/>
<g filter="url(#filter9_d_843_3822)">
<rect x="352" y="12" width="40" height="40" rx="8" fill="white"/>
</g>
<path d="M372.41 24V34.15" stroke="#555555" stroke-width="1.5" stroke-miterlimit="10" stroke-linecap="round" stroke-linejoin="round"/>
<path d="M368.09 30.5801L372.36 34.9801" stroke="#555555" stroke-width="1.5" stroke-miterlimit="10" stroke-linecap="round" stroke-linejoin="round"/>
<path d="M376.73 30.5801L372.47 34.9801" stroke="#555555" stroke-width="1.5" stroke-miterlimit="10" stroke-linecap="round" stroke-linejoin="round"/>
<path d="M380.82 33.5V36.79C380.82 38.19 379.64 39.33 378.18 39.33H366.64C365.18 39.33 364 38.19 364 36.79V33.5" stroke="#555555" stroke-width="1.5" stroke-miterlimit="10" stroke-linecap="round" stroke-linejoin="round"/>
<g filter="url(#filter10_d_843_3822)">
<rect x="257" y="64" width="40" height="40" rx="8" fill="white"/>
</g>
<path d="M276.997 75.2383L269.858 82.3769" stroke="#555555" stroke-width="1.5" stroke-miterlimit="10" stroke-linecap="round" stroke-linejoin="round"/>
<path d="M278.851 91.3693L286 84.252" stroke="#555555" stroke-width="1.5" stroke-miterlimit="10" stroke-linecap="round" stroke-linejoin="round"/>
<path d="M282.981 81.2344L280.079 84.1364" stroke="#555555" stroke-width="1.5" stroke-miterlimit="10" stroke-linecap="round" stroke-linejoin="round"/>
<path d="M280.079 84.1364L282.981 81.2344" stroke="#555555" stroke-width="1.5" stroke-miterlimit="10" stroke-linecap="round" stroke-linejoin="round"/>
<path d="M282.981 81.2339C284.633 79.5816 284.633 76.902 282.981 75.2392C281.329 73.5869 278.649 73.5869 276.986 75.2392" stroke="#555555" stroke-width="1.5" stroke-miterlimit="10" stroke-linecap="round" stroke-linejoin="round"/>
<path d="M279.984 78.2363L277.082 81.1384" stroke="#555555" stroke-width="1.5" stroke-miterlimit="10" stroke-linecap="round" stroke-linejoin="round"/>
<path d="M275.843 88.3724C274.985 89.2303 273.619 89.2514 272.793 88.4253C271.967 87.5992 271.988 86.2329 272.846 85.375" stroke="#555555" stroke-width="1.5" stroke-miterlimit="10" stroke-linecap="round" stroke-linejoin="round"/>
<path d="M269.859 82.377C267.38 84.8553 267.38 88.88 269.859 91.369C272.337 93.858 276.372 93.858 278.851 91.369" stroke="#555555" stroke-width="1.5" stroke-miterlimit="10" stroke-linecap="round" stroke-linejoin="round"/>
<path d="M280.079 84.1367L275.843 88.3733" stroke="#555555" stroke-width="1.5" stroke-miterlimit="10" stroke-linecap="round" stroke-linejoin="round"/>
<path d="M272.856 85.3756L276.998 81.2344" stroke="#555555" stroke-width="1.5" stroke-miterlimit="10" stroke-linecap="round" stroke-linejoin="round"/>
<path d="M276.998 81.2344L272.856 85.3756" stroke="#555555" stroke-width="1.5" stroke-miterlimit="10" stroke-linecap="round" stroke-linejoin="round"/>
<path d="M275.843 88.3733L280.079 84.1367" stroke="#555555" stroke-width="1.5" stroke-miterlimit="10" stroke-linecap="round" stroke-linejoin="round"/>
<path d="M272.857 85.375C272.846 85.375 272.846 85.375 272.857 85.375C271.999 86.2329 271.977 87.5992 272.804 88.4253C273.63 89.2514 274.996 89.2303 275.854 88.3724" stroke="#555555" stroke-width="1.5" stroke-miterlimit="10" stroke-linecap="round" stroke-linejoin="round"/>
<path d="M277.082 81.1387L276.997 81.234" stroke="#555555" stroke-width="1.5" stroke-miterlimit="10" stroke-linecap="round" stroke-linejoin="round"/>
<g filter="url(#filter11_d_843_3822)">
<rect x="305" y="64" width="40" height="40" rx="8" fill="white"/>
</g>
<path d="M323.168 84.8315C321.617 83.2796 320.476 81.6327 320.466 80.8409L322.092 79.2257C322.641 78.6768 322.641 77.7689 322.092 77.2199L319.294 74.4117C318.745 73.8628 317.837 73.8628 317.288 74.4117L315.947 75.7525C315.8 75.9003 315.662 76.0692 315.567 76.2592C314.037 79.363 315.673 84.3987 319.632 88.3681C323.591 92.3375 328.637 93.9633 331.741 92.4326C331.931 92.3375 332.1 92.2003 332.248 92.0525L333.588 90.7118C334.137 90.1628 334.137 89.2549 333.588 88.7059L330.791 85.9083C330.242 85.3594 329.334 85.3594 328.785 85.9083L327.159 87.5235C326.367 87.5235 324.72 86.3834 323.168 84.8315Z" stroke="#555555" stroke-width="1.5" stroke-miterlimit="10" stroke-linecap="round" stroke-linejoin="round"/>
<g filter="url(#filter12_d_843_3822)">
<rect x="17" y="64" width="40" height="40" rx="8" fill="white"/>
</g>
<g clip-path="url(#clip0_843_3822)">
<path d="M39.41 74.75H29.89C29.26 74.75 28.75 75.26 28.75 75.89V92.78C28.75 93.41 29.26 93.92 29.89 93.92H43.63C44.26 93.92 44.77 93.41 44.77 92.78V80.12H40.37C39.83 80.12 39.4 79.69 39.4 79.15V74.75H39.41Z" stroke="#555555" stroke-width="1.5" stroke-miterlimit="10" stroke-linejoin="round"/>
<path d="M40.3802 80.12H44.7802L39.4102 74.75V79.15C39.4102 79.68 39.8502 80.12 40.3802 80.12Z" stroke="#555555" stroke-width="1.5" stroke-miterlimit="10" stroke-linejoin="round"/>
<path d="M33.9004 84.9082C34.5204 84.9082 39.6304 84.9082 39.6304 84.9082" stroke="#555555" stroke-width="1.5" stroke-miterlimit="10" stroke-linecap="round" stroke-linejoin="round"/>
<path d="M36.7607 82.0391C36.7607 82.6591 36.7607 87.7691 36.7607 87.7691" stroke="#555555" stroke-width="1.5" stroke-miterlimit="10" stroke-linecap="round" stroke-linejoin="round"/>
</g>
<g filter="url(#filter13_d_843_3822)">
<rect x="353" y="64" width="40" height="40" rx="8" fill="white"/>
</g>
<g clip-path="url(#clip1_843_3822)">
<path d="M370.25 90.66L364.75 92.25V77.34L370.25 75.75V90.66Z" stroke="#606162" stroke-width="1.5" stroke-miterlimit="10" stroke-linecap="round" stroke-linejoin="round"/>
<path d="M375.75 92.25L370.25 90.66V75.75L375.75 77.34V92.25Z" stroke="#606162" stroke-width="1.5" stroke-miterlimit="10" stroke-linecap="round" stroke-linejoin="round"/>
<path d="M381.25 90.66L375.75 92.25V77.34L381.25 75.75V90.66Z" stroke="#606162" stroke-width="1.5" stroke-miterlimit="10" stroke-linecap="round" stroke-linejoin="round"/>
</g>
<g filter="url(#filter14_d_843_3822)">
<rect x="209" y="64" width="40" height="40" rx="8" fill="white"/>
</g>
<g clip-path="url(#clip2_843_3822)">
<path d="M237.99 84.8995H232.11L231.61 86.5995C231.48 86.9595 231.18 87.1995 230.85 87.1995H227.15C226.82 87.1995 226.52 86.9595 226.39 86.5995L225.89 84.8995H220.01C220.02 84.7795 220.03 84.6795 220.07 84.5695L222.33 76.8695C222.54 76.1695 223.18 75.6895 223.92 75.6895H234.1C234.83 75.6895 235.48 76.1695 235.69 76.8695L237.94 84.5695C237.97 84.6695 237.98 84.7795 237.99 84.8995Z" stroke="#555555" stroke-width="1.5" stroke-miterlimit="10" stroke-linejoin="round"/>
<path d="M238 85.0304V90.6604C238 91.5804 237.27 92.3104 236.35 92.3104H221.65C220.74 92.3104 220 91.5804 220 90.6604V85.0304C220 84.9904 220 84.9404 220.01 84.9004H225.9L226.4 86.6004C226.53 86.9604 226.83 87.2004 227.16 87.2004H230.87C231.2 87.2004 231.5 86.9604 231.63 86.6004L232.13 84.9004H238.01C238 84.9404 238 84.9904 238 85.0304Z" stroke="#555555" stroke-width="1.5" stroke-miterlimit="10" stroke-linejoin="round"/>
</g>
<g filter="url(#filter15_d_843_3822)">
<rect x="113" y="64" width="40" height="40" rx="8" fill="white"/>
</g>
<g clip-path="url(#clip3_843_3822)">
<path d="M130.95 88.5594V82.8594" stroke="#555555" stroke-width="1.5" stroke-miterlimit="10" stroke-linecap="round" stroke-linejoin="round"/>
<path d="M134.891 88.5594V82.8594" stroke="#555555" stroke-width="1.5" stroke-miterlimit="10" stroke-linecap="round" stroke-linejoin="round"/>
<path d="M139.88 79V90.01C139.88 91.58 138.61 92.85 137.05 92.85H128.8C127.23 92.85 125.96 91.58 125.96 90.01V79H139.88Z" stroke="#555555" stroke-width="1.5" stroke-miterlimit="10" stroke-linecap="round" stroke-linejoin="round"/>
<path d="M140.8 79H138.74" stroke="#555555" stroke-width="1.5" stroke-miterlimit="10" stroke-linecap="round" stroke-linejoin="round"/>
<path d="M127.09 79H124.75" stroke="#555555" stroke-width="1.5" stroke-miterlimit="10" stroke-linecap="round" stroke-linejoin="round"/>
<path d="M136.72 79H129.12V77.15C129.12 76.38 129.75 75.75 130.52 75.75H135.31C136.08 75.75 136.71 76.38 136.71 77.15V79H136.72Z" stroke="#555555" stroke-width="1.5" stroke-miterlimit="10" stroke-linecap="round" stroke-linejoin="round"/>
</g>
<g filter="url(#filter16_d_843_3822)">
<rect x="256" y="12" width="40" height="40" rx="8" fill="white"/>
</g>
<g clip-path="url(#clip4_843_3822)">
<path d="M266.856 32.7288C266.589 29.2935 268.279 25.836 271.48 24.035C275.894 21.5448 281.486 23.0901 283.976 27.5036" stroke="#555555" stroke-width="1.5" stroke-miterlimit="10" stroke-linejoin="round"/>
<path d="M284.91 23.0352L284.699 28.0602L279.674 27.8601" stroke="#555555" stroke-width="1.5" stroke-miterlimit="10" stroke-linejoin="round"/>
<path d="M285.133 31.127C285.4 34.5622 283.699 38.0086 280.509 39.8207C276.095 42.3109 270.503 40.7656 268.013 36.3521" stroke="#555555" stroke-width="1.5" stroke-miterlimit="10" stroke-linejoin="round"/>
<path d="M267.09 40.8102L267.29 35.7852L272.326 35.9853" stroke="#555555" stroke-width="1.5" stroke-miterlimit="10" stroke-linejoin="round"/>
</g>
<g filter="url(#filter17_d_843_3822)">
<rect x="65" y="64" width="40" height="40" rx="8" fill="white"/>
</g>
<g clip-path="url(#clip5_843_3822)">
<path d="M93.6757 78.3342L84.4857 87.5142C84.4157 87.5842 84.3257 87.6342 84.2357 87.6442L82.7357 87.9342L81.1657 88.2442C80.8957 88.2942 80.6857 88.0842 80.7457 87.8242L81.0557 86.2542L81.3557 84.7642C81.3757 84.6742 81.4157 84.5842 81.4857 84.5142L90.6657 75.3342C91.1757 74.8242 92.2657 75.0742 93.0957 75.9042C93.9257 76.7342 94.1857 77.8142 93.6757 78.3342Z" stroke="#555555" stroke-width="1.5" stroke-miterlimit="10"/>
<path d="M85.4254 76.3633H79.0654C77.4054 76.3633 76.0654 77.7033 76.0654 79.3633V89.9333C76.0654 91.5933 77.4054 92.9333 79.0654 92.9333H89.6354C91.2954 92.9333 92.6354 91.5933 92.6354 89.9333V83.5733" stroke="#555555" stroke-width="1.5" stroke-miterlimit="10" stroke-linecap="round"/>
</g>
<g filter="url(#filter18_d_843_3822)">
<rect x="208" y="12" width="40" height="40" rx="8" fill="white"/>
</g>
<g clip-path="url(#clip6_843_3822)">
<path d="M235.474 38.48L237.017 35.8057C237.245 35.4057 237.143 34.9028 236.777 34.6171L235.223 33.44C235.268 33.0971 235.314 32.7428 235.314 32.3771C235.314 32.0114 235.28 31.6686 235.223 31.3143L236.777 30.1371C237.143 29.8628 237.245 29.3486 237.017 28.9486L235.474 26.2743C235.245 25.8743 234.754 25.7143 234.331 25.8857L232.537 26.64C231.977 26.2057 231.36 25.84 230.697 25.5771L230.457 23.6457C230.4 23.1886 230.011 22.8457 229.554 22.8457H226.457C226 22.8457 225.611 23.1886 225.554 23.6457L225.314 25.5886C224.64 25.8628 224.023 26.2171 223.463 26.6628L221.668 25.8971C221.245 25.7143 220.754 25.8857 220.525 26.2857L218.983 28.96C218.754 29.36 218.857 29.8628 219.223 30.1486L220.777 31.3257C220.731 31.6686 220.685 32.0228 220.685 32.3886C220.685 32.7543 220.72 33.0971 220.777 33.4514L219.223 34.6286C218.857 34.9028 218.754 35.4171 218.983 35.8171L220.525 38.4914C220.754 38.8914 221.245 39.0514 221.668 38.88L223.463 38.1257C224.023 38.56 224.64 38.9257 225.303 39.1886L225.543 41.12C225.6 41.5771 225.988 41.92 226.445 41.92H229.531C229.988 41.92 230.377 41.5771 230.434 41.12L230.674 39.1886C231.337 38.9257 231.965 38.56 232.514 38.1257L234.308 38.88C234.754 39.04 235.245 38.88 235.474 38.48Z" stroke="#555555" stroke-width="1.5" stroke-miterlimit="10"/>
<path d="M228 36.035C230.02 36.035 231.657 34.3976 231.657 32.3778C231.657 30.3581 230.02 28.7207 228 28.7207C225.98 28.7207 224.343 30.3581 224.343 32.3778C224.343 34.3976 225.98 36.035 228 36.035Z" stroke="#555555" stroke-width="1.5" stroke-miterlimit="10"/>
</g>
<g filter="url(#filter19_d_843_3822)">
<rect x="210" y="116" width="39" height="40" rx="8" fill="url(#paint0_linear_843_3822)"/>
</g>
<g clip-path="url(#clip7_843_3822)">
<path d="M234.38 142.609H222.63" stroke="white" stroke-width="1.5" stroke-miterlimit="10" stroke-linecap="round" stroke-linejoin="round"/>
<path d="M223.35 146.669H233.66C234.32 146.669 234.86 146.129 234.86 145.469V142.119C234.86 140.569 234.22 139.089 233.09 138.019L231.16 136.199H225.84L223.91 138.019C222.78 139.079 222.14 140.569 222.14 142.119V145.469C222.15 146.129 222.69 146.669 223.35 146.669Z" stroke="white" stroke-width="1.5" stroke-miterlimit="10" stroke-linecap="round" stroke-linejoin="round"/>
<path d="M219.75 146.67H237.26" stroke="white" stroke-width="1.5" stroke-miterlimit="10" stroke-linecap="round" stroke-linejoin="round"/>
<path d="M222.63 129.811H234.38" stroke="white" stroke-width="1.5" stroke-miterlimit="10" stroke-linecap="round" stroke-linejoin="round"/>
<path d="M233.66 125.75H223.35C222.69 125.75 222.15 126.29 222.15 126.95V130.3C222.15 131.85 222.79 133.33 223.92 134.4L225.85 136.22H231.17L233.1 134.4C234.23 133.34 234.87 131.85 234.87 130.3V126.95C234.86 126.29 234.32 125.75 233.66 125.75Z" stroke="white" stroke-width="1.5" stroke-miterlimit="10" stroke-linecap="round" stroke-linejoin="round"/>
<path d="M237.26 125.75H219.75" stroke="white" stroke-width="1.5" stroke-miterlimit="10" stroke-linecap="round" stroke-linejoin="round"/>
</g>
<g filter="url(#filter20_d_843_3822)">
<rect x="352" y="116" width="40" height="40" rx="8" fill="url(#paint1_linear_843_3822)"/>
</g>
<g clip-path="url(#clip8_843_3822)">
<path d="M371.95 145.949C377.473 145.949 381.95 141.472 381.95 135.949C381.95 130.426 377.473 125.949 371.95 125.949C366.427 125.949 361.95 130.426 361.95 135.949C361.95 141.472 366.427 145.949 371.95 145.949Z" stroke="white" stroke-width="1.5" stroke-miterlimit="10" stroke-linecap="round" stroke-linejoin="round"/>
<path d="M364.88 143.019L379.02 128.879" stroke="white" stroke-width="1.5" stroke-miterlimit="10" stroke-linecap="round" stroke-linejoin="round"/>
</g>
<g clip-path="url(#clip9_843_3822)">
<path d="M371.95 145.949C377.473 145.949 381.95 141.472 381.95 135.949C381.95 130.426 377.473 125.949 371.95 125.949C366.427 125.949 361.95 130.426 361.95 135.949C361.95 141.472 366.427 145.949 371.95 145.949Z" stroke="white" stroke-width="1.5" stroke-miterlimit="10" stroke-linecap="round" stroke-linejoin="round"/>
<path d="M364.88 143.019L379.02 128.879" stroke="white" stroke-width="1.5" stroke-miterlimit="10" stroke-linecap="round" stroke-linejoin="round"/>
</g>
<g filter="url(#filter21_d_843_3822)">
<rect x="305" y="116" width="39" height="40" rx="8" fill="url(#paint2_linear_843_3822)"/>
</g>
<g clip-path="url(#clip10_843_3822)">
<path d="M318.12 144.699C315.43 144.699 313.25 142.519 313.25 139.829C313.25 137.139 315.43 134.959 318.12 134.959V144.699Z" stroke="white" stroke-width="1.5" stroke-miterlimit="10" stroke-linecap="round" stroke-linejoin="round"/>
<path d="M329.78 134.969C332.47 134.969 334.65 137.149 334.65 139.839C334.65 142.529 332.47 144.699 329.78 144.699V134.969Z" stroke="white" stroke-width="1.5" stroke-miterlimit="10" stroke-linecap="round" stroke-linejoin="round"/>
<path d="M316.43 134.969C316.43 130.819 319.8 127.449 323.95 127.449C328.1 127.449 331.47 130.819 331.47 134.969" stroke="white" stroke-width="1.5" stroke-miterlimit="10" stroke-linecap="round" stroke-linejoin="round"/>
</g>
<g filter="url(#filter22_d_843_3822)">
<rect x="257" y="116" width="40" height="40" rx="8" fill="url(#paint3_linear_843_3822)"/>
</g>
<g clip-path="url(#clip11_843_3822)">
<path d="M286.95 135.949C286.95 141.469 282.47 145.949 276.95 145.949C271.43 145.949 266.95 141.469 266.95 135.949C266.95 130.429 271.43 125.949 276.95 125.949" stroke="white" stroke-width="1.5" stroke-miterlimit="10" stroke-linecap="square" stroke-linejoin="round"/>
<path d="M272.62 133.689L277.02 138.229L285.45 129.789" stroke="white" stroke-width="1.5" stroke-miterlimit="10" stroke-linecap="round" stroke-linejoin="round"/>
</g>
<g filter="url(#filter23_d_843_3822)">
<rect x="161" y="64" width="40" height="40" rx="8" fill="white"/>
</g>
<g clip-path="url(#clip12_843_3822)">
<path d="M186.95 93.3008H174.95C174.4 93.3008 173.95 92.8508 173.95 92.3008V84.3008C173.95 83.7508 174.4 83.3008 174.95 83.3008H186.95C187.5 83.3008 187.95 83.7508 187.95 84.3008V92.3008C187.95 92.8608 187.5 93.3008 186.95 93.3008Z" stroke="#555555" stroke-width="1.5" stroke-miterlimit="10"/>
<path d="M184.95 83.3H176.95V79.75C176.95 77.54 178.74 75.75 180.95 75.75C183.16 75.75 184.95 77.54 184.95 79.75V83.3Z" stroke="#555555" stroke-width="1.5" stroke-miterlimit="10"/>
<path d="M180.95 89.0996C181.779 89.0996 182.45 88.428 182.45 87.5996C182.45 86.7712 181.779 86.0996 180.95 86.0996C180.122 86.0996 179.45 86.7712 179.45 87.5996C179.45 88.428 180.122 89.0996 180.95 89.0996Z" fill="#555555"/>
<path d="M180.95 87.6387V90.5087" stroke="#555555" stroke-width="1.5" stroke-miterlimit="10" stroke-linecap="round"/>
</g>
<defs>
<filter id="filter0_d_843_3822" x="2" y="104" width="72" height="72" filterUnits="userSpaceOnUse" color-interpolation-filters="sRGB">
<feFlood flood-opacity="0" result="BackgroundImageFix"/>
<feColorMatrix in="SourceAlpha" type="matrix" values="0 0 0 0 0 0 0 0 0 0 0 0 0 0 0 0 0 0 127 0" result="hardAlpha"/>
<feOffset dy="4"/>
<feGaussianBlur stdDeviation="8"/>
<feColorMatrix type="matrix" values="0 0 0 0 0.708333 0 0 0 0 0.708333 0 0 0 0 0.708333 0 0 0 0.35 0"/>
<feBlend mode="normal" in2="BackgroundImageFix" result="effect1_dropShadow_843_3822"/>
<feBlend mode="normal" in="SourceGraphic" in2="effect1_dropShadow_843_3822" result="shape"/>
</filter>
<filter id="filter1_d_843_3822" x="50" y="104" width="72" height="72" filterUnits="userSpaceOnUse" color-interpolation-filters="sRGB">
<feFlood flood-opacity="0" result="BackgroundImageFix"/>
<feColorMatrix in="SourceAlpha" type="matrix" values="0 0 0 0 0 0 0 0 0 0 0 0 0 0 0 0 0 0 127 0" result="hardAlpha"/>
<feOffset dy="4"/>
<feGaussianBlur stdDeviation="8"/>
<feColorMatrix type="matrix" values="0 0 0 0 0.708333 0 0 0 0 0.708333 0 0 0 0 0.708333 0 0 0 0.35 0"/>
<feBlend mode="normal" in2="BackgroundImageFix" result="effect1_dropShadow_843_3822"/>
<feBlend mode="normal" in="SourceGraphic" in2="effect1_dropShadow_843_3822" result="shape"/>
</filter>
<filter id="filter2_d_843_3822" x="98" y="104" width="72" height="72" filterUnits="userSpaceOnUse" color-interpolation-filters="sRGB">
<feFlood flood-opacity="0" result="BackgroundImageFix"/>
<feColorMatrix in="SourceAlpha" type="matrix" values="0 0 0 0 0 0 0 0 0 0 0 0 0 0 0 0 0 0 127 0" result="hardAlpha"/>
<feOffset dy="4"/>
<feGaussianBlur stdDeviation="8"/>
<feColorMatrix type="matrix" values="0 0 0 0 0.708333 0 0 0 0 0.708333 0 0 0 0 0.708333 0 0 0 0.35 0"/>
<feBlend mode="normal" in2="BackgroundImageFix" result="effect1_dropShadow_843_3822"/>
<feBlend mode="normal" in="SourceGraphic" in2="effect1_dropShadow_843_3822" result="shape"/>
</filter>
<filter id="filter3_d_843_3822" x="146" y="104" width="72" height="72" filterUnits="userSpaceOnUse" color-interpolation-filters="sRGB">
<feFlood flood-opacity="0" result="BackgroundImageFix"/>
<feColorMatrix in="SourceAlpha" type="matrix" values="0 0 0 0 0 0 0 0 0 0 0 0 0 0 0 0 0 0 127 0" result="hardAlpha"/>
<feOffset dy="4"/>
<feGaussianBlur stdDeviation="8"/>
<feColorMatrix type="matrix" values="0 0 0 0 0.708333 0 0 0 0 0.708333 0 0 0 0 0.708333 0 0 0 0.35 0"/>
<feBlend mode="normal" in2="BackgroundImageFix" result="effect1_dropShadow_843_3822"/>
<feBlend mode="normal" in="SourceGraphic" in2="effect1_dropShadow_843_3822" result="shape"/>
</filter>
<filter id="filter4_d_843_3822" x="0" y="0" width="72" height="72" filterUnits="userSpaceOnUse" color-interpolation-filters="sRGB">
<feFlood flood-opacity="0" result="BackgroundImageFix"/>
<feColorMatrix in="SourceAlpha" type="matrix" values="0 0 0 0 0 0 0 0 0 0 0 0 0 0 0 0 0 0 127 0" result="hardAlpha"/>
<feOffset dy="4"/>
<feGaussianBlur stdDeviation="8"/>
<feColorMatrix type="matrix" values="0 0 0 0 0.708333 0 0 0 0 0.708333 0 0 0 0 0.708333 0 0 0 0.35 0"/>
<feBlend mode="normal" in2="BackgroundImageFix" result="effect1_dropShadow_843_3822"/>
<feBlend mode="normal" in="SourceGraphic" in2="effect1_dropShadow_843_3822" result="shape"/>
</filter>
<filter id="filter5_d_843_3822" x="96" y="0" width="72" height="72" filterUnits="userSpaceOnUse" color-interpolation-filters="sRGB">
<feFlood flood-opacity="0" result="BackgroundImageFix"/>
<feColorMatrix in="SourceAlpha" type="matrix" values="0 0 0 0 0 0 0 0 0 0 0 0 0 0 0 0 0 0 127 0" result="hardAlpha"/>
<feOffset dy="4"/>
<feGaussianBlur stdDeviation="8"/>
<feColorMatrix type="matrix" values="0 0 0 0 0.708333 0 0 0 0 0.708333 0 0 0 0 0.708333 0 0 0 0.35 0"/>
<feBlend mode="normal" in2="BackgroundImageFix" result="effect1_dropShadow_843_3822"/>
<feBlend mode="normal" in="SourceGraphic" in2="effect1_dropShadow_843_3822" result="shape"/>
</filter>
<filter id="filter6_d_843_3822" x="48" y="0" width="72" height="72" filterUnits="userSpaceOnUse" color-interpolation-filters="sRGB">
<feFlood flood-opacity="0" result="BackgroundImageFix"/>
<feColorMatrix in="SourceAlpha" type="matrix" values="0 0 0 0 0 0 0 0 0 0 0 0 0 0 0 0 0 0 127 0" result="hardAlpha"/>
<feOffset dy="4"/>
<feGaussianBlur stdDeviation="8"/>
<feColorMatrix type="matrix" values="0 0 0 0 0.708333 0 0 0 0 0.708333 0 0 0 0 0.708333 0 0 0 0.35 0"/>
<feBlend mode="normal" in2="BackgroundImageFix" result="effect1_dropShadow_843_3822"/>
<feBlend mode="normal" in="SourceGraphic" in2="effect1_dropShadow_843_3822" result="shape"/>
</filter>
<filter id="filter7_d_843_3822" x="144" y="0" width="72" height="72" filterUnits="userSpaceOnUse" color-interpolation-filters="sRGB">
<feFlood flood-opacity="0" result="BackgroundImageFix"/>
<feColorMatrix in="SourceAlpha" type="matrix" values="0 0 0 0 0 0 0 0 0 0 0 0 0 0 0 0 0 0 127 0" result="hardAlpha"/>
<feOffset dy="4"/>
<feGaussianBlur stdDeviation="8"/>
<feColorMatrix type="matrix" values="0 0 0 0 0.708333 0 0 0 0 0.708333 0 0 0 0 0.708333 0 0 0 0.35 0"/>
<feBlend mode="normal" in2="BackgroundImageFix" result="effect1_dropShadow_843_3822"/>
<feBlend mode="normal" in="SourceGraphic" in2="effect1_dropShadow_843_3822" result="shape"/>
</filter>
<filter id="filter8_d_843_3822" x="288" y="0" width="72" height="72" filterUnits="userSpaceOnUse" color-interpolation-filters="sRGB">
<feFlood flood-opacity="0" result="BackgroundImageFix"/>
<feColorMatrix in="SourceAlpha" type="matrix" values="0 0 0 0 0 0 0 0 0 0 0 0 0 0 0 0 0 0 127 0" result="hardAlpha"/>
<feOffset dy="4"/>
<feGaussianBlur stdDeviation="8"/>
<feColorMatrix type="matrix" values="0 0 0 0 0.708333 0 0 0 0 0.708333 0 0 0 0 0.708333 0 0 0 0.35 0"/>
<feBlend mode="normal" in2="BackgroundImageFix" result="effect1_dropShadow_843_3822"/>
<feBlend mode="normal" in="SourceGraphic" in2="effect1_dropShadow_843_3822" result="shape"/>
</filter>
<filter id="filter9_d_843_3822" x="336" y="0" width="72" height="72" filterUnits="userSpaceOnUse" color-interpolation-filters="sRGB">
<feFlood flood-opacity="0" result="BackgroundImageFix"/>
<feColorMatrix in="SourceAlpha" type="matrix" values="0 0 0 0 0 0 0 0 0 0 0 0 0 0 0 0 0 0 127 0" result="hardAlpha"/>
<feOffset dy="4"/>
<feGaussianBlur stdDeviation="8"/>
<feColorMatrix type="matrix" values="0 0 0 0 0.708333 0 0 0 0 0.708333 0 0 0 0 0.708333 0 0 0 0.35 0"/>
<feBlend mode="normal" in2="BackgroundImageFix" result="effect1_dropShadow_843_3822"/>
<feBlend mode="normal" in="SourceGraphic" in2="effect1_dropShadow_843_3822" result="shape"/>
</filter>
<filter id="filter10_d_843_3822" x="241" y="52" width="72" height="72" filterUnits="userSpaceOnUse" color-interpolation-filters="sRGB">
<feFlood flood-opacity="0" result="BackgroundImageFix"/>
<feColorMatrix in="SourceAlpha" type="matrix" values="0 0 0 0 0 0 0 0 0 0 0 0 0 0 0 0 0 0 127 0" result="hardAlpha"/>
<feOffset dy="4"/>
<feGaussianBlur stdDeviation="8"/>
<feColorMatrix type="matrix" values="0 0 0 0 0.708333 0 0 0 0 0.708333 0 0 0 0 0.708333 0 0 0 0.35 0"/>
<feBlend mode="normal" in2="BackgroundImageFix" result="effect1_dropShadow_843_3822"/>
<feBlend mode="normal" in="SourceGraphic" in2="effect1_dropShadow_843_3822" result="shape"/>
</filter>
<filter id="filter11_d_843_3822" x="289" y="52" width="72" height="72" filterUnits="userSpaceOnUse" color-interpolation-filters="sRGB">
<feFlood flood-opacity="0" result="BackgroundImageFix"/>
<feColorMatrix in="SourceAlpha" type="matrix" values="0 0 0 0 0 0 0 0 0 0 0 0 0 0 0 0 0 0 127 0" result="hardAlpha"/>
<feOffset dy="4"/>
<feGaussianBlur stdDeviation="8"/>
<feColorMatrix type="matrix" values="0 0 0 0 0.708333 0 0 0 0 0.708333 0 0 0 0 0.708333 0 0 0 0.35 0"/>
<feBlend mode="normal" in2="BackgroundImageFix" result="effect1_dropShadow_843_3822"/>
<feBlend mode="normal" in="SourceGraphic" in2="effect1_dropShadow_843_3822" result="shape"/>
</filter>
<filter id="filter12_d_843_3822" x="1" y="52" width="72" height="72" filterUnits="userSpaceOnUse" color-interpolation-filters="sRGB">
<feFlood flood-opacity="0" result="BackgroundImageFix"/>
<feColorMatrix in="SourceAlpha" type="matrix" values="0 0 0 0 0 0 0 0 0 0 0 0 0 0 0 0 0 0 127 0" result="hardAlpha"/>
<feOffset dy="4"/>
<feGaussianBlur stdDeviation="8"/>
<feColorMatrix type="matrix" values="0 0 0 0 0.708333 0 0 0 0 0.708333 0 0 0 0 0.708333 0 0 0 0.35 0"/>
<feBlend mode="normal" in2="BackgroundImageFix" result="effect1_dropShadow_843_3822"/>
<feBlend mode="normal" in="SourceGraphic" in2="effect1_dropShadow_843_3822" result="shape"/>
</filter>
<filter id="filter13_d_843_3822" x="337" y="52" width="72" height="72" filterUnits="userSpaceOnUse" color-interpolation-filters="sRGB">
<feFlood flood-opacity="0" result="BackgroundImageFix"/>
<feColorMatrix in="SourceAlpha" type="matrix" values="0 0 0 0 0 0 0 0 0 0 0 0 0 0 0 0 0 0 127 0" result="hardAlpha"/>
<feOffset dy="4"/>
<feGaussianBlur stdDeviation="8"/>
<feColorMatrix type="matrix" values="0 0 0 0 0.708333 0 0 0 0 0.708333 0 0 0 0 0.708333 0 0 0 0.35 0"/>
<feBlend mode="normal" in2="BackgroundImageFix" result="effect1_dropShadow_843_3822"/>
<feBlend mode="normal" in="SourceGraphic" in2="effect1_dropShadow_843_3822" result="shape"/>
</filter>
<filter id="filter14_d_843_3822" x="193" y="52" width="72" height="72" filterUnits="userSpaceOnUse" color-interpolation-filters="sRGB">
<feFlood flood-opacity="0" result="BackgroundImageFix"/>
<feColorMatrix in="SourceAlpha" type="matrix" values="0 0 0 0 0 0 0 0 0 0 0 0 0 0 0 0 0 0 127 0" result="hardAlpha"/>
<feOffset dy="4"/>
<feGaussianBlur stdDeviation="8"/>
<feColorMatrix type="matrix" values="0 0 0 0 0.708333 0 0 0 0 0.708333 0 0 0 0 0.708333 0 0 0 0.35 0"/>
<feBlend mode="normal" in2="BackgroundImageFix" result="effect1_dropShadow_843_3822"/>
<feBlend mode="normal" in="SourceGraphic" in2="effect1_dropShadow_843_3822" result="shape"/>
</filter>
<filter id="filter15_d_843_3822" x="97" y="52" width="72" height="72" filterUnits="userSpaceOnUse" color-interpolation-filters="sRGB">
<feFlood flood-opacity="0" result="BackgroundImageFix"/>
<feColorMatrix in="SourceAlpha" type="matrix" values="0 0 0 0 0 0 0 0 0 0 0 0 0 0 0 0 0 0 127 0" result="hardAlpha"/>
<feOffset dy="4"/>
<feGaussianBlur stdDeviation="8"/>
<feColorMatrix type="matrix" values="0 0 0 0 0.708333 0 0 0 0 0.708333 0 0 0 0 0.708333 0 0 0 0.35 0"/>
<feBlend mode="normal" in2="BackgroundImageFix" result="effect1_dropShadow_843_3822"/>
<feBlend mode="normal" in="SourceGraphic" in2="effect1_dropShadow_843_3822" result="shape"/>
</filter>
<filter id="filter16_d_843_3822" x="240" y="0" width="72" height="72" filterUnits="userSpaceOnUse" color-interpolation-filters="sRGB">
<feFlood flood-opacity="0" result="BackgroundImageFix"/>
<feColorMatrix in="SourceAlpha" type="matrix" values="0 0 0 0 0 0 0 0 0 0 0 0 0 0 0 0 0 0 127 0" result="hardAlpha"/>
<feOffset dy="4"/>
<feGaussianBlur stdDeviation="8"/>
<feColorMatrix type="matrix" values="0 0 0 0 0.708333 0 0 0 0 0.708333 0 0 0 0 0.708333 0 0 0 0.35 0"/>
<feBlend mode="normal" in2="BackgroundImageFix" result="effect1_dropShadow_843_3822"/>
<feBlend mode="normal" in="SourceGraphic" in2="effect1_dropShadow_843_3822" result="shape"/>
</filter>
<filter id="filter17_d_843_3822" x="49" y="52" width="72" height="72" filterUnits="userSpaceOnUse" color-interpolation-filters="sRGB">
<feFlood flood-opacity="0" result="BackgroundImageFix"/>
<feColorMatrix in="SourceAlpha" type="matrix" values="0 0 0 0 0 0 0 0 0 0 0 0 0 0 0 0 0 0 127 0" result="hardAlpha"/>
<feOffset dy="4"/>
<feGaussianBlur stdDeviation="8"/>
<feColorMatrix type="matrix" values="0 0 0 0 0.708333 0 0 0 0 0.708333 0 0 0 0 0.708333 0 0 0 0.35 0"/>
<feBlend mode="normal" in2="BackgroundImageFix" result="effect1_dropShadow_843_3822"/>
<feBlend mode="normal" in="SourceGraphic" in2="effect1_dropShadow_843_3822" result="shape"/>
</filter>
<filter id="filter18_d_843_3822" x="192" y="0" width="72" height="72" filterUnits="userSpaceOnUse" color-interpolation-filters="sRGB">
<feFlood flood-opacity="0" result="BackgroundImageFix"/>
<feColorMatrix in="SourceAlpha" type="matrix" values="0 0 0 0 0 0 0 0 0 0 0 0 0 0 0 0 0 0 127 0" result="hardAlpha"/>
<feOffset dy="4"/>
<feGaussianBlur stdDeviation="8"/>
<feColorMatrix type="matrix" values="0 0 0 0 0.708333 0 0 0 0 0.708333 0 0 0 0 0.708333 0 0 0 0.35 0"/>
<feBlend mode="normal" in2="BackgroundImageFix" result="effect1_dropShadow_843_3822"/>
<feBlend mode="normal" in="SourceGraphic" in2="effect1_dropShadow_843_3822" result="shape"/>
</filter>
<filter id="filter19_d_843_3822" x="194" y="104" width="71" height="72" filterUnits="userSpaceOnUse" color-interpolation-filters="sRGB">
<feFlood flood-opacity="0" result="BackgroundImageFix"/>
<feColorMatrix in="SourceAlpha" type="matrix" values="0 0 0 0 0 0 0 0 0 0 0 0 0 0 0 0 0 0 127 0" result="hardAlpha"/>
<feOffset dy="4"/>
<feGaussianBlur stdDeviation="8"/>
<feColorMatrix type="matrix" values="0 0 0 0 0.708333 0 0 0 0 0.708333 0 0 0 0 0.708333 0 0 0 0.35 0"/>
<feBlend mode="normal" in2="BackgroundImageFix" result="effect1_dropShadow_843_3822"/>
<feBlend mode="normal" in="SourceGraphic" in2="effect1_dropShadow_843_3822" result="shape"/>
</filter>
<filter id="filter20_d_843_3822" x="336" y="104" width="72" height="72" filterUnits="userSpaceOnUse" color-interpolation-filters="sRGB">
<feFlood flood-opacity="0" result="BackgroundImageFix"/>
<feColorMatrix in="SourceAlpha" type="matrix" values="0 0 0 0 0 0 0 0 0 0 0 0 0 0 0 0 0 0 127 0" result="hardAlpha"/>
<feOffset dy="4"/>
<feGaussianBlur stdDeviation="8"/>
<feColorMatrix type="matrix" values="0 0 0 0 0.708333 0 0 0 0 0.708333 0 0 0 0 0.708333 0 0 0 0.35 0"/>
<feBlend mode="normal" in2="BackgroundImageFix" result="effect1_dropShadow_843_3822"/>
<feBlend mode="normal" in="SourceGraphic" in2="effect1_dropShadow_843_3822" result="shape"/>
</filter>
<filter id="filter21_d_843_3822" x="289" y="104" width="71" height="72" filterUnits="userSpaceOnUse" color-interpolation-filters="sRGB">
<feFlood flood-opacity="0" result="BackgroundImageFix"/>
<feColorMatrix in="SourceAlpha" type="matrix" values="0 0 0 0 0 0 0 0 0 0 0 0 0 0 0 0 0 0 127 0" result="hardAlpha"/>
<feOffset dy="4"/>
<feGaussianBlur stdDeviation="8"/>
<feColorMatrix type="matrix" values="0 0 0 0 0.708333 0 0 0 0 0.708333 0 0 0 0 0.708333 0 0 0 0.35 0"/>
<feBlend mode="normal" in2="BackgroundImageFix" result="effect1_dropShadow_843_3822"/>
<feBlend mode="normal" in="SourceGraphic" in2="effect1_dropShadow_843_3822" result="shape"/>
</filter>
<filter id="filter22_d_843_3822" x="241" y="104" width="72" height="72" filterUnits="userSpaceOnUse" color-interpolation-filters="sRGB">
<feFlood flood-opacity="0" result="BackgroundImageFix"/>
<feColorMatrix in="SourceAlpha" type="matrix" values="0 0 0 0 0 0 0 0 0 0 0 0 0 0 0 0 0 0 127 0" result="hardAlpha"/>
<feOffset dy="4"/>
<feGaussianBlur stdDeviation="8"/>
<feColorMatrix type="matrix" values="0 0 0 0 0.708333 0 0 0 0 0.708333 0 0 0 0 0.708333 0 0 0 0.35 0"/>
<feBlend mode="normal" in2="BackgroundImageFix" result="effect1_dropShadow_843_3822"/>
<feBlend mode="normal" in="SourceGraphic" in2="effect1_dropShadow_843_3822" result="shape"/>
</filter>
<filter id="filter23_d_843_3822" x="145" y="52" width="72" height="72" filterUnits="userSpaceOnUse" color-interpolation-filters="sRGB">
<feFlood flood-opacity="0" result="BackgroundImageFix"/>
<feColorMatrix in="SourceAlpha" type="matrix" values="0 0 0 0 0 0 0 0 0 0 0 0 0 0 0 0 0 0 127 0" result="hardAlpha"/>
<feOffset dy="4"/>
<feGaussianBlur stdDeviation="8"/>
<feColorMatrix type="matrix" values="0 0 0 0 0.708333 0 0 0 0 0.708333 0 0 0 0 0.708333 0 0 0 0.35 0"/>
<feBlend mode="normal" in2="BackgroundImageFix" result="effect1_dropShadow_843_3822"/>
<feBlend mode="normal" in="SourceGraphic" in2="effect1_dropShadow_843_3822" result="shape"/>
</filter>
<linearGradient id="paint0_linear_843_3822" x1="210.975" y1="115" x2="254.568" y2="141.228" gradientUnits="userSpaceOnUse">
<stop stop-color="#73DDFF"/>
<stop offset="1" stop-color="#2BEEA8"/>
</linearGradient>
<linearGradient id="paint1_linear_843_3822" x1="353" y1="115" x2="397.102" y2="142.215" gradientUnits="userSpaceOnUse">
<stop stop-color="#FFBA7B"/>
<stop offset="1" stop-color="#FE617D"/>
</linearGradient>
<linearGradient id="paint2_linear_843_3822" x1="303.131" y1="114.788" x2="353.669" y2="158.232" gradientUnits="userSpaceOnUse">
<stop stop-color="#CD7DFE"/>
<stop offset="1" stop-color="#816DFF"/>
</linearGradient>
<linearGradient id="paint3_linear_843_3822" x1="258" y1="115" x2="302.102" y2="142.215" gradientUnits="userSpaceOnUse">
<stop stop-color="#61E2FE"/>
<stop offset="1" stop-color="#7567FF"/>
</linearGradient>
<clipPath id="clip0_843_3822">
<rect width="17.53" height="20.68" fill="white" transform="translate(28 74)"/>
</clipPath>
<clipPath id="clip1_843_3822">
<rect width="18" height="18" fill="white" transform="translate(364 75)"/>
</clipPath>
<clipPath id="clip2_843_3822">
<rect width="19.5" height="18.12" fill="white" transform="translate(219.25 74.9395)"/>
</clipPath>
<clipPath id="clip3_843_3822">
<rect width="17.55" height="18.6" fill="white" transform="translate(124 75)"/>
</clipPath>
<clipPath id="clip4_843_3822">
<rect width="20" height="19.8444" fill="white" transform="translate(266 22)"/>
</clipPath>
<clipPath id="clip5_843_3822">
<rect width="19.37" height="19.37" fill="white" transform="translate(75.3154 74.3145)"/>
</clipPath>
<clipPath id="clip6_843_3822">
<rect width="20" height="20.7657" fill="white" transform="translate(218 22)"/>
</clipPath>
<clipPath id="clip7_843_3822">
<rect width="19.01" height="22.42" fill="white" transform="translate(219 125)"/>
</clipPath>
<clipPath id="clip8_843_3822">
<rect width="21.5" height="21.5" fill="white" transform="translate(361.2 125.199)"/>
</clipPath>
<clipPath id="clip9_843_3822">
<rect width="21.5" height="21.5" fill="white" transform="translate(361.2 125.199)"/>
</clipPath>
<clipPath id="clip10_843_3822">
<rect width="22.9" height="18.75" fill="white" transform="translate(312.5 126.699)"/>
</clipPath>
<clipPath id="clip11_843_3822">
<rect width="21.5" height="21.5" fill="white" transform="translate(266.2 125.199)"/>
</clipPath>
<clipPath id="clip12_843_3822">
<rect width="15.5" height="19.05" fill="white" transform="translate(173.2 75)"/>
</clipPath>
</defs>
</svg>
