<svg viewBox="0 0 100 100" fill="none" xmlns="http://www.w3.org/2000/svg">
<rect width="100" height="100" rx="16" fill="white"/>
<g clip-path="url(#clip0_909_1315)">
<path d="M10.1211 50.6319H10.1843C10.1843 50.4325 10.1211 50.2531 10.1211 50.0537V50.6319Z" fill="url(#paint0_linear_909_1315)"/>
<path d="M86.9738 68.4357C87.101 68.1766 87.2282 67.8974 87.3766 67.6582H87.3342V25.9496C87.3342 19.3504 81.6312 13.9873 74.6137 13.9873H25.8731C18.8556 13.9873 13.1738 19.3504 13.1738 25.9496V70.7684C15.3363 69.313 17.9864 68.4357 20.8485 68.4357H86.995H86.9738Z" fill="url(#paint1_linear_909_1315)"/>
<path d="M84.9594 77.1878C84.9594 75.4932 85.1715 73.9181 85.5107 72.4229H20.827C17.5621 72.4229 14.7212 74.0976 13.1523 76.5698V77.1878C13.1523 77.3872 13.1947 77.5666 13.2159 77.766C13.534 82.7304 17.9225 86.6979 23.2651 86.6979H82.6698C84.7686 86.6979 86.2739 84.8238 85.7227 82.9297C85.2351 81.1952 84.9594 79.2613 84.9594 77.1878Z" fill="url(#paint2_linear_909_1315)"/>
<path opacity="0.8" d="M70.4793 35.1405L64.8399 25.9494C64.4582 25.3314 63.6526 25.132 62.9318 25.2915L62.8894 25.1719L39.3141 31.2727V31.3524C38.9537 31.4521 38.5721 31.6315 38.3601 31.9904L32.7207 41.1814C32.4238 41.6799 32.4238 42.2979 32.7207 42.7963C33.0175 43.2948 33.5899 43.5938 34.2047 43.5938H45.5047C46.1196 43.5938 46.692 43.2948 46.9888 42.7963C47.2856 42.2979 47.2856 41.6799 46.9888 41.1814L42.4518 33.8047L49.8509 31.8907V51.8279H46.7344C46.0984 51.8279 45.5895 52.3064 45.5895 52.9045C45.5895 53.5026 46.0772 53.9412 46.6708 53.9612H43.6603C42.7062 53.9612 41.943 54.6789 41.943 55.5761C41.943 56.4732 42.7062 57.191 43.6603 57.191H59.4549C60.4089 57.191 61.1721 56.4732 61.1721 55.5761C61.1721 54.6789 60.4089 53.9612 59.4549 53.9612H56.5291C57.1228 53.9213 57.6104 53.4627 57.6104 52.9045C57.6104 52.3462 57.1016 51.8279 56.4655 51.8279H53.2642V31.0135L59.7729 29.3188L56.2111 35.1405C55.9143 35.6389 55.9143 36.2569 56.2111 36.7554C56.5079 37.2538 57.0804 37.5529 57.6952 37.5529H68.9952C69.61 37.5529 70.1825 37.2538 70.4793 36.7554C70.7761 36.2569 70.7761 35.6389 70.4793 35.1405Z" fill="white"/>
</g>
<defs>
<linearGradient id="paint0_linear_909_1315" x1="0.433312" y1="47.4021" x2="42.4366" y2="61.6418" gradientUnits="userSpaceOnUse">
<stop stop-color="#F1AB91"/>
<stop offset="1" stop-color="#D76464"/>
</linearGradient>
<linearGradient id="paint1_linear_909_1315" x1="17.7956" y1="22.2413" x2="92.4801" y2="82.488" gradientUnits="userSpaceOnUse">
<stop stop-color="#ADFBDC"/>
<stop offset="1" stop-color="#64D7D3"/>
</linearGradient>
<linearGradient id="paint2_linear_909_1315" x1="1.19509" y1="42.8161" x2="75.8796" y2="103.063" gradientUnits="userSpaceOnUse">
<stop stop-color="#ADFBDC"/>
<stop offset="1" stop-color="#64D7D3"/>
</linearGradient>
<clipPath id="clip0_909_1315">
<rect width="77.2557" height="72.7109" fill="white" transform="translate(10.1211 13.9873)"/>
</clipPath>
</defs>
</svg>
