<svg viewBox="0 0 100 100" fill="none" xmlns="http://www.w3.org/2000/svg">
<rect width="100" height="100" rx="16" fill="white"/>
<g clip-path="url(#clip0_916_1875)">
<path d="M88.1594 68.4357C88.2866 68.1765 88.4138 67.8974 88.5622 67.6582H88.5198V25.9496C88.5198 19.3504 82.8167 13.9873 75.7993 13.9873H27.0799C20.0624 13.9873 14.3594 19.3504 14.3594 25.9496V70.7684C16.5219 69.313 19.172 68.4357 22.0341 68.4357H88.1806H88.1594Z" fill="url(#paint0_linear_916_1875)"/>
<path d="M86.1453 77.1878C86.1453 75.4932 86.3573 73.9181 86.6965 72.4229H22.0341C18.7691 72.4229 15.9282 74.0976 14.3594 76.5698V77.1878C14.3594 77.3872 14.4018 77.5666 14.423 77.766C14.741 82.7304 19.1296 86.6979 24.4722 86.6979H83.8768C85.9757 86.6979 87.4809 84.8238 86.9297 82.9297C86.4421 81.1952 86.1665 79.2613 86.1665 77.1878H86.1453Z" fill="url(#paint1_linear_916_1875)"/>
<g opacity="0.8">
<path d="M49.4465 25.5109L47.6444 27.2055C46.754 28.0429 46.754 29.3986 47.6444 30.216L57.2059 39.2077C58.0964 40.0451 59.538 40.0451 60.4073 39.2077L62.2093 37.513C64.0538 35.7785 64.0538 32.9275 62.2093 31.193L56.1671 25.5109C54.3226 23.7763 51.2909 23.7763 49.4465 25.5109V25.5109Z" fill="white"/>
<path d="M35.9842 38.171L34.1822 39.8656C32.3377 41.6002 32.3377 44.4512 34.1822 46.1857L40.2244 51.8678C42.0689 53.6024 45.1006 53.6024 46.9451 51.8678L48.7471 50.1732C49.6376 49.3358 49.6376 47.9801 48.7471 47.1627L47.9627 46.425L40.8392 39.7261L39.1856 38.171C38.2951 37.3336 36.8535 37.3336 35.9842 38.171V38.171Z" fill="white"/>
<path d="M49.0866 45.3885L51.2491 43.355L56.9309 48.6981C56.1677 49.695 56.2313 51.0906 57.1853 51.9678L64.4996 58.8461C65.1992 59.5041 66.3441 59.5041 67.0437 58.8461L69.6302 56.4138C70.3298 55.7559 70.3298 54.6793 69.6302 54.0213L62.3159 47.143C61.3619 46.2458 59.8778 46.186 58.839 46.9038L53.1572 41.5606L55.3197 39.527L48.1962 32.8281L41.9844 38.6697L49.1078 45.3686L49.0866 45.3885Z" fill="white"/>
</g>
</g>
<defs>
<linearGradient id="paint0_linear_916_1875" x1="19.8504" y1="28.9203" x2="68.4143" y2="56.4611" gradientUnits="userSpaceOnUse">
<stop stop-color="#9D77F6"/>
<stop offset="1" stop-color="#7368F5"/>
</linearGradient>
<linearGradient id="paint1_linear_916_1875" x1="27.2495" y1="65.9632" x2="64.8508" y2="87.3029" gradientUnits="userSpaceOnUse">
<stop stop-color="#9D77F6"/>
<stop offset="1" stop-color="#7368F5"/>
</linearGradient>
<clipPath id="clip0_916_1875">
<rect width="74.2028" height="72.7109" fill="white" transform="translate(14.3594 13.9873)"/>
</clipPath>
</defs>
</svg>
