<svg width="100" height="100" viewBox="0 0 100 100" fill="none" xmlns="http://www.w3.org/2000/svg">
<rect width="100" height="100" rx="16" fill="white"/>
<g clip-path="url(#clip0_909_1388)">
<path d="M86.1453 77.1878C86.1453 75.4932 86.3573 73.9181 86.6965 72.4229H22.0341C18.7691 72.4229 15.9282 74.0976 14.3594 76.5698V77.1878C14.3594 77.3872 14.4018 77.5666 14.423 77.766C14.741 82.7304 19.1296 86.6979 24.4722 86.6979H83.8768C85.9757 86.6979 87.4809 84.8238 86.9297 82.9297C86.4421 81.1952 86.1665 79.2613 86.1665 77.1878H86.1453Z" fill="url(#paint0_linear_909_1388)"/>
<path d="M88.1594 68.4357C88.2866 68.1766 88.4138 67.8974 88.5622 67.6582H88.5198V25.9496C88.5198 19.3504 82.8167 13.9873 75.7993 13.9873H27.0799C20.0624 13.9873 14.3594 19.3504 14.3594 25.9496V70.7684C16.5219 69.313 19.172 68.4357 22.0341 68.4357H88.1805H88.1594Z" fill="url(#paint1_linear_909_1388)"/>
<path opacity="0.8" d="M54.0903 39.9456H48.8537C46.6912 39.9456 44.9316 38.2908 44.9316 36.2572C44.9316 34.2236 46.6912 32.5688 48.8537 32.5688H60.1537V28.5814H53.6027V24.5142C53.6027 23.4177 52.6487 22.5205 51.4826 22.5205C50.3166 22.5205 49.3625 23.4177 49.3625 24.5142V28.5814H48.8537C44.3591 28.5814 40.6914 32.0305 40.6914 36.2572C40.6914 40.4839 44.3591 43.933 48.8537 43.933H54.0903C56.2528 43.933 58.0125 45.5878 58.0125 47.6413C58.0125 49.6949 56.2528 51.3297 54.0903 51.3297H42.7903V55.3172H49.3413V58.9856C49.3413 60.0821 50.2954 60.9793 51.4614 60.9793C52.6275 60.9793 53.5815 60.0821 53.5815 58.9856V55.3172H54.0903C58.5849 55.3172 62.2526 51.868 62.2526 47.6214C62.2526 43.3748 58.5849 39.9456 54.0903 39.9456Z" fill="white"/>
</g>
<defs>
<linearGradient id="paint0_linear_909_1388" x1="7.25711" y1="45.8665" x2="72.0194" y2="98.7798" gradientUnits="userSpaceOnUse">
<stop stop-color="#9ADFFB"/>
<stop offset="1" stop-color="#51A9F7"/>
</linearGradient>
<linearGradient id="paint1_linear_909_1388" x1="23.8785" y1="25.511" x2="88.6423" y2="78.4041" gradientUnits="userSpaceOnUse">
<stop stop-color="#9ADFFB"/>
<stop offset="1" stop-color="#51A9F7"/>
</linearGradient>
<clipPath id="clip0_909_1388">
<rect width="74.2028" height="72.7109" fill="white" transform="translate(14.3594 13.9873)"/>
</clipPath>
</defs>
</svg>
