<svg width="100" height="100" viewBox="0 0 100 100" fill="none" xmlns="http://www.w3.org/2000/svg">
<rect width="100" height="100" rx="16" fill="white"/>
<g clip-path="url(#clip0_909_1407)">
<path d="M75.8417 13.9873H27.0799C20.0836 13.9873 14.3594 19.3703 14.3594 25.9496V73.7988C14.3594 80.3781 20.0836 85.7611 27.0799 85.7611H75.8417C82.838 85.7611 88.5622 80.3781 88.5622 73.7988V25.9496C88.5622 19.3703 82.838 13.9873 75.8417 13.9873Z" fill="url(#paint0_linear_909_1407)"/>
<path opacity="0.8" d="M29.3263 22.1816H73.5936C76.7313 22.1816 79.2754 24.5741 79.2754 27.5248V39.6067H23.6445V27.5248C23.6445 24.5741 26.1886 22.1816 29.3263 22.1816Z" fill="white"/>
<path opacity="0.8" d="M35.6882 60.481C37.5967 60.481 39.1439 59.026 39.1439 57.2312C39.1439 55.4364 37.5967 53.9814 35.6882 53.9814C33.7796 53.9814 32.2324 55.4364 32.2324 57.2312C32.2324 59.026 33.7796 60.481 35.6882 60.481Z" fill="white"/>
<path opacity="0.8" d="M51.4616 60.481C53.3701 60.481 54.9173 59.026 54.9173 57.2312C54.9173 55.4364 53.3701 53.9814 51.4616 53.9814C49.553 53.9814 48.0059 55.4364 48.0059 57.2312C48.0059 59.026 49.553 60.481 51.4616 60.481Z" fill="white"/>
<path opacity="0.8" d="M67.235 60.481C69.1436 60.481 70.6908 59.026 70.6908 57.2312C70.6908 55.4364 69.1436 53.9814 67.235 53.9814C65.3265 53.9814 63.7793 55.4364 63.7793 57.2312C63.7793 59.026 65.3265 60.481 67.235 60.481Z" fill="white"/>
<path opacity="0.8" d="M35.6882 71.1274C37.5967 71.1274 39.1439 69.6725 39.1439 67.8777C39.1439 66.0829 37.5967 64.6279 35.6882 64.6279C33.7796 64.6279 32.2324 66.0829 32.2324 67.8777C32.2324 69.6725 33.7796 71.1274 35.6882 71.1274Z" fill="white"/>
<path opacity="0.8" d="M51.4616 71.1274C53.3701 71.1274 54.9173 69.6725 54.9173 67.8777C54.9173 66.0829 53.3701 64.6279 51.4616 64.6279C49.553 64.6279 48.0059 66.0829 48.0059 67.8777C48.0059 69.6725 49.553 71.1274 51.4616 71.1274Z" fill="white"/>
<path opacity="0.8" d="M67.235 71.1274C69.1436 71.1274 70.6908 69.6725 70.6908 67.8777C70.6908 66.0829 69.1436 64.6279 67.235 64.6279C65.3265 64.6279 63.7793 66.0829 63.7793 67.8777C63.7793 69.6725 65.3265 71.1274 67.235 71.1274Z" fill="white"/>
</g>
<defs>
<linearGradient id="paint0_linear_909_1407" x1="17.9635" y1="33.0672" x2="69.0197" y2="62.0318" gradientUnits="userSpaceOnUse">
<stop stop-color="#F7D76C"/>
<stop offset="1" stop-color="#F2B05F"/>
</linearGradient>
<clipPath id="clip0_909_1407">
<rect width="74.2028" height="71.7738" fill="white" transform="translate(14.3594 13.9873)"/>
</clipPath>
</defs>
</svg>
