<svg width="100" height="100" viewBox="0 0 100 100" fill="none" xmlns="http://www.w3.org/2000/svg">
<rect width="100" height="100" rx="16" fill="white"/>
<g clip-path="url(#clip0_909_1346)">
<path d="M75.1195 54.9712L74.7121 54.5819C74.5824 54.4403 74.5639 54.4226 74.4158 54.2987L39.2685 20.6592H10.1211V52.4584L16.0469 52.4938L42.4536 77.9048C44.1388 79.9752 47.2498 80.3999 49.4534 78.8427C51.3608 77.4978 51.9904 75.1266 51.1201 73.1093C52.9163 74.5603 55.5829 74.7196 57.5643 73.3393C59.5643 71.9237 60.2124 69.4109 59.231 67.3228C61.0272 68.8269 63.7309 69.0039 65.7308 67.6059C67.7308 66.1903 68.3789 63.6775 67.3974 61.5894C69.1937 63.1112 71.8973 63.2882 73.8973 61.8725C76.175 60.2799 76.7305 57.2008 75.1009 54.9889L75.1195 54.9712ZM41.6573 39.8944H41.3796C33.4168 39.6467 30.3613 33.2585 30.2317 29.0116V28.3745L30.1391 25.8086L32.6761 24.9415L33.3057 24.7292L33.3983 24.6938C35.7686 23.8798 38.3241 23.0127 40.824 22.1456L43.7128 24.9062C38.9722 26.5519 34.639 28.0206 34.5464 28.056L33.9168 28.2683V28.9054C34.0094 31.4005 35.676 36.1606 41.4907 36.3376C41.5462 36.3376 41.5833 36.3376 41.6388 36.3376C43.8795 36.3376 50.046 35.4705 54.1015 34.8511L57.3236 37.9302C54.6015 38.3726 44.8795 39.8767 41.6388 39.8767L41.6573 39.8944Z" fill="url(#paint0_linear_909_1346)"/>
<path d="M78.1742 28.5516L62.5265 20.1638L62.1932 20.0576C62.0265 20.0399 58.3229 19.6152 55.2859 20.8185C51.7305 22.2342 34.7494 28.003 34.5827 28.0738L33.9531 28.2861V28.9232C34.0457 31.4183 35.7123 36.1784 41.527 36.3554C44.3232 36.4085 56.0822 34.5858 58.6377 34.1611L78.0446 52.6885V52.7593L78.1557 52.9186C79.6927 54.989 80.0446 57.5371 79.4335 59.8553H92.8035V25.2425C90.8591 25.5787 83.1371 27.3836 78.1742 28.5516Z" fill="url(#paint1_linear_909_1346)"/>
</g>
<defs>
<linearGradient id="paint0_linear_909_1346" x1="10.1211" y1="50.211" x2="76.0454" y2="50.211" gradientUnits="userSpaceOnUse">
<stop stop-color="#F7D76C"/>
<stop offset="1" stop-color="#F2B05F"/>
</linearGradient>
<linearGradient id="paint1_linear_909_1346" x1="33.9346" y1="39.9122" x2="92.8035" y2="39.9122" gradientUnits="userSpaceOnUse">
<stop stop-color="#F7D76C"/>
<stop offset="1" stop-color="#F2B05F"/>
</linearGradient>
<clipPath id="clip0_909_1346">
<rect width="82.6831" height="59.8115" fill="white" transform="translate(10.1211 19.9688)"/>
</clipPath>
</defs>
</svg>
