<svg width="100" height="100" viewBox="0 0 100 100" fill="none" xmlns="http://www.w3.org/2000/svg">
<rect width="100" height="100" rx="16" fill="white"/>
<g clip-path="url(#clip0_909_1397)">
<path d="M68.1738 61.3187L62.582 66.5771L65.8801 69.6786L71.4718 64.4202L68.1738 61.3187Z" fill="url(#paint0_linear_909_1397)"/>
<path d="M41.4771 70.9683C58.7945 70.9683 72.8331 57.7665 72.8331 41.4812C72.8331 25.196 58.7945 11.9941 41.4771 11.9941C24.1596 11.9941 10.1211 25.196 10.1211 41.4812C10.1211 57.7665 24.1596 70.9683 41.4771 70.9683Z" fill="url(#paint1_linear_909_1397)"/>
<path opacity="0.8" d="M41.4763 61.1393C53.0212 61.1393 62.3802 52.3381 62.3802 41.4813C62.3802 30.6245 53.0212 21.8232 41.4763 21.8232C29.9313 21.8232 20.5723 30.6245 20.5723 41.4813C20.5723 52.3381 29.9313 61.1393 41.4763 61.1393Z" fill="white"/>
<path d="M89.6248 77.9069L78.4943 67.4399C76.6287 65.6854 73.5545 65.6854 71.6889 67.4399L69.1024 69.8722C67.2367 71.6267 67.2367 74.5176 69.1024 76.272L80.2328 86.7391C80.572 87.0581 81.1232 87.0581 81.4624 86.7391L89.6248 79.0632C89.964 78.7443 89.964 78.2259 89.6248 77.9069Z" fill="url(#paint2_linear_909_1397)"/>
<path d="M43.6182 40.0253H39.3568C37.5972 40.0253 36.1555 38.6696 36.1555 37.0148C36.1555 35.36 37.5972 34.0043 39.3568 34.0043H48.5368V30.7546H43.2154V27.445C43.2154 26.5478 42.4522 25.8301 41.4981 25.8301C40.5441 25.8301 39.7809 26.5478 39.7809 27.445V30.7546H39.378C35.7103 30.7546 32.7422 33.5657 32.7422 36.9949C32.7422 40.4241 35.7315 43.2352 39.378 43.2352H43.6394C45.3991 43.2352 46.8407 44.591 46.8407 46.2457C46.8407 47.9005 45.3991 49.2563 43.6394 49.2563H34.4595V52.506H39.7809V55.4966C39.7809 56.3938 40.5441 57.1115 41.4981 57.1115C42.4522 57.1115 43.2154 56.3938 43.2154 55.4966V52.506H43.6182C47.2859 52.506 50.254 49.6949 50.254 46.2457C50.254 42.7966 47.2647 40.0054 43.6182 40.0054V40.0253Z" fill="url(#paint3_linear_909_1397)"/>
</g>
<defs>
<linearGradient id="paint0_linear_909_1397" x1="64.1536" y1="64.3259" x2="90.2446" y2="76.598" gradientUnits="userSpaceOnUse">
<stop stop-color="#ADFBDC"/>
<stop offset="1" stop-color="#64D7D3"/>
</linearGradient>
<linearGradient id="paint1_linear_909_1397" x1="14.6793" y1="28.8809" x2="75.1515" y2="61.0444" gradientUnits="userSpaceOnUse">
<stop stop-color="#ADFBDC"/>
<stop offset="1" stop-color="#64D7D3"/>
</linearGradient>
<linearGradient id="paint2_linear_909_1397" x1="61.6821" y1="69.613" x2="87.7715" y2="81.9065" gradientUnits="userSpaceOnUse">
<stop stop-color="#ADFBDC"/>
<stop offset="1" stop-color="#64D7D3"/>
</linearGradient>
<linearGradient id="paint3_linear_909_1397" x1="58.7556" y1="53.4032" x2="43.7751" y2="41.6982" gradientUnits="userSpaceOnUse">
<stop stop-color="#ADFBDC"/>
<stop offset="1" stop-color="#64D7D3"/>
</linearGradient>
<clipPath id="clip0_909_1397">
<rect width="79.7574" height="75.0036" fill="white" transform="translate(10.1211 11.9941)"/>
</clipPath>
</defs>
</svg>
