<svg width="100" height="100" viewBox="0 0 100 100" fill="none" xmlns="http://www.w3.org/2000/svg">
<rect width="100" height="100" rx="16" fill="white"/>
<g clip-path="url(#clip0_909_1325)">
<path d="M85.0622 13.9873C82.4069 13.9873 80.2213 16.0799 80.2213 18.6223V74.027C80.2213 79.7181 75.9319 84.4899 70.3149 85.546C68.8442 85.2135 67.5166 84.4899 66.4953 83.4925C65.0246 82.0844 64.1259 80.1679 64.1259 78.0557V73.3229H18.6992V25.7214C18.6992 19.2677 24.2141 13.9873 30.9546 13.9873H85.0622Z" fill="url(#paint0_linear_909_1325)"/>
<path d="M92.8048 20.8323V39.6851C92.8048 42.2275 90.6193 44.3201 87.9639 44.3201H83.123V20.8323C83.123 18.2899 85.3086 16.1973 87.9639 16.1973C90.6193 16.1973 92.8048 18.2899 92.8048 20.8323Z" fill="url(#paint1_linear_909_1325)"/>
<path d="M70.3155 85.5463C69.5598 85.6832 68.7632 85.7614 67.9666 85.7614H20.2318C19.7212 85.7614 19.1901 85.7223 18.6999 85.6245C13.859 84.94 10.1211 80.9113 10.1211 76.0808V73.3232H64.1266V78.056C64.1266 80.1682 65.0253 82.0847 66.4959 83.4928C67.5172 84.4902 68.8449 85.2138 70.3155 85.5463Z" fill="url(#paint2_linear_909_1325)"/>
<path opacity="0.7" d="M49.3587 41.3667C53.3408 41.3667 56.569 38.2759 56.569 34.4632C56.569 30.6504 53.3408 27.5596 49.3587 27.5596C45.3766 27.5596 42.1484 30.6504 42.1484 34.4632C42.1484 38.2759 45.3766 41.3667 49.3587 41.3667Z" fill="white"/>
<path opacity="0.7" d="M64.9435 54.6458H33.7535C32.6301 54.6458 31.7109 53.7657 31.7109 52.6901C31.7109 51.6144 32.6301 50.7344 33.7535 50.7344H64.9435C66.0669 50.7344 66.9861 51.6144 66.9861 52.6901C66.9861 53.7657 66.0669 54.6458 64.9435 54.6458Z" fill="white"/>
<path opacity="0.7" d="M64.9435 63.9553H33.7535C32.6301 63.9553 31.7109 63.0753 31.7109 61.9996C31.7109 60.924 32.6301 60.0439 33.7535 60.0439H64.9435C66.0669 60.0439 66.9861 60.924 66.9861 61.9996C66.9861 63.0753 66.0669 63.9553 64.9435 63.9553Z" fill="white"/>
</g>
<defs>
<linearGradient id="paint0_linear_909_1325" x1="26.5222" y1="25.6628" x2="60.5192" y2="51.9728" gradientUnits="userSpaceOnUse">
<stop stop-color="#9D77F6"/>
<stop offset="1" stop-color="#7368F5"/>
</linearGradient>
<linearGradient id="paint1_linear_909_1325" x1="83.123" y1="30.2587" x2="92.8048" y2="30.2587" gradientUnits="userSpaceOnUse">
<stop stop-color="#9D77F6"/>
<stop offset="1" stop-color="#7368F5"/>
</linearGradient>
<linearGradient id="paint2_linear_909_1325" x1="38.1655" y1="70.0572" x2="44.135" y2="105.602" gradientUnits="userSpaceOnUse">
<stop stop-color="#BCB3F9"/>
<stop offset="1" stop-color="#7368F5"/>
</linearGradient>
<clipPath id="clip0_909_1325">
<rect width="82.6831" height="71.7738" fill="white" transform="translate(10.1211 13.9873)"/>
</clipPath>
</defs>
</svg>
