<svg width="100" height="100" viewBox="0 0 100 100" fill="none" xmlns="http://www.w3.org/2000/svg">
<rect width="100" height="100" rx="16" fill="white"/>
<g clip-path="url(#clip0_909_1353)">
<path d="M89.2752 56.553H10.8379C9.72285 56.553 8.81055 55.7085 8.81055 54.6764C8.81055 53.6443 9.72285 52.7998 10.8379 52.7998H89.2752C90.3903 52.7998 91.3026 53.6443 91.3026 54.6764C91.3026 55.7085 90.3903 56.553 89.2752 56.553Z" fill="#8A79F5"/>
<path d="M10.0273 60.7751C8.9123 60.7751 8 59.9306 8 58.8985V50.4352C8 49.4031 8.9123 48.5586 10.0273 48.5586C11.1424 48.5586 12.0547 49.4031 12.0547 50.4352V58.8985C12.0547 59.9306 11.1424 60.7751 10.0273 60.7751Z" fill="#8A79F5"/>
<path d="M90.7754 60.7751C89.6603 60.7751 88.748 59.9306 88.748 58.8985V50.4352C88.748 49.4031 89.6603 48.5586 90.7754 48.5586C91.8904 48.5586 92.8027 49.4031 92.8027 50.4352V58.8985C92.8027 59.9306 91.8904 60.7751 90.7754 60.7751Z" fill="#8A79F5"/>
<path d="M74.3551 46.7383H25.6992C21.2205 46.7383 17.5898 50.099 17.5898 54.2446V74.2676C17.5898 78.4132 21.2205 81.7739 25.6992 81.7739H74.3551C78.8337 81.7739 82.4644 78.4132 82.4644 74.2676V54.2446C82.4644 50.099 78.8337 46.7383 74.3551 46.7383Z" fill="url(#paint0_linear_909_1353)"/>
<g opacity="0.7">
<path d="M32.9153 60.0618C34.3485 60.0618 35.5103 58.9864 35.5103 57.6598C35.5103 56.3332 34.3485 55.2578 32.9153 55.2578C31.4821 55.2578 30.3203 56.3332 30.3203 57.6598C30.3203 58.9864 31.4821 60.0618 32.9153 60.0618Z" fill="white"/>
<path d="M44.3294 60.0618C45.7625 60.0618 46.9243 58.9864 46.9243 57.6598C46.9243 56.3332 45.7625 55.2578 44.3294 55.2578C42.8962 55.2578 41.7344 56.3332 41.7344 57.6598C41.7344 58.9864 42.8962 60.0618 44.3294 60.0618Z" fill="white"/>
<path d="M55.7629 60.0618C57.1961 60.0618 58.3579 58.9864 58.3579 57.6598C58.3579 56.3332 57.1961 55.2578 55.7629 55.2578C54.3298 55.2578 53.168 56.3332 53.168 57.6598C53.168 58.9864 54.3298 60.0618 55.7629 60.0618Z" fill="white"/>
<path d="M67.177 60.0618C68.6102 60.0618 69.772 58.9864 69.772 57.6598C69.772 56.3332 68.6102 55.2578 67.177 55.2578C65.7438 55.2578 64.582 56.3332 64.582 57.6598C64.582 58.9864 65.7438 60.0618 67.177 60.0618Z" fill="white"/>
<path d="M32.9153 69.9134C34.3485 69.9134 35.5103 68.838 35.5103 67.5114C35.5103 66.1848 34.3485 65.1094 32.9153 65.1094C31.4821 65.1094 30.3203 66.1848 30.3203 67.5114C30.3203 68.838 31.4821 69.9134 32.9153 69.9134Z" fill="white"/>
<path d="M44.3294 69.9134C45.7625 69.9134 46.9243 68.838 46.9243 67.5114C46.9243 66.1848 45.7625 65.1094 44.3294 65.1094C42.8962 65.1094 41.7344 66.1848 41.7344 67.5114C41.7344 68.838 42.8962 69.9134 44.3294 69.9134Z" fill="white"/>
<path d="M55.7629 69.9134C57.1961 69.9134 58.3579 68.838 58.3579 67.5114C58.3579 66.1848 57.1961 65.1094 55.7629 65.1094C54.3298 65.1094 53.168 66.1848 53.168 67.5114C53.168 68.838 54.3298 69.9134 55.7629 69.9134Z" fill="white"/>
<path d="M67.177 69.9134C68.6102 69.9134 69.772 68.838 69.772 67.5114C69.772 66.1848 68.6102 65.1094 67.177 65.1094C65.7438 65.1094 64.582 66.1848 64.582 67.5114C64.582 68.838 65.7438 69.9134 67.177 69.9134Z" fill="white"/>
</g>
<path d="M31.1725 15.9814H68.8809C71.9219 15.9814 74.3952 18.2709 74.3952 21.0857V44.0362H25.6582V21.0857C25.6582 18.2709 28.1315 15.9814 31.1725 15.9814Z" fill="url(#paint1_linear_909_1353)"/>
<g opacity="0.7">
<path d="M61.9869 27.5412H38.0644C36.9494 27.5412 36.0371 26.6968 36.0371 25.6647C36.0371 24.6325 36.9494 23.7881 38.0644 23.7881H61.9869C63.102 23.7881 64.0143 24.6325 64.0143 25.6647C64.0143 26.6968 63.102 27.5412 61.9869 27.5412Z" fill="white"/>
<path d="M53.6141 36.2483H38.0644C36.9494 36.2483 36.0371 35.4038 36.0371 34.3717C36.0371 33.3396 36.9494 32.4951 38.0644 32.4951H53.6141C54.7291 32.4951 55.6414 33.3396 55.6414 34.3717C55.6414 35.4038 54.7291 36.2483 53.6141 36.2483Z" fill="white"/>
</g>
</g>
<defs>
<linearGradient id="paint0_linear_909_1353" x1="28.5982" y1="54.6011" x2="69.1849" y2="75.9305" gradientUnits="userSpaceOnUse">
<stop stop-color="#9D77F6"/>
<stop offset="1" stop-color="#7368F5"/>
</linearGradient>
<linearGradient id="paint1_linear_909_1353" x1="25.6582" y1="30.0182" x2="74.3952" y2="30.0182" gradientUnits="userSpaceOnUse">
<stop stop-color="#9D77F6"/>
<stop offset="1" stop-color="#7368F5"/>
</linearGradient>
<clipPath id="clip0_909_1353">
<rect width="84.8032" height="65.7927" fill="white" transform="translate(8 15.9814)"/>
</clipPath>
</defs>
</svg>
