<?xml version="1.0" encoding="UTF-8"?>
<svg id="Layer_1" data-name="Layer 1" xmlns="http://www.w3.org/2000/svg" viewBox="0 0 500 145.34">
  <defs>
    <style>
      .cls-1 {
        fill: none;
        stroke: #836cfc;
        stroke-miterlimit: 10;
      }
    </style>
  </defs>
  <path class="cls-1" d="M0,144.84H205.95s-4.1-4.48-3.54-9.7-1.86-26.29-.75-29.65,5.03-4.66-2.42-4.66-26.67-1.68-29.65-9.7-.56-12.68-.56-12.68c0,0,2.98-13.43,4.1-23.5s.75-16.22,7.09-20.33c0,0,6.15-5.59,6.53-9.88,0,0-9.7-5.41-4.1-19.21,2.8-5.41,6.9-5.03,9.88-5.03s11-.19,11.37,6.9c-2.24,3.54-3.92,2.98-7.65,3.92s-4.29,2.98-4.29,2.98c0,0-3.54-.75-3.17,2.05s3.54,5.03,3.54,5.03c0,0,.19,3.54,2.61,4.1s6.9,.75,6.9,.75c0,0,.75-2.98,1.12-6.15,0,0,3.36-.37,2.98-1.49s-2.42-3.36-2.24-5.59-5.03-.7-4.85,1.59,3.03,2.52,2.89,1.07-3.59-3.08-4.24,.89,1.54,7.6,0,11.14-3.08,3.87-3.08,3.87c0,0,2.56,1.49,5.83,6.43s1.03,11.28,1.86,14.82,1.03,7.18,5.03,8.58,7.55,1.03,7.93,2.89c0,0,1.68,.47,1.59,3.73s-.09,6.62-8.02,5.22c-4.38-.56-5.59-.56-5.59-.56,0,0,1.96-2.79,1.4-5.78,2.05-1.4,1.59-2.14,4.48-2.52s4.48,1.96,5.31,1.4-1.96-2.89-4.38-2.33-2.8,5.78-2.8,5.78c0,0,1.21-2.42-4.94-2.8s-17.99-.19-18.46-1.86c.84-3.92,2.7-5.59,3.26-9.32s-2.7-6.43-2.52-7.55-.84,19.11-.84,19.11c0,0-6.06,4.94-3.49,1.86s3.12-3.64,2.84-8.86-7.74-14.92-8.3-7.93-2.98,23.96,10.07,23.5c13.05-.47,11.47,3.36,11.47,3.36,.28,2.61-8.58,3.82-10.07,3.82,0,0,6.99-2.14,13.8-1.03,6.81,1.12,16.5,5.69,17.81,7.37s3.26,2.14,2.8,11.65-4.01,31.05-4.01,31.05c0,0-.65,2.14-4.48,1.49,0,0,.19-.47,.47-12.4,.28-11.93,3.17-20.51,1.03-24.89s-13.05-9.42-14.82-8.95c0,0,5.59,3.45,9.23,5.41s9.04,8.48,7.55,14.17-4.66,26.67-4.85,27.6,9.93,5.13,9.95,7.55c0,0,5.06,1.59,5.34-1.03s-8.29-7.33-9.14-7.74c0,0,7.96-.53,9.95,2.58,0,0,4.48-4.54,10.38-5.47,0,0-7.33-25.36-6.09-38.17,.62-4.1,9.82-8.58,26.6-11.19v64.27h242.4"/>
</svg>