<svg width="60" height="60" viewBox="0 0 60 60" fill="none" xmlns="http://www.w3.org/2000/svg">
<g clip-path="url(#clip0_1414_2707)">
<path d="M34.1359 58.3484C27.662 58.3484 21.5678 55.8381 17.0096 51.2633C10.1227 44.3765 8.02529 34.0709 11.6917 25.0041L12.1046 23.9966L4.11117 16.0197C2.5257 14.4343 1.65039 12.3203 1.65039 10.0742C1.65039 7.82817 2.5257 5.71421 4.11117 4.12874C5.69663 2.54328 7.81059 1.66797 10.0567 1.66797C12.3027 1.66797 14.4167 2.54328 16.0022 4.12874L23.9956 12.1221L25.003 11.7093C27.9097 10.5367 30.9815 9.94212 34.1194 9.94212C40.5934 9.94212 46.6876 12.4524 51.2458 17.0272C55.8205 21.6019 58.3308 27.6795 58.3308 34.1535C58.3308 40.6275 55.8205 46.7216 51.2458 51.2799C46.671 55.8381 40.5934 58.3649 34.1194 58.3649L34.1359 58.3484Z" fill="url(#paint0_linear_1414_2707)"/>
<path d="M10.0576 3.30297C11.8743 3.30297 13.5588 4.01313 14.847 5.2848L22.0642 12.502L23.6166 14.0544L25.648 13.2287C28.3565 12.1386 31.2136 11.5771 34.1534 11.5771C40.198 11.5771 45.8627 13.9223 50.1236 18.1832C54.3846 22.4442 56.7297 28.1089 56.7297 34.1535C56.7297 40.1981 54.3846 45.8628 50.1236 50.1238C45.8627 54.3847 40.198 56.7299 34.1534 56.7299C28.1088 56.7299 22.444 54.3847 18.1831 50.1238C11.7587 43.6993 9.80985 34.104 13.2285 25.6647L14.0543 23.6333L12.5018 22.0808L5.28467 14.8471C4.01299 13.5755 3.30283 11.8744 3.30283 10.0577C3.30283 8.24104 3.99647 6.55648 5.28467 5.26829C6.55634 3.99661 8.25741 3.28645 10.0741 3.28645M10.0741 -0.0166016C7.4812 -8.62864e-05 4.90481 0.974315 2.9395 2.93963C-0.974624 6.87027 -0.974624 13.2617 2.9395 17.1758L10.1567 24.393C6.37467 33.7406 8.27393 44.8719 15.8379 52.4359C20.8751 57.4896 27.5142 59.9999 34.1369 59.9999C40.7595 59.9999 47.3986 57.4731 52.4358 52.4359C62.5266 42.3451 62.5266 25.9289 52.4358 15.8381C47.3986 10.7844 40.7595 8.27407 34.1369 8.27407C30.8173 8.27407 27.5142 8.90165 24.3928 10.1568L17.1757 2.93963C15.2103 0.974315 12.634 -8.62864e-05 10.0576 -8.62864e-05L10.0741 -0.0166016Z" fill="#7F7F7F"/>
<path d="M47.0681 21.2058C54.2027 28.3404 54.2192 39.9341 47.0681 47.0687C39.9169 54.2033 28.3397 54.2033 21.2051 47.0687C14.054 39.9341 14.054 28.3404 21.2051 21.2058C28.3562 14.0547 39.9335 14.0712 47.0681 21.2058Z" fill="#437CED"/>
<path d="M35.2114 35.2105C33.9232 36.4986 31.8258 36.4986 30.5376 35.2105L7.58138 12.2542C6.29319 10.966 6.29319 8.86859 7.58138 7.5804C8.86957 6.29221 10.967 6.29221 12.2552 7.5804L35.2279 30.5532C36.5161 31.8413 36.5161 33.9388 35.2279 35.227L35.2114 35.2105Z" fill="#437CED"/>
<path d="M17.094 5.97852L13.0312 10.0413" stroke="#7F7F7F" stroke-width="2" stroke-miterlimit="10" stroke-linecap="round"/>
<path d="M21.5706 10.4707L17.5078 14.5335" stroke="#7F7F7F" stroke-width="2" stroke-miterlimit="10" stroke-linecap="round"/>
<path d="M33.7567 46.2267C32.1547 46.2267 30.5527 46.012 28.9672 45.5826C27.3818 45.1532 26.044 44.5422 24.9375 43.7494L27.0184 39.6537C27.8937 40.2978 28.9177 40.7932 30.0903 41.1731C31.2628 41.5529 32.4354 41.7346 33.6245 41.7346C34.9623 41.7346 36.0193 41.4703 36.7955 40.9418C37.5717 40.4134 37.9515 39.6867 37.9515 38.7618C37.9515 37.837 37.6047 37.1929 36.9276 36.6809C36.2505 36.1689 35.1439 35.9212 33.6245 35.9212H31.1803V32.3869L37.6212 25.0872L38.2158 27.003H26.0936V22.709H42.2785V26.1772L35.8706 33.4769L33.1621 31.9245H34.7145C37.5552 31.9245 39.7022 32.5686 41.1555 33.8403C42.6088 35.112 43.3355 36.7635 43.3355 38.7618C43.3355 40.0665 42.9887 41.2722 42.3116 42.4117C41.6344 43.5513 40.5775 44.4596 39.1737 45.1698C37.7699 45.8799 35.9532 46.2267 33.7567 46.2267V46.2267Z" fill="white"/>
</g>
<defs>
<linearGradient id="paint0_linear_1414_2707" x1="38.4795" y1="6.57301" x2="15.2755" y2="54.1205" gradientUnits="userSpaceOnUse">
<stop stop-color="white" stop-opacity="0.8"/>
<stop offset="1" stop-color="#C3E4E8"/>
</linearGradient>
<clipPath id="clip0_1414_2707">
<rect width="60" height="60" fill="white"/>
</clipPath>
</defs>
</svg>
