<?xml version="1.0" encoding="utf-8"?>
<!-- Generator: Adobe Illustrator 26.3.1, SVG Export Plug-In . SVG Version: 6.00 Build 0)  -->
<svg version="1.1" id="Layer_1" xmlns="http://www.w3.org/2000/svg" xmlns:xlink="http://www.w3.org/1999/xlink" x="0px" y="0px"
	 viewBox="0 0 1919.7 900" style="enable-background:new 0 0 1919.7 900;" xml:space="preserve">
<style type="text/css">
	.st0{fill:#11B5EA;}
	.st1{opacity:0.4;}
	.st2{fill:#FFFFFF;}
	.st3{opacity:0.3;}
	.st4{opacity:0.6;}
	.st5{opacity:0.6;fill:#FFFFFF;enable-background:new    ;}
	.st6{opacity:0.5;fill:#FFFFFF;enable-background:new    ;}
</style>
<rect class="st0" width="1919.7" height="900"/>
<g class="st1">
	<path class="st2" d="M309.7,306.8c-2.1,0-3.9,1.8-3.9,3.9s1.8,3.9,3.9,3.9c2.2,0,3.9-1.8,3.9-3.9S311.9,306.8,309.7,306.8z"/>
	<path class="st2" d="M297.1,306.8h-7.4c0-0.3,0-0.5,0-0.8c0-4-3.2-7.2-7.2-7.2c-0.4,0-0.8,0-1.2,0.1c-1.3-4.3-5-7.6-9.5-8.4
		c0.2-1,0.3-2.1,0.3-3.2c0-10.8-8.7-19.5-19.5-19.5c-5.7,0-10.8,2.4-14.4,6.3c-2.2-2-5.1-3.3-8.3-3.3c-2.5,0-4.9,0.8-6.8,2.1
		c-2.4-16.3-16.4-28.9-33.4-28.9c-13.8,0-25.7,8.3-30.9,20.2c-1.7-0.5-3.5-0.8-5.4-0.8c-10.8,0-19.5,8.7-19.5,19.5
		c0,2.6,0.5,5.1,1.5,7.4c-0.5-0.1-1-0.1-1.5-0.1c-6.7,0-12.2,5.4-12.2,12.1s5.4,12.1,12.2,12.1c0,0,0.1,0,0.1,0l0,0h139.7h8.2h15.2
		c2.1,0,3.9-1.8,3.9-3.9S299.3,306.8,297.1,306.8z"/>
</g>
<g class="st3">
	<path class="st2" d="M1530.8,260.6c2.9,0,5.3,2.4,5.3,5.3c0,2.9-2.4,5.3-5.3,5.3s-5.3-2.4-5.3-5.3
		C1525.5,263,1527.9,260.6,1530.8,260.6z"/>
	<path class="st2" d="M1548,260.6h10.1c0-0.4-0.1-0.7-0.1-1.1c0-5.4,4.4-9.8,9.8-9.8c0.6,0,1.1,0.1,1.6,0.1
		c1.8-5.9,6.8-10.4,13-11.4c-0.2-1.4-0.4-2.9-0.4-4.4c0-14.7,11.9-26.6,26.6-26.6c7.7,0,14.7,3.3,19.6,8.6c3-2.8,6.9-4.5,11.3-4.5
		c3.4,0,6.6,1,9.2,2.8c3.2-22.2,22.4-39.3,45.5-39.3c18.8,0,35,11.3,42.2,27.5c2.3-0.7,4.8-1,7.3-1c14.7,0,26.6,11.9,26.6,26.6
		c0,3.6-0.7,7-2,10.1c0.7-0.1,1.3-0.1,2-0.1c9.1,0,16.5,7.4,16.5,16.5c0,9.1-7.4,16.5-16.5,16.5c0,0-0.1,0-0.1,0v0H1580h-11.2H1548
		c-2.9,0-5.3-2.4-5.3-5.3C1542.7,263,1545.1,260.6,1548,260.6z"/>
</g>
<g class="st4">
	<path class="st2" d="M1446.6,375.6h7.8c0-0.3-0.1-0.6-0.1-0.9c0-4.1,3.4-7.5,7.5-7.5c0.4,0,0.8,0,1.2,0.1c1.4-4.5,5.2-8,9.9-8.8
		c-0.2-1.1-0.3-2.2-0.3-3.3c0-11.2,9.1-20.4,20.4-20.4c5.9,0,11.3,2.5,15,6.6c2.3-2.1,5.3-3.5,8.7-3.5c2.6,0,5.1,0.8,7.1,2.2
		c2.5-17.1,17.2-30.2,34.9-30.2c14.4,0,26.9,8.7,32.3,21.1c1.8-0.5,3.7-0.8,5.6-0.8c11.2,0,20.4,9.1,20.4,20.4
		c0,2.8-0.6,5.4-1.5,7.8c0.5-0.1,1-0.1,1.5-0.1c7,0,12.7,5.7,12.7,12.7s-5.7,12.7-12.7,12.7c0,0-0.1,0-0.1,0l0,0h-145.9h-8.6h-15.9
		c-2.2,0-4.1-1.8-4.1-4.1C1442.5,377.4,1444.3,375.6,1446.6,375.6z"/>
</g>
<path class="st5" d="M-1429,971.3h91.4c0,0-9.1-1-15.9-4.3c-7.2-5.6-9.4-6.1-14.6-3.9c-17.1,7.2-14-2.2-18.6-2.2
	c-5,0-6.9,6.3-14.4,5.2c-5.2-0.7-8.3-7.2-13.5-2.9C-1418.7,966.5-1426.1,971-1429,971.3z"/>
<g>
	<path class="st6" d="M-1123.4,1018.8h55.3c0,0-5.5-0.6-9.6-2.6c-4.4-3.4-5.7-3.7-8.8-2.4c-10.3,4.4-8.4-1.4-11.2-1.3
		c-3,0-4.2,3.8-8.7,3.2c-3.1-0.5-5-4.3-8.2-1.7C-1117.2,1015.9-1121.6,1018.7-1123.4,1018.8z"/>
	<path class="st6" d="M-1065.1,1018.8h85.7c0,0-8.5-0.9-14.9-4c-6.8-5.3-8.8-5.8-13.7-3.7c-16,6.8-13.1-2.1-17.4-2.1
		c-4.7,0-6.5,5.9-13.5,4.9c-4.9-0.7-7.8-6.7-12.7-2.7C-1055.4,1014.4-1062.4,1018.6-1065.1,1018.8z"/>
</g>
<g>
	<path class="st6" d="M-1278.4,905.1h85.8c0,0-8.5-0.9-14.9-4c-6.8-5.3-8.9-5.8-13.7-3.7c-16.1,6.8-13.1-2.1-17.4-2.1
		c-4.7,0-6.5,5.9-13.5,4.9c-4.9-0.7-7.8-6.7-12.7-2.7C-1268.7,900.6-1275.6,904.9-1278.4,905.1z"/>
	<path class="st6" d="M-1285.2,905.1h-8.6c-1.3,0-2.4-1.1-2.4-2.4l0,0c0-1.3,1.1-2.4,2.4-2.4h8.6c1.3,0,2.4,1.1,2.4,2.4l0,0
		C-1282.8,904-1283.8,905.1-1285.2,905.1z"/>
</g>
<g class="st1">
	<path class="st2" d="M-1317.6,387.2c-2.2,0-3.9,1.8-3.9,3.9s1.8,3.9,3.9,3.9c2.2,0,3.9-1.8,3.9-3.9S-1315.4,387.2-1317.6,387.2z"/>
	<path class="st2" d="M-1330.2,387.2h-7.4c0-0.3,0.1-0.5,0.1-0.8c0-4-3.2-7.2-7.2-7.2c-0.4,0-0.8,0-1.2,0.1c-1.3-4.3-5-7.6-9.5-8.4
		c0.2-1,0.3-2.1,0.3-3.2c0-10.8-8.7-19.5-19.5-19.5c-5.7,0-10.8,2.4-14.4,6.3c-2.2-2-5.1-3.3-8.3-3.3c-2.5,0-4.8,0.8-6.8,2.1
		c-2.4-16.3-16.4-28.9-33.4-28.9c-13.8,0-25.7,8.3-30.9,20.2c-1.7-0.5-3.5-0.8-5.4-0.8c-10.8,0-19.5,8.7-19.5,19.5
		c0,2.6,0.5,5.1,1.5,7.4c-0.5-0.1-1-0.1-1.5-0.1c-6.7,0-12.2,5.4-12.2,12.1s5.4,12.1,12.2,12.1c0,0,0.1,0,0.1,0l0,0h139.7h8.2h15.2
		c2.2,0,3.9-1.8,3.9-3.9S-1328,387.2-1330.2,387.2z"/>
</g>
</svg>
