<?xml version="1.0" encoding="utf-8"?>
<!-- Generator: Adobe Illustrator 26.3.1, SVG Export Plug-In . SVG Version: 6.00 Build 0)  -->
<svg version="1.1" id="Layer_1" xmlns="http://www.w3.org/2000/svg" xmlns:xlink="http://www.w3.org/1999/xlink" x="0px" y="0px"
	 viewBox="0 0 1479.8 2892.7" style="enable-background:new 0 0 1479.8 2892.7;" xml:space="preserve">
<style type="text/css">
	.st0{fill:#00B2EC;}
	.st1{opacity:0.4;}
	.st2{fill:#FFFFFF;}
	.st3{opacity:0.3;}
	.st4{opacity:0.6;}
</style>
<rect class="st0" width="1479.8" height="2892.7"/>
<g class="st1">
	<path class="st2" d="M309.6,596.8c-2.2,0-3.9,1.8-3.9,3.9c0,2.2,1.8,3.9,3.9,3.9c2.2,0,3.9-1.8,3.9-3.9
		C313.5,598.5,311.7,596.8,309.6,596.8z"/>
	<path class="st2" d="M297,596.8h-7.4c0-0.3,0-0.5,0-0.8c0-4-3.2-7.2-7.2-7.2c-0.4,0-0.8,0-1.2,0.1c-1.3-4.3-5-7.6-9.5-8.4
		c0.2-1,0.3-2.1,0.3-3.2c0-10.8-8.7-19.5-19.5-19.5c-5.7,0-10.8,2.4-14.4,6.3c-2.2-2-5.1-3.3-8.3-3.3c-2.5,0-4.9,0.8-6.8,2.1
		c-2.4-16.3-16.4-28.9-33.4-28.9c-13.8,0-25.7,8.3-30.9,20.2c-1.7-0.5-3.5-0.8-5.4-0.8c-10.8,0-19.5,8.7-19.5,19.5
		c0,2.6,0.5,5.2,1.5,7.4c-0.5-0.1-1-0.1-1.5-0.1c-6.7,0-12.2,5.4-12.2,12.2s5.4,12.2,12.2,12.2c0,0,0.1,0,0.1,0l0,0h139.7h8.2H297
		c2.1,0,3.9-1.8,3.9-3.9C300.9,598.5,299.1,596.8,297,596.8z"/>
</g>
<g class="st3">
	<path class="st2" d="M1145.2,550.7c2.9,0,5.3,2.4,5.3,5.3c0,2.9-2.4,5.3-5.3,5.3s-5.3-2.4-5.3-5.3
		C1139.8,553.1,1142.2,550.7,1145.2,550.7z"/>
	<path class="st2" d="M1162.3,550.7h10.1c0-0.4-0.1-0.7-0.1-1.1c0-5.4,4.4-9.8,9.8-9.8c0.6,0,1.1,0.1,1.6,0.1
		c1.8-5.9,6.8-10.4,13-11.5c-0.2-1.4-0.4-2.9-0.4-4.3c0-14.7,11.9-26.5,26.6-26.5c7.7,0,14.7,3.3,19.6,8.6c3-2.8,6.9-4.5,11.3-4.5
		c3.4,0,6.6,1,9.2,2.8c3.2-22.2,22.4-39.3,45.5-39.3c18.8,0,35,11.3,42.2,27.5c2.3-0.7,4.8-1,7.3-1c14.7,0,26.6,11.9,26.6,26.6
		c0,3.6-0.7,7-2,10.1c0.7-0.1,1.3-0.1,2-0.1c9.1,0,16.5,7.4,16.5,16.5c0,9.1-7.4,16.5-16.5,16.5c0,0-0.1,0-0.1,0v0h-190.3H1183
		h-20.7c-2.9,0-5.3-2.4-5.3-5.3C1157,553.1,1159.4,550.7,1162.3,550.7z"/>
</g>
<g class="st4">
	<path class="st2" d="M1060.9,665.7h7.8c0-0.3-0.1-0.6-0.1-0.8c0-4.1,3.4-7.5,7.5-7.5c0.4,0,0.8,0,1.2,0.1c1.4-4.5,5.2-8,9.9-8.8
		c-0.2-1.1-0.3-2.2-0.3-3.3c0-11.2,9.1-20.4,20.4-20.4c5.9,0,11.3,2.5,15,6.6c2.3-2.1,5.3-3.5,8.7-3.5c2.6,0,5.1,0.8,7.1,2.2
		c2.5-17.1,17.2-30.2,34.9-30.2c14.4,0,26.9,8.7,32.3,21.1c1.8-0.5,3.7-0.8,5.6-0.8c11.2,0,20.4,9.1,20.4,20.4
		c0,2.8-0.6,5.4-1.5,7.8c0.5-0.1,1-0.1,1.5-0.1c7,0,12.7,5.7,12.7,12.7s-5.7,12.7-12.7,12.7c0,0-0.1,0-0.1,0l0,0h-145.9h-8.6h-15.9
		c-2.2,0-4.1-1.8-4.1-4.1C1056.8,667.5,1058.7,665.7,1060.9,665.7z"/>
</g>
</svg>
