<?xml version="1.0" encoding="utf-8"?>
<!-- Generator: Adobe Illustrator 26.3.1, SVG Export Plug-In . SVG Version: 6.00 Build 0)  -->
<svg version="1.1" xmlns="http://www.w3.org/2000/svg" xmlns:xlink="http://www.w3.org/1999/xlink" x="0px" y="0px"
	 viewBox="0 0 1150 1086" style="enable-background:new 0 0 1150 1086;" xml:space="preserve">
<style type="text/css">
	.st0{fill:none;stroke:#F82900;stroke-width:5;stroke-linecap:round;stroke-miterlimit:10;}
	.st1{fill:none;stroke:#F82900;stroke-width:5;stroke-linecap:round;stroke-linejoin:round;stroke-miterlimit:10;}
	.st2{fill:none;stroke:#004067;stroke-width:5;stroke-linecap:round;stroke-linejoin:round;stroke-miterlimit:10;}
	.st3{fill:#004067;}
	.st4{fill:none;stroke:#08A700;stroke-width:14;stroke-linecap:round;stroke-miterlimit:10;}
	.st5{fill:none;stroke:#99A7DE;stroke-width:14;stroke-linecap:round;stroke-miterlimit:10;}
	.st6{fill:none;stroke:#082ED4;stroke-width:14;stroke-linecap:round;stroke-miterlimit:10;}
	.st7{fill:none;stroke:#92A700;stroke-width:14;stroke-linecap:round;stroke-miterlimit:10;}
	.st8{fill:none;stroke:#08A7B7;stroke-width:14;stroke-linecap:round;stroke-miterlimit:10;}
	.st9{fill:#FCFAF7;}
	.st10{fill:#FCFAF7;stroke:#004067;stroke-width:5;stroke-linecap:round;stroke-linejoin:round;stroke-miterlimit:10;}
</style>
<g id="Layer_1">
	<path class="st0" d="M878,1064.7c0,0-6.3-17.1-13.3-50.5c-7-33.5-7-60.6-34.7-96.6s-51.2-63.8-17.7-153.5"/>
	<path class="st0" d="M746.4,400.7c0.4,26.1-5.5,44.2-7.6,57.3c-2.1,13-9.3,34.5-11.8,75.4s22.3,67.8,38.7,90.5s23.6,37.9,11.8,49.3
		c-11.8,11.4-8.4,14.3,2.5,25.7c11,11.4,32.8,48.8,32.8,48.8"/>
	<path class="st0" d="M756.5,438.6c0,0,8.4-21,34.1-37.9c25.7-16.8,53-35.8,90.1-51.4s70.7-24.4,99-27.4c28.2-3,57.3,0,64.4,14.3
		s-48.4,33.3-59.8,34.1c-11.4,0.8-8.4-2.7,0.8-9.7c17.7-13.5,34.3-25.5,47.8-56.6c0,0,11.6-27.4-27.4-32.4c-39-5-93-4.8-100.4-7.6
		c-4.4-1.6-13.7-7,10.7-20.6s107.4-42.7,211.6-56.6"/>
	<path class="st0" d="M840.1,1048.1c-10.1-28.8-29.9-78.5-55.4-108.8c-37.5-44.6-40.4-32.4-40.8-50.5c-0.4-18.1,12.6-35.4,14.7-49.3
		s5-37.9-3.4-43.4c-8.4-5.5-13.9,2.5-14.3,12.2c-0.3,5.9,15.4,25.2,25.6-7.2c12.6-40-0.3-106.5-21.8-141.9s-50.1-60.2-50.1-60.2"/>
	<path class="st0" d="M847.5,1070.6c0,0-1.2-4.2-3.6-11.3"/>
	<path class="st0" d="M788.9,1068.5c0,0,13.5-20.2,13-49.3c-0.4-29-6.5-37.9-6.5-37.9"/>
	<path class="st0" d="M626.4,1066.8c0,0,30.3-27.8,42.5-61c3.4-8.4,21.8-5.4,49.7-19.8c24.8-12.8,20.7-26.5,3.4-30.2
		c-25.3-5.4-51.2,17.7-52.4,19c0,0-6.3,6.6-5-2.5c1.3-9.2,14.5-38.8,16.7-55.6c2.2-16.7,4.4-21.2-8.8-38.2s3.5-31.6,8.8-41.7
		c5.4-10.1,27.5-39.2,17.4-74.2c-10.1-35-59.6-95.3-84.8-118.4s-167.2-93.5-205-99.8c-20.8-8.8-34.1-15.7-38.5-21.1
		s-11.4-10.5-37.9-6c-26.5,4.4-75.2,10.7-101.9,4c-5.1-2.1,16.4-2.5,26.3-1.5c9.9,1,27.6,11.2,0.2,21.9s-40.2,8.2-59.4,11.8
		c-19.2,3.6-52.8,13.5-59.2,20.8"/>
	<path class="st0" d="M502,599.1c0,0-13.5-9.3-64.7-17.3s-56.8-16.6-95.1-7.2c-43.7,10.8-59.8,20.4-60.7,23.4
		c-2.5,8,14,5.3,12.7,9.5s-6.6,6.5-22.2,11.7c-11.8,3.9-35.7,9.5-48,11s-19.6-0.5-13.6-5.7c4.8-4.1,14.5-2.5,14.5-2.5"/>
	<path class="st0" d="M277.4,480.4c-2.9-0.1-5.9-0.3-8.9-0.5c-39.2-2.5-90.9-18.1-110.3-32.4c-19.4-14.3-27.4-13.9-29.1-10.1
		c-1.2,2.7,3.9,10.1,20.2,8.4c13.9-1.5,11.6-7.8,8.8-10.3c-5.7-5.3-57.7-26.3-89.9-18.6"/>
	<path class="st0" d="M603.3,560.5c0,0-135.2-60.4-199.7-70.5c-48.8-7.6-78.7-8.1-107.4-8.9"/>
	<path class="st1" d="M726.9,221.6c0,0,64.6-72,108.2-77.7s28.6,22.7,21.9,30.3s-27.6,22.7-34.7,21.1c-7.2-1.7,5.9-18.1,26.1-29.9
		c20.2-11.8,39.7-21.8,47.5-28.1c9.5-7.7,57.1-43.6,80.5-51.5c13.6-4.6,40.2-4.3,33.8,1.6c-6.4,5.8-17,8.8-22.1,11.8
		c-6.7,3.9-23.9,17.7-29.4,33.8c-5.2,15.5,1,24.9,34.1,12.5c33.2-12.5,40.9-14.8,52.7-16.9c15.2-2.7,8.5,2.8,13.6,6.9
		s55.6-9.3,70.4-13.9"/>
	<rect y="0.1" class="st1" width="1150" height="1086"/>
	<g>
		<path class="st2" d="M194.9,406.6c-14.8,40.7,6,44.8,26.5,49.3s45.2-2.8,45.2-2.8s-4.7-6.3-7.6-11.7c-4.9-9.3-11.7-31-16.1-41.4
			c-4.4-10.4-7.5-19.4-24.9-21.8c-14.7-2-20.1,8.5-20.1,8.5"/>
		<path class="st2" d="M203.9,396.2c-1.7-1-19.1-1.8-20.5-0.6c-4.3,3.4,5.4,10.4,14.1,11.4C204.1,404.4,205.7,397.3,203.9,396.2z"/>
		<path class="st2" d="M237.8,417.5c0,0,5.9,9.5,7.7,11.2c0.9,1-3.4,4-9,4c-5.4,0-8.2-1.1-8.2-1.1"/>
		<circle class="st3" cx="217.2" cy="397.2" r="3.4"/>
		<polyline class="st2" points="210.3,471.1 217.2,469.3 217.2,455.7 		"/>
		<polyline class="st2" points="227,473.9 233.9,472.2 233.9,458.6 		"/>
		<path class="st3" d="M241.4,422.1c0,0-1.7-0.3-3.3,2.8c-0.5,1-0.8,1.3-2,2.4c-1.1,1-1.9,1.8-3.1,2.5s-3.6,1.7-3.6,1.7
			s12.7,3.8,17.2-1.9L241.4,422.1z"/>
	</g>
	<g>
		<path class="st2" d="M969.6,516.2c0.3-1.3,3.5-15,5-15.6c4.7-2,9.8,2,10.5,4.5c0.7,2.5-10.8,14.9-10.8,14.9s5.6,21.2-8.1,30.4
			c-11.4,7.7-19.6,7.9-32.5,9.1c-4.8,0-13.4,4-13.4,4s3.4-16.2,4.8-22.7c1.5-6.5,7.6-27.6,27.6-28
			C963.3,512.3,969.6,516.2,969.6,516.2z"/>
		<g>
			<path class="st3" d="M967.7,523.7c-5.5,4.6-15.4,12.9-20.8,17.4c-4.8,4.2-9.7,8.5-14.3,12.8c-3.7,3.5-7.2,7.2-10.4,11
				c-0.9,1.1-2.5,1.2-3.6,0.3c-1-0.8-1.2-2.2-0.5-3.3c6-8.9,13.9-16.1,22.1-22.8c8.2-6.6,16.8-12.6,26-17.6
				C967.7,520.9,968.9,522.7,967.7,523.7L967.7,523.7z"/>
		</g>
	</g>
	<g>
		<path class="st2" d="M29.9,833.9c-0.3-1.3-3.5-15-5.1-15.6c-4.7-2-9.8,2-10.5,4.5c-0.7,2.5,10.8,15,10.8,15s-5.6,21.2,8.1,30.4
			c11.4,7.7,19.6,7.9,32.5,9.1c4.8,0,13.4,4,13.4,4s-3.4-16.2-4.8-22.7c-1.5-6.5-7.6-27.6-27.6-28C36.2,830,29.9,833.9,29.9,833.9z"
			/>
		<g>
			<path class="st3" d="M33.1,839.3c9.2,5,17.8,11,26,17.6c8.2,6.7,16.1,13.9,22.1,22.8c0.8,1.2,0.4,2.7-0.7,3.5
				c-1.1,0.7-2.5,0.5-3.3-0.5c-7.3-8.7-16-16.4-24.7-23.9c-1.9-1.6-6.9-5.8-8.9-7.5l-11.9-10C30.6,840.4,31.8,838.6,33.1,839.3
				L33.1,839.3z"/>
		</g>
	</g>
	<path class="st2" d="M1060.5,263c0,0,24.6,22.3,38.2,4.4c0,0-8.4-12.4-21.6-10.9C1069.3,257.4,1060.5,263,1060.5,263z"/>
	<path class="st1" d="M609,378c0,0,18.2-99.8-24.6-136.3c-17.9-15.2-75.9-42.2-75.9-42.2s-66.3-39.8-103-82.7S361.7,71.6,372.4,71
		s44.8,22.7,53.4,37.3s7,30-39.2,23.7c-46.1-6.3-50.5-15.5-59.7-15.2c-9.2,0.3-40.1,9.8-46.1,6.6s-25.3,1.6-53.4-30.6
		s-61.1-32.9-81.2-29c-15.8,3-48.3,12.4-48,17c0.2,2.3,22.8,7.2,38.2-1.9c12.3-7.2-18-11.7-34.1-14.5c-16.1-2.8-27.2-12-41.4-23
		S26,12.9,17.1,13.2"/>
	<path class="st1" d="M705.7,358.2c4.7-5.7,90.4-168.6,421.8-200.8"/>
	<path class="st1" d="M0,199.8c0,0,189.9,36.6,178.5,63.8c-3.1,11.2-52.7-13.3-50.2-19.9c-4.2-16.5,48.9-19.1,92.3,18.8
		s220.1,163,280,181"/>
	<path class="st4" d="M1127.5,186.9c-104.2,13.9-187.2,43-211.6,56.6c-24.4,13.6-15.1,19-10.7,20.6c7.4,2.7,61.5,2.5,100.4,7.6
		s27.4,32.4,27.4,32.4c-13.5,31.2-30.1,43.1-47.8,56.6c-9.2,7-12.2,10.5-0.8,9.7c11.4-0.8,66.9-19.8,59.8-34.1
		c-7.2-14.3-36.2-17.3-64.4-14.3c-28.2,3-61.9,11.8-99,27.4s-64.4,34.5-90.1,51.4c-22.3,14.6-34.3,37.2-34.4,36.8l-9.4-35.3
		c-0.1-0.2-0.4-0.2-0.4,0.1c0.2,25.3-5.5,42.9-7.6,55.7c-2.1,13-9.3,34.5-11.8,75.4s22.3,67.8,38.7,90.5s23.6,37.9,11.8,49.3
		c-11.8,11.4-8.4,14.3,2.5,25.7c8.1,8.4,22.1,31,28.9,42.3c2.5,4.2,3.8,9.1,3.6,14l-0.2,4.9c-0.1,2.6-0.6,5.1-1.5,7.6
		c-31.5,86.9-8.4,114.4,19,149.9c27.8,36,27.8,63.2,34.7,96.6c7,33.5,13.3,50.5,13.3,50.5"/>
	<path class="st4" d="M694.6,599.1c0,0,28.6,24.8,50.1,60.2c11.4,18.8,20.4,46.3,24.5,74.1l2.2,23c0.7,16.4-0.8,31.9-4.8,44.7
		c-10.2,32.3-25.9,13.1-25.6,7.2c0.4-9.7,5.9-17.7,14.3-12.2c8.4,5.5,5.5,29.5,3.4,43.4c-2.1,13.9-15.2,31.2-14.7,49.3
		c0.4,18.1,3.4,5.9,40.8,50.5c25.5,30.3,45.3,80,55.4,108.8l3.8,11.2c2.3,7.1,3.6,11.3,3.6,11.3"/>
	<path class="st4" d="M788.9,1068.5c0,0,13.5-20.2,13-49.3c-0.4-29-6.5-37.9-6.5-37.9"/>
	<path class="st5" d="M68.3,416.8c32.2-7.7,84.2,13.4,89.9,18.6c2.7,2.5,5.1,8.8-8.8,10.3c-16.3,1.7-21.4-5.7-20.2-8.4
		c1.7-3.8,9.7-4.2,29.1,10.1c19.4,14.3,71.2,29.9,110.3,32.4c3,0.2,5.9,0.4,8.9,0.5l18.9,0.7c28.7,0.8,58.6,1.3,107.4,8.9
		c17,2.7,38.9,8.8,62,16.5l21.6,7.4c58.1,20.7,116,46.6,116,46.6"/>
	<path class="st6" d="M1129.5,121.6c-14.8,4.6-65.4,18-70.4,13.9s1.6-9.6-13.6-6.9c-11.8,2.1-19.6,4.4-52.7,16.9
		c-33.2,12.5-39.3,3-34.1-12.5c5.4-16.1,22.7-29.9,29.4-33.8c5.2-3,15.7-6,22.1-11.8c6.4-5.8-13-8.7-33.8-1.6
		c-20.8,7.1-80.5,51.5-80.5,51.5c-7.8,6.3-27.3,16.3-47.5,28.1c-20.2,11.8-33.3,28.2-26.1,29.9c7.2,1.7,28-13.5,34.7-21.1
		s21.7-36-21.9-30.3c-43.6,5.7-108.2,77.7-108.2,77.7"/>
	<path class="st6" d="M1127.5,157.4c-83,8.1-150.6,24.3-205.3,44.3l-25.3,9.8C753.2,271,709,354.2,705.7,358.2"/>
	<path class="st7" d="M0,199.8c0,0,189.9,36.6,178.5,63.8c-3.1,11.2-52.7-13.3-50.2-19.9c-4.2-16.5,48.9-19.1,92.3,18.8
		c10.8,9.5,30,24.4,53.5,41.7l24.2,17.5c69.8,49.7,162.2,109.8,202.4,121.9"/>
	<path class="st4" d="M138.4,574.2c6.3-7.4,40-17.3,59.2-20.8s32-1,59.4-11.8s9.7-20.8-0.2-21.9c-9.9-1-31.4-0.6-26.3,1.5
		c26.7,6.7,75.4,0.4,101.9-4c26.5-4.4,33.5,0.6,37.9,6s17.7,12.3,38.5,21.1c37.9,6.3,179.8,76.6,205.1,99.8
		c0,0,57.2,48.5,84.8,118.4c13.4,33.9-12,64.1-17.4,74.2c-5.4,10.1-22.1,24.6-8.8,41.7s11,21.5,8.8,38.2
		c-2.2,16.7-15.5,46.4-16.7,55.6c-1.3,9.2,5,2.5,5,2.5c1.3-1.3,27.2-24.3,52.4-19c17.3,3.7,21.5,17.4-3.4,30.2
		c-27.9,14.4-46.3,11.4-49.7,19.8c-12.2,33.3-42.5,61-42.5,61"/>
	<path class="st8" d="M224.9,622c0,0-9.8-1.6-14.5,2.5c-6,5.2,1.3,7.3,13.6,5.7c12.3-1.6,36.2-7.1,48-11c15.6-5.2,21-7.5,22.2-11.7
		s-15.3-1.4-12.7-9.5c0.9-3,17-12.5,60.7-23.4l37.5-3.7c14,1.5,28.4,6.3,57.5,10.8c51.3,8,64.7,17.3,64.7,17.3"/>
	<g id="dash-line-test">
		<path class="st6" d="M17.1,13.2c8.8-0.3,29.7,17,43.9,28.1s25.3,20.2,41.4,23.1c16.1,2.8,46.4,7.3,34.1,14.5
			c-15.4,9.1-38.1,4.2-38.2,1.9c-0.3-4.6,32.2-14,48-17c20-3.8,53.1-3.2,81.2,29s47.4,27.5,53.4,30.6c6,3.2,37-6.3,46.1-6.6
			c9.2-0.3,13.6,8.8,59.7,15.2c46.1,6.3,47.7-9.2,39.2-23.7S383.2,70.3,372.4,71s-3.5,2.8,33.2,45.8c19.9,23.4,48.6,45.8,70.7,61.4
			l32.3,21.4c0,0,58,26.9,75.9,42.2C627.3,278.2,609,378,609,378"/>
	</g>
</g>
<g id="person">
	<g>
		<path class="st9" d="M825.6,241.7c-24.1-51.9-70.7-81-77.6-85.1c2.4-26.6-15.8-44.9-35.2-62.1c-21.5-19-42.2-3.2-42.2-3.2
			l-4.6-1.6c0,0-13.3-12-31.3-6.3c-17.5,5.5-43.1,25.2-49.5,47.3c0,0-60.1,2-109.1,39.8c0,0-2.7,1.4,0,8c0,0,12.3,37.5,42.3,61.5
			l1.5,2c-4.5,10.3-5.1,17.8-5.1,17.8s5.5,6,30.3,31l0,0c0,0,0,0,0,0c1.3,1.3,2.7,2.7,4.1,4.1l0.1,0c0.5,0.5,1,1,1.5,1.5
			c-10,27.1-24.5,71.5-30.8,117l-2.3,10.8c-12,1.6-33.8,4.6-59.3,8.5c-38.7,5.9-56.8,13-61.5,41c-4.6,28-29.1,197.7-29.1,197.7
			c2,1.2,3.9,2.4,5.7,3.4l-3.6,10.3c-1.4,4-4.1,7.5-7.6,9.8c-5.7,3.7-14.7,9.3-21.5,12.3c0,0-34,13.8-48,28
			c-14,14.2-11.1,19.7-8.5,23.8c2.6,4.1,13.4,16.4,31.4,13.5c18-2.9,35-16.5,35-16.5s20.9-1,29-11.1c8.1-10.1,11.8-26.6,11.8-26.6
			s1-3.1,1.1-3.8c0.3-1.3,0.7-2.4,0.8-2.6c3.8-8.3,6.1-17,10.2-28.6c6.1-0.8,8.4-3.8,8.4-3.8c10.3-18,30.6-96.7,36.7-129.8
			l1.2,190.8c0,0,0.2,13.7-8.4,21.9c0,0-27.4,24.4-35.8,42.5c-8.4,18.1-3.8,22.3,0,25.3c3.8,3,18.1,11,34.1,2.1
			c16-8.8,27.4-27.4,27.4-27.4s19.4-8,23.6-20.2c4.2-12.2,2.1-29.1,2.1-29.1s-0.3,0.4-0.9,1l-1.8-13.3c4.2-1.4,6.5-2.9,6.5-2.9
			s11.4-86.7,17.7-133.5c6.3-46.7-2.5-68.6,0-74.5c2.5-5.9,12.8-11.8,12.8-11.8l12.3-5c13.7,1.4,29.2,3,46.5,4.6
			c58.1,5.5,69.5-42.5,69.5-42.5l1.2-5.4l0.2-0.6l6.4,1.9c3.7-72.2,35.2-141.4,35.2-141.4l10.9-5.7c37-15.8,54.2-23.7,54.2-23.7
			s2.8-7.6,2-20.6l-0.1-0.2l0.2-0.1c2.3-0.8,4.6-1.6,6.8-2.5l0.1,0l0,0c27.5-11.1,49.3-30.8,49.3-30.8
			C828,243.7,825.6,241.7,825.6,241.7z M617.2,248.4l-0.9,0c0,0-10.7-8.3-15.8-13.1c-13.5-12.8-26.9-21-34-26.4
			c-4.9-3.7-9.7-6.5-18.1-1.4l-0.9,0.5l-17.9-23.5l1.8-1.2c10.3-6.6,29-16.4,56.4-22.4l2.6-1c4.3,5.1,9.1,7.2,9.1,7.2l1.7,2.6
			c-1.6,6.3-3.4,15.6-3.3,26.1c0.1,13.6,6.4,26.1,19.7,36.1l-0.1,6C617.7,241.1,617.6,244.9,617.2,248.4z M747.1,240.8l-2.5-0.7
			c-7.1-3.5-13.4-2.3-13.4-2.3s-18.4,6-41.4,11.8c-6.8,1.7-23.2,7.6-23.2,7.6l-0.4-0.7c-0.7-7.9,0.9-17.6,0.9-17.6l0.7-0.3
			c3.1-1.3,6.1-3,8.7-5.3c9.1-8.3,20.5-21.2,20.5-21.2s19.3,6.2,23.1-11.4l0.3-4.4c4.4-2.3,9.6-5.2,14.2-9.9l1.3,0
			c18.6,16.5,29.2,32.1,34.7,41.8l0.7,1.2L747.1,240.8z"/>
		<path class="st2" d="M521.2,190.2c1.3-0.9,22.9-19.9,66-29.4"/>
		<path class="st2" d="M603.3,160.9c0,0-6.1,15.3-6.1,34.9c0.1,14.9,7.6,28.3,23.4,38.7"/>
		<path class="st2" d="M649,242.3c0,0,17.4,0,27.5-9.2c9.1-8.3,20.5-21.2,20.5-21.2s19.3,6.2,23.1-11.4c3.5-16.2-7.9-21.7-17.7-16.2
			"/>
		<circle class="st2" cx="673" cy="179.3" r="18.4"/>
		<circle class="st2" cx="620.6" cy="167.1" r="18.4"/>
		<path class="st10" d="M641.6,180.6c0,0-5.8-5.8-9.3-4.4c-4.5,1.8-2.8,10.3,3.4,16.7"/>
		<path class="st2" d="M652.2,219.4c0,0,10.9,3.6,17.8-7.4"/>
		<path class="st2" d="M639,168.6c0,0,6.8-1.5,16.4,4.2"/>
		<path class="st2" d="M665.5,89.8c0,0-13.3-12-31.3-6.3c-18.6,5.9-46.3,27.8-50.4,51.5c-4.1,23.7,15.1,32.1,15.1,32.1"/>
		<path class="st2" d="M639,124.5c0,0-0.6,15.8-14.7,26.2"/>
		<path class="st2" d="M670,120.4c0,0-4.7-7.1-12.2-2.5c-10.7,6.6-10.7,27.8-26.2,39.5"/>
		<path class="st2" d="M676.2,120.8c0,0,2.5-4.7,6.3,0c3.8,4.7,5.4,8.8,5.4,34.7s9.8,26,11.1,28.9"/>
		<path class="st2" d="M670,91.4c0,0,20.7-15.8,42.2,3.2s41.5,39.3,33.8,70.7c-4.7,19.2-16.6,26.3-25.5,30.9"/>
		<path class="st2" d="M616.7,237.8c0.8,10.1-2.1,24-2.1,24s1,23.1,12.6,23.2c20,0.2,34.4-12.9,44.2-23.5"/>
		<path class="st2" d="M667.1,238.8c0,0-2.5,15,0,23"/>
		<path class="st2" d="M666.5,257.2c0,0,16.4-5.9,23.2-7.6c23-5.8,41.4-11.8,41.4-11.8s19.9-3.7,29.1,21.6S763,303,763,303
			s-17.2,7.9-54.2,23.7"/>
		<path class="st2" d="M615.6,248.4c0,0-10.7-8.3-15.8-13.1c-13.5-12.8-26.9-21-34-26.4c-7.1-5.4-14.2-8.9-32.2,11.1
			s-19.4,39.9-19.4,39.9s6,6.6,34.4,35.1"/>
		<line class="st2" x1="547" y1="208" x2="529" y2="184.4"/>
		<path class="st2" d="M584.7,130.8c0,0-60.1,2-109.1,39.8"/>
		<path class="st2" d="M475.7,178.6c0,0,12.3,37.5,42.3,61.5"/>
		<line class="st2" x1="747.1" y1="240.8" x2="771.3" y2="229.4"/>
		<path class="st2" d="M775.6,238.2c-0.6-1.3-10-25.4-39.7-51.8"/>
		<path class="st2" d="M746.5,156.1c0,0,52.4,29.5,78.5,85.6"/>
		<path class="st2" d="M821.3,248.8c0,0-25.5,23.1-56.2,33.4"/>
		<path class="st2" d="M560.9,269.8c0,0-31.3,70.4-41.4,143.7"/>
		<path class="st2" d="M655,477.8c0,0-11.4,48-69.5,42.5s-96.8-10.5-109.5-9c-12.6,1.4-24.6,7.3-26.1,27.1
			c-1.5,19.8-26.5,120.4-38.3,141.1c0,0-10.5,13.1-44.2-8c0,0,24.4-169.8,29.1-197.7c4.6-28,22.7-35.1,61.5-41s69.2-9.8,69.2-9.8
			c54.9,2.8,135.6,50.8,135.6,50.8c3.7-72.2,35.2-141.4,35.2-141.4"/>
		<path class="st2" d="M526.8,520.8c0,0-10.2,5.9-12.8,11.8s6.3,27.8,0,74.5c-6.3,46.7-17.7,133.5-17.7,133.5s-18.9,12.2-46.7,0
			l-1.3-190.8"/>
		<path class="st2" d="M441.2,762.4c0,0-27.4,24.4-35.8,42.5c-8.4,18.1-3.8,22.3,0,25.3c3.8,2.9,18.1,10.9,34.1,2.1
			c16-8.8,27.4-27.4,27.4-27.4s19.4-8,23.6-20.2c4.2-12.2,2.1-29.1,2.1-29.1s-19.4,21.9-29.1,24c-9.7,2.1-22.3-8.8-22.3-8.8V762.4z"
			/>
		<path class="st2" d="M449.6,740.5c0,0,0.2,13.7-8.4,21.9"/>
		<line class="st2" x1="490.3" y1="743.3" x2="492.5" y2="755.7"/>
		<path class="st2" d="M340.4,707.3c0,0-34,13.8-48,28s-11.1,19.7-8.5,23.8c2.6,4.1,13.4,16.4,31.4,13.5s35-16.6,35-16.6
			s20.9-1,29-11.1c8.1-10.1,11.8-26.6,11.8-26.6s-25.6,14.1-35.4,12.8s-18-15.8-18-15.8L340.4,707.3z"/>
		<path class="st2" d="M340.4,707.3c6.9-3,15.8-8.6,21.5-12.3c3.6-2.3,6.3-5.8,7.6-9.8l3.6-10.3"/>
		<line class="st2" x1="403.7" y1="683.5" x2="391" y2="718.3"/>
		<g>
			<path class="st2" d="M576.7,227.3c0,0-22.7,17.4-32.8,38.2"/>
			<path class="st2" d="M560.3,224.5c0,0-25.5,21.5-29.1,36.8"/>
		</g>
		<g>
			<path class="st2" d="M730.4,251.5c0,0,10.5,18.5,12.2,39.2"/>
			<path class="st2" d="M715.9,257.4c0,0,11.2,17.5,12.9,47.6"/>
		</g>
		<g>
			<path class="st2" d="M565,295c0,0,65.1,15.9,111.2,35.8"/>
			<path class="st2" d="M554.9,317.2c0,0,72.6,14.8,114.6,39.8"/>
			<path class="st2" d="M551.5,337.1c0,0,73.3,18.3,110.5,38.2"/>
			<path class="st2" d="M546.4,360.4c0,0,62.2,14.8,105.2,33.5"/>
			<path class="st2" d="M540.3,380.3c0,0,71.2,18.9,106.3,36.6"/>
			<path class="st2" d="M537.3,401.6c0,0,55.6,9.4,105.2,36.2"/>
		</g>
	</g>
</g>
<g id="person2">
	<g>
		<path class="st9" d="M825.6,241.1c-24.1-51.9-70.7-81-77.6-85.1c2.4-26.6-15.8-44.9-35.2-62.1c-21.5-19-42.2-3.2-42.2-3.2
			l-4.6-1.6c0,0-13.3-12-31.3-6.3c-17.5,5.5-43.1,25.2-49.5,47.3c0,0-60.1,2-109.1,39.8c0,0-2.7,1.4,0,8c0,0,12.3,37.5,42.3,61.5
			l1.5,2c-4.5,10.3-5.1,17.8-5.1,17.8s5.5,6,30.3,31l0,0c0,0,0,0,0,0c1.3,1.3,2.7,2.7,4.1,4.1l0.1,0c0.5,0.5,1,1,1.5,1.5
			c-10,27.1-24.5,71.5-30.8,117l-2.3,10.8c-12,1.6-33.8,4.6-59.3,8.5c-38.7,5.9-56.8,13-61.5,41c-4.6,28-79.1,193.9-79.1,193.9
			c1.3,3.2,1.4,4.7,0.3,7.1l-3.6,10.3c-1.4,4-9.6,8-13.2,10.3c-5.7,3.7-14,5.7-20.8,8.8c0,0-30.5,7.6-48,17.1
			c-10.1,5.5-10.9,14.3-8.3,18.3c2.6,4.1,13.2,21.9,31.2,18.9c18-2.9,35-5.7,35-5.7s20.9-1,29-11.1c8.1-10.1,11.8-26.6,11.8-26.6
			s1-3.1,1.1-3.8c0.3-1.3,0.7-2.4,0.8-2.6c3.8-8.3,10.9-13.9,15.1-25.6c6.1-0.8,8.4-3.8,8.4-3.8c10.3-18,86-96.7,92.1-129.8
			l1.2,190.8c0,0,0.2,13.7-8.4,21.9c0,0-27.4,24.4-35.8,42.5c-8.4,18.1-3.8,22.3,0,25.3c3.8,3,18.1,11,34.1,2.1
			c16-8.8,27.4-27.4,27.4-27.4s19.4-8,23.6-20.2c4.2-12.2,2.1-29.1,2.1-29.1s-0.3,0.4-0.9,1l-1.8-13.3c4.2-1.4,6.5-2.9,6.5-2.9
			s11.4-86.7,17.7-133.5c6.3-46.7-2.5-68.6,0-74.5c2.5-5.9,12.8-11.8,12.8-11.8l12.3-5c13.7,1.4,29.2,3,46.5,4.6
			c58.1,5.5,69.5-42.5,69.5-42.5l1.2-5.4l0.2-0.6l6.4,1.9c3.7-72.2,35.2-141.4,35.2-141.4l10.9-5.7c37-15.8,54.2-23.7,54.2-23.7
			s2.8-7.6,2-20.6l-0.1-0.2l0.2-0.1c2.3-0.8,4.6-1.6,6.8-2.5l0.1,0l0,0c27.5-11.1,49.3-30.8,49.3-30.8
			C828,243.2,825.6,241.1,825.6,241.1z M617.2,247.8l-0.9,0c0,0-10.7-8.3-15.8-13.1c-13.5-12.8-26.9-21-34-26.4
			c-4.9-3.7-9.7-6.5-18.1-1.4l-0.9,0.5l-17.9-23.5l1.8-1.2c10.3-6.6,29-16.4,56.4-22.4l2.6-1c4.3,5.1,9.1,7.2,9.1,7.2l1.7,2.6
			c-1.6,6.3-3.4,15.6-3.3,26.1c0.1,13.6,6.4,26.1,19.7,36.1l-0.1,6C617.7,240.6,617.6,244.3,617.2,247.8z M747.1,240.3l-2.5-0.7
			c-7.1-3.5-13.4-2.3-13.4-2.3s-18.4,6-41.4,11.8c-6.8,1.7-23.2,7.6-23.2,7.6l-0.4-0.7c-0.7-7.9,0.9-17.6,0.9-17.6l0.7-0.3
			c3.1-1.3,6.1-3,8.7-5.3c9.1-8.3,20.5-21.2,20.5-21.2s19.3,6.2,23.1-11.4l0.3-4.4c4.4-2.3,9.6-5.2,14.2-9.9l1.3,0
			c18.6,16.5,29.2,32.1,34.7,41.8l0.7,1.2L747.1,240.3z"/>
		<path class="st2" d="M521.2,189.7c1.3-0.9,22.9-19.9,66-29.4"/>
		<path class="st2" d="M603.3,160.3c0,0-6.1,15.3-6.1,34.9c0.1,14.9,7.6,28.3,23.4,38.7"/>
		<path class="st2" d="M649,241.8c0,0,17.4,0,27.5-9.2c9.1-8.3,20.5-21.2,20.5-21.2s19.3,6.2,23.1-11.4c3.5-16.2-7.9-21.7-17.7-16.2
			"/>
		<circle class="st2" cx="673" cy="178.7" r="18.4"/>
		<circle class="st2" cx="620.6" cy="166.5" r="18.4"/>
		<path class="st10" d="M641.6,180c0,0-5.8-5.8-9.3-4.4c-4.5,1.8-2.8,10.3,3.4,16.7"/>
		<path class="st2" d="M652.2,218.9c0,0,10.9,3.6,17.8-7.4"/>
		<path class="st2" d="M639,168c0,0,6.8-1.5,16.4,4.2"/>
		<path class="st2" d="M665.5,89.2c0,0-13.3-12-31.3-6.3c-18.6,5.9-46.3,27.8-50.4,51.5c-4.1,23.7,15.1,32.1,15.1,32.1"/>
		<path class="st2" d="M639,124c0,0-0.6,15.8-14.7,26.2"/>
		<path class="st2" d="M670,119.9c0,0-4.7-7.1-12.2-2.5c-10.7,6.6-10.7,27.8-26.2,39.5"/>
		<path class="st2" d="M676.2,120.2c0,0,2.5-4.7,6.3,0c3.8,4.7,5.4,8.8,5.4,34.7s9.8,26,11.1,28.9"/>
		<path class="st2" d="M670,90.8c0,0,20.7-15.8,42.2,3.2s41.5,39.3,33.8,70.7c-4.7,19.2-16.6,26.3-25.5,30.9"/>
		<path class="st2" d="M616.7,237.2c0.8,10.1-2.1,24-2.1,24s1,23.1,12.6,23.2c20,0.2,34.4-12.9,44.2-23.5"/>
		<path class="st2" d="M667.1,238.3c0,0-2.5,15,0,23"/>
		<path class="st2" d="M666.5,256.6c0,0,16.4-5.9,23.2-7.6c23-5.8,41.4-11.8,41.4-11.8s19.9-3.7,29.1,21.6
			c9.2,25.3,2.8,43.6,2.8,43.6s-17.2,7.9-54.2,23.7"/>
		<path class="st2" d="M615.6,247.8c0,0-10.7-8.3-15.8-13.1c-13.5-12.8-26.9-21-34-26.4c-7.1-5.4-14.2-8.9-32.2,11.1
			s-19.4,39.9-19.4,39.9s6,6.6,34.4,35.1"/>
		<line class="st2" x1="547" y1="207.4" x2="529" y2="183.9"/>
		<path class="st2" d="M584.7,130.2c0,0-60.1,2-109.1,39.8"/>
		<path class="st2" d="M475.7,178c0,0,12.3,37.5,42.3,61.5"/>
		<line class="st2" x1="747.1" y1="240.3" x2="771.3" y2="228.8"/>
		<path class="st2" d="M775.6,237.6c-0.6-1.3-10-25.4-39.7-51.8"/>
		<path class="st2" d="M746.5,155.5c0,0,52.4,29.5,78.5,85.6"/>
		<path class="st2" d="M821.3,248.2c0,0-25.5,23.1-56.2,33.4"/>
		<path class="st2" d="M560.9,269.2c0,0-31.3,70.4-41.4,143.7"/>
		<path class="st2 leg" d="M655,477.2c0,0-11.4,48-69.5,42.5c-58.1-5.5-96.8-10.5-109.5-9c-12.6,1.4-23.3,7.5-26.1,27.1
			c-5.6,38.5-57,102.9-96.2,145.1c0,0-2.7,5.3-36.4-15.8c0,0,74.4-166,79.1-193.9s22.7-35.1,61.5-41c38.7-5.9,69.2-9.8,69.2-9.8
			c54.9,2.8,135.6,50.8,135.6,50.8C666.5,401,698,331.8,698,331.8"/>
		<path class="st2" d="M526.8,520.2c0,0-10.2,5.9-12.8,11.8s6.3,27.8,0,74.5c-6.3,46.7-17.7,133.5-17.7,133.5s-18.9,12.2-46.7,0
			l-1.3-190.8"/>
		<path class="st2" d="M441.2,761.9c0,0-27.4,24.4-35.8,42.5c-8.4,18.1-3.8,22.3,0,25.3c3.8,2.9,18.1,10.9,34.1,2.1
			c16-8.8,27.4-27.4,27.4-27.4s19.4-8,23.6-20.2c4.2-12.2,2.1-29.1,2.1-29.1s-19.4,21.9-29.1,24s-22.3-8.8-22.3-8.8V761.9z"/>
		<path class="st2" d="M449.6,740c0,0,0.2,13.7-8.4,21.9"/>
		<line class="st2" x1="490.3" y1="742.7" x2="492.5" y2="755.1"/>
		<path class="st2 leg" d="M280.1,703.7c0,0-30.5,7.5-48,17.1c-11.9,6.5-10,12.8-8.3,18.3c1.4,4.6,13.2,21.9,31.2,18.9s35-5.7,35-5.7
			s20.9-1,29-11.1c8.1-10.1,11.8-26.6,11.8-26.6s-25.6,14.1-35.4,12.8c-9.8-1.3-18-15.8-18-15.8L280.1,703.7z"/>
		<path class="st2 leg" d="M280.1,703.7c6.9-3,15.2-5.1,20.8-8.8c3.6-2.3,11.8-6.3,13.2-10.3l7.9-14.7"/>
		<line class="st2 leg" x1="348.2" y1="682.9" x2="330.7" y2="714.7"/>
		<g>
			<path class="st2" d="M576.7,226.7c0,0-22.7,17.4-32.8,38.2"/>
			<path class="st2" d="M560.3,224c0,0-25.5,21.5-29.1,36.8"/>
		</g>
		<g>
			<path class="st2" d="M730.4,250.9c0,0,10.5,18.5,12.2,39.2"/>
			<path class="st2" d="M715.9,256.8c0,0,11.2,17.5,12.9,47.6"/>
		</g>
		<g>
			<path class="st2" d="M565,294.4c0,0,65.1,15.9,111.2,35.8"/>
			<path class="st2" d="M554.9,316.6c0,0,72.6,14.8,114.6,39.8"/>
			<path class="st2" d="M551.5,336.5c0,0,73.3,18.3,110.5,38.2"/>
			<path class="st2" d="M546.4,359.9c0,0,62.2,14.8,105.2,33.5"/>
			<path class="st2" d="M540.3,379.8c0,0,71.2,18.9,106.3,36.6"/>
			<path class="st2" d="M537.3,401c0,0,55.6,9.4,105.2,36.2"/>
		</g>
	</g>
</g>
</svg>
