<?xml version="1.0" encoding="utf-8"?>
<!-- Generator: Adobe Illustrator 26.3.1, SVG Export Plug-In . SVG Version: 6.00 Build 0)  -->
<svg version="1.1" id="Layer_1" xmlns="http://www.w3.org/2000/svg" xmlns:xlink="http://www.w3.org/1999/xlink" x="0px" y="0px"
	 viewBox="0 0 1150 1086" style="enable-background:new 0 0 1150 1086;" xml:space="preserve">
<style type="text/css">
	.st0{fill:none;stroke:#F82900;stroke-width:5;stroke-linecap:round;stroke-miterlimit:10;}
	.st1{fill:none;stroke:#F82900;stroke-width:5;stroke-linecap:round;stroke-linejoin:round;stroke-miterlimit:10;}
	.st2{fill:none;stroke:#004067;stroke-width:5;stroke-linecap:round;stroke-linejoin:round;stroke-miterlimit:10;}
	.st3{fill:#004067;}
	.st4{fill:none;stroke:#08A700;stroke-width:14;stroke-linecap:round;stroke-miterlimit:10;}
</style>
<path class="st0" d="M877.99,1064.74c0,0-6.32-17.05-13.26-50.53c-6.95-33.47-6.95-60.63-34.74-96.63
	c-27.79-36-51.16-63.79-17.68-153.47"/>
<path class="st0" d="M812.94,747.69c0,0-21.89-37.47-32.84-48.84c-10.95-11.37-14.32-14.32-2.53-25.68
	c11.79-11.37,4.63-26.53-11.79-49.26s-41.26-49.68-38.74-90.53s9.68-62.32,11.79-75.37c2.11-13.05,8-31.16,7.58-57.26"/>
<path class="st0" d="M756.52,438.64c0,0,8.42-21.05,34.11-37.89c25.68-16.84,53.05-35.79,90.11-51.37s70.74-24.42,98.95-27.37
	c28.21-2.95,57.26,0,64.42,14.32c7.16,14.32-48.42,33.26-59.79,34.11c-11.37,0.84-8.36-2.68,0.84-9.68
	c17.71-13.49,34.32-25.47,47.79-56.63c0,0,11.58-27.37-27.37-32.42c-38.95-5.05-93.05-4.84-100.42-7.58
	c-4.4-1.64-13.68-6.98,10.74-20.63c24.42-13.65,107.37-42.74,211.58-56.63"/>
<path class="st0" d="M840.09,1048.1c-10.1-28.79-29.92-78.52-55.36-108.83c-37.47-44.63-40.42-32.42-40.84-50.53
	c-0.42-18.11,12.63-35.37,14.74-49.26c2.11-13.89,5.05-37.89-3.37-43.37c-8.42-5.47-13.89,2.53-14.32,12.21
	c-0.26,5.9,15.4,25.15,25.61-7.19c12.63-40-0.34-106.5-21.82-141.86s-50.11-60.21-50.11-60.21"/>
<path class="st0" d="M847.47,1070.64c0,0-1.23-4.23-3.56-11.3"/>
<path class="st0" d="M788.94,1068.53c0,0,13.47-20.21,13.05-49.26c-0.42-29.05-6.52-37.89-6.52-37.89"/>
<path class="st0" d="M626.41,1066.85c0,0,30.32-27.79,42.53-61.05c3.37-8.42,21.77-5.36,49.68-19.79
	c24.84-12.84,20.65-26.54,3.37-30.21c-25.26-5.37-51.16,17.68-52.42,18.95c0,0-6.32,6.63-5.05-2.53
	c1.26-9.16,14.53-38.84,16.74-55.58c2.21-16.74,4.42-21.16-8.85-38.21s3.48-31.58,8.85-41.68c5.36-10.11,27.47-39.16,17.36-74.21
	c-10.11-35.05-59.58-95.26-84.84-118.42c-25.26-23.16-167.16-93.47-205.05-99.79c-20.84-8.84-34.11-15.72-38.53-21.12
	c-4.42-5.4-11.37-10.46-37.89-6.03c-26.53,4.42-75.16,10.74-101.89,4c-5.05-2.11,16.42-2.53,26.32-1.47
	c9.89,1.05,27.58,11.16,0.21,21.89s-40.21,8.21-59.37,11.79c-19.16,3.58-52.84,13.47-59.16,20.84"/>
<path class="st0" d="M501.98,599.06c0,0-13.46-9.26-64.72-17.26s-56.82-16.63-95.06-7.16c-43.69,10.82-59.8,20.39-60.74,23.37
	c-2.54,8.04,14,5.26,12.74,9.47s-6.58,6.5-22.21,11.68c-11.83,3.93-35.68,9.47-48,11.05c-12.32,1.58-19.58-0.47-13.58-5.68
	c4.75-4.12,14.53-2.53,14.53-2.53"/>
<path class="st0" d="M277.37,480.4c-2.92-0.14-5.86-0.31-8.85-0.5c-39.16-2.53-90.95-18.11-110.32-32.42
	c-19.37-14.32-27.37-13.89-29.05-10.11c-1.2,2.69,3.88,10.15,20.21,8.42c13.89-1.47,11.58-7.79,8.84-10.3
	c-5.73-5.26-57.68-26.33-89.89-18.65"/>
<path class="st0" d="M603.35,560.53c0,0-135.25-60.42-199.67-70.52c-48.77-7.65-78.71-8.06-107.37-8.9"/>
<path class="st1" d="M726.87,221.59c0,0,64.6-72,108.18-77.68c43.58-5.68,28.63,22.74,21.89,30.32
	c-6.74,7.58-27.58,22.74-34.74,21.05c-7.16-1.68,5.89-18.11,26.11-29.89c20.21-11.79,39.69-21.78,47.53-28.11
	c9.52-7.69,57.11-43.62,80.47-51.47c13.63-4.58,40.21-4.26,33.84,1.58c-6.37,5.84-16.95,8.81-22.11,11.84
	c-6.7,3.93-23.93,17.65-29.37,33.79c-5.21,15.47,0.95,24.95,34.11,12.47c33.16-12.47,40.92-14.8,52.74-16.89
	c15.16-2.68,8.53,2.84,13.58,6.95s55.58-9.32,70.42-13.89"/>
<rect x="0" y="0.06" class="st1" width="1150" height="1086"/>
<g>
	<path class="st2" d="M194.94,406.64c-14.84,40.74,6,44.84,26.53,49.26s45.16-2.84,45.16-2.84s-4.74-6.32-7.58-11.68
		c-4.94-9.33-11.68-30.95-16.11-41.37c-4.42-10.42-7.46-19.35-24.95-21.79c-14.68-2.05-20.05,8.53-20.05,8.53"/>
	<path class="st2" d="M203.94,396.22c-1.74-1.05-19.11-1.76-20.53-0.63c-4.26,3.37,5.37,10.42,14.05,11.37
		C204.1,404.43,205.68,397.27,203.94,396.22z"/>
	<path class="st2" d="M237.78,417.5c0,0,5.89,9.46,7.68,11.25c0.95,0.95-3.37,3.95-9,3.95c-5.38,0-8.19-1.11-8.19-1.11"/>
	<circle class="st3" cx="217.19" cy="397.24" r="3.38"/>
	<polyline class="st2" points="210.26,471.06 217.19,469.32 217.19,455.74 	"/>
	<polyline class="st2" points="227.01,473.9 233.94,472.16 233.94,458.59 	"/>
	<path class="st3" d="M241.36,422.1c0,0-1.66-0.34-3.27,2.81c-0.52,1.01-0.82,1.34-1.96,2.35c-1.08,0.96-1.94,1.83-3.1,2.46
		c-1.16,0.63-3.61,1.71-3.61,1.71s12.67,3.83,17.19-1.86L241.36,422.1z"/>
</g>
<g>
	<path class="st2" d="M969.57,516.22c0.32-1.26,3.49-14.96,5.05-15.63c4.74-2.05,9.76,1.99,10.48,4.47
		c0.73,2.48-10.8,14.95-10.8,14.95s5.58,21.16-8.11,30.42c-11.4,7.72-19.61,7.91-32.5,9.07c-4.84,0-13.39,3.98-13.39,3.98
		s3.37-16.21,4.84-22.74c1.47-6.53,7.58-27.58,27.58-28C963.26,512.32,969.57,516.22,969.57,516.22z"/>
	<g>
		<path class="st3" d="M967.74,523.68c-5.52,4.62-15.39,12.86-20.76,17.44c-4.8,4.17-9.73,8.46-14.26,12.85
			c-3.65,3.54-7.19,7.16-10.39,10.98c-0.88,1.09-2.49,1.25-3.56,0.35c-0.98-0.82-1.17-2.24-0.49-3.29
			c5.97-8.92,13.87-16.09,22.06-22.81c8.19-6.57,16.77-12.56,26-17.61C967.67,520.89,968.91,522.72,967.74,523.68L967.74,523.68z"/>
	</g>
</g>
<g>
	<path class="st2" d="M29.92,833.9c-0.32-1.26-3.49-14.96-5.05-15.63c-4.74-2.05-9.76,1.99-10.48,4.47
		c-0.73,2.48,10.8,14.95,10.8,14.95s-5.58,21.16,8.11,30.42c11.4,7.72,19.61,7.91,32.5,9.07c4.84,0,13.39,3.98,13.39,3.98
		s-3.37-16.21-4.84-22.74c-1.47-6.53-7.58-27.58-27.58-28C36.23,830.01,29.92,833.9,29.92,833.9z"/>
	<g>
		<path class="st3" d="M33.14,839.28c9.22,5.04,17.81,11.04,26,17.61c8.19,6.72,16.1,13.88,22.06,22.81
			c0.76,1.16,0.43,2.71-0.72,3.46c-1.07,0.7-2.48,0.47-3.29-0.48c-7.35-8.69-16.05-16.4-24.68-23.87c-1.88-1.6-6.91-5.84-8.86-7.48
			c0,0-11.9-9.96-11.9-9.96C30.59,840.41,31.81,838.56,33.14,839.28L33.14,839.28z"/>
	</g>
</g>
<path class="st2" d="M1060.52,263.03c0,0,24.57,22.28,38.25,4.39c0,0-8.36-12.39-21.62-10.89
	C1069.32,257.42,1060.52,263.03,1060.52,263.03z"/>
<path class="st1" d="M609.04,377.95c0,0,18.25-99.82-24.63-136.28c-17.93-15.24-75.88-42.19-75.88-42.19s-66.32-39.79-102.95-82.74
	s-43.89-45.16-33.16-45.79s44.84,22.74,53.37,37.26s6.95,30-39.16,23.68c-46.11-6.32-50.53-15.47-59.68-15.16
	c-9.16,0.32-40.11,9.79-46.11,6.63c-6-3.16-25.26,1.58-53.37-30.63s-61.15-32.87-81.16-29.05c-15.82,3.02-48.32,12.42-48,17.05
	c0.16,2.29,22.84,7.16,38.21-1.89c12.3-7.25-18-11.68-34.11-14.53c-16.11-2.84-27.16-12-41.37-23.05S25.99,12.85,17.15,13.17"/>
<path class="st1" d="M705.67,358.19c4.74-5.68,90.44-168.63,421.8-200.84"/>
<path class="st1" d="M0,199.76c0,0,189.92,36.63,178.52,63.79c-3.05,11.16-52.74-13.26-50.21-19.89
	c-4.21-16.53,48.92-19.05,92.26,18.84s220.07,162.95,280.05,181.05"/>


<path class="st4" d="M1127.47,186.85c-104.21,13.89-187.16,42.98-211.58,56.63c-24.42,13.65-15.14,19-10.74,20.63
	c7.37,2.74,61.47,2.53,100.42,7.58c38.95,5.05,27.37,32.42,27.37,32.42c-13.47,31.16-30.08,43.14-47.79,56.63
	c-9.2,7-12.21,10.53-0.84,9.68c11.37-0.84,66.95-19.79,59.79-34.11c-7.16-14.32-36.21-17.26-64.42-14.32
	c-28.21,2.95-61.89,11.79-98.95,27.37s-64.42,34.53-90.11,51.37c-22.33,14.64-31.61,32.47-33.66,36.88
	c-0.16,0.34-0.65,0.29-0.74-0.07l-9.41-35.28c-0.06-0.23-0.39-0.17-0.39,0.06c0.17,25.26-5.53,42.89-7.6,55.68
	c-2.11,13.05-9.26,34.53-11.79,75.37s22.32,67.79,38.74,90.53s23.58,37.89,11.79,49.26c-11.79,11.37-8.42,14.32,2.53,25.68
	c8.08,8.4,22.14,31.03,28.94,42.29c2.55,4.23,3.81,9.1,3.62,14.04l-0.19,4.93c-0.1,2.58-0.59,5.14-1.47,7.58
	c-31.53,86.86-8.42,114.38,19,149.9c27.79,36,27.79,63.16,34.74,96.63c6.95,33.47,13.26,50.53,13.26,50.53"/>
<path class="st4" d="M847.47,1070.64c0,0-1.23-4.23-3.56-11.3l-3.82-11.23c-10.1-28.79-29.92-78.52-55.36-108.83
	c-37.47-44.63-40.42-32.42-40.84-50.53c-0.42-18.11,12.63-35.37,14.74-49.26c2.11-13.89,5.05-37.89-3.37-43.37
	c-8.42-5.47-13.89,2.53-14.32,12.21c-0.26,5.9,15.4,25.15,25.61-7.19c12.63-40-0.34-106.5-21.82-141.86s-50.11-60.21-50.11-60.21"/>
<path class="st4" d="M788.94,1068.53c0,0,13.47-20.21,13.05-49.26c-0.42-29.05-6.52-37.89-6.52-37.89"/>
<path class="st4" d="M603.35,560.53c0,0-135.25-60.42-199.67-70.52c-48.77-7.65-78.71-8.06-107.37-8.9l-18.94-0.7
	c-2.92-0.14-5.86-0.31-8.85-0.5c-39.16-2.53-90.95-18.11-110.32-32.42c-19.37-14.32-27.37-13.89-29.05-10.11
	c-1.2,2.69,3.88,10.15,20.21,8.42c13.89-1.47,11.58-7.79,8.84-10.3c-5.73-5.26-57.68-26.33-89.89-18.65"/>
<path class="st4" d="M726.87,221.59c0,0,64.6-72,108.18-77.68c43.58-5.68,28.63,22.74,21.89,30.32
	c-6.74,7.58-27.58,22.74-34.74,21.05c-7.16-1.68,5.89-18.11,26.11-29.89c20.21-11.79,39.69-21.78,47.53-28.11
	c9.52-7.69,57.11-43.62,80.47-51.47c13.63-4.58,40.21-4.26,33.84,1.58c-6.37,5.84-16.95,8.81-22.11,11.84
	c-6.7,3.93-23.93,17.65-29.37,33.79c-5.21,15.47,0.95,24.95,34.11,12.47c33.16-12.47,40.92-14.8,52.74-16.89
	c15.16-2.68,8.53,2.84,13.58,6.95s55.58-9.32,70.42-13.89"/>
<path class="st4" d="M705.67,358.19c4.74-5.68,90.44-168.63,421.8-200.84"/>
<path class="st4" d="M609.04,377.95c0,0,18.25-99.82-24.63-136.28c-17.93-15.24-75.88-42.19-75.88-42.19s-66.32-39.79-102.95-82.74
	s-43.89-45.16-33.16-45.79s44.84,22.74,53.37,37.26s6.95,30-39.16,23.68c-46.11-6.32-50.53-15.47-59.68-15.16
	c-9.16,0.32-40.11,9.79-46.11,6.63c-6-3.16-25.26,1.58-53.37-30.63s-61.15-32.87-81.16-29.05c-15.82,3.02-48.32,12.42-48,17.05
	c0.16,2.29,22.84,7.16,38.21-1.89c12.3-7.25-18-11.68-34.11-14.53c-16.11-2.84-27.16-12-41.37-23.05S25.99,12.85,17.15,13.17"/>
<path class="st4" d="M0,199.76c0,0,189.92,36.63,178.52,63.79c-3.05,11.16-52.74-13.26-50.21-19.89
	c-4.21-16.53,48.92-19.05,92.26,18.84s220.07,162.95,280.05,181.05"/>
<path class="st4" d="M626.41,1066.85c0,0,30.32-27.79,42.53-61.05c3.37-8.42,21.77-5.36,49.68-19.79
	c24.84-12.84,20.65-26.54,3.37-30.21c-25.26-5.37-51.16,17.68-52.42,18.95c0,0-6.32,6.63-5.05-2.53
	c1.26-9.16,14.53-38.84,16.74-55.58c2.21-16.74,4.42-21.16-8.85-38.21s3.48-31.58,8.85-41.68c5.36-10.11,27.47-39.16,17.36-74.21
	c-10.11-35.05-59.58-95.26-84.84-118.42c-25.26-23.16-167.16-93.47-205.05-99.79c-20.84-8.84-34.11-15.72-38.53-21.12
	c-4.42-5.4-11.37-10.46-37.89-6.03c-26.53,4.42-75.16,10.74-101.89,4c-5.05-2.11,16.42-2.53,26.32-1.47
	c9.89,1.05,27.58,11.16,0.21,21.89s-40.21,8.21-59.37,11.79c-19.16,3.58-52.84,13.47-59.16,20.84"/>
<path class="st4" d="M501.98,599.06c0,0-13.46-9.26-64.72-17.26s-56.82-16.63-95.06-7.16c-43.69,10.82-59.8,20.39-60.74,23.37
	c-2.54,8.04,14,5.26,12.74,9.47s-6.58,6.5-22.21,11.68c-11.83,3.93-35.68,9.47-48,11.05c-12.32,1.58-19.58-0.47-13.58-5.68
	c4.75-4.12,14.53-2.53,14.53-2.53"/>
</svg>
