<?xml version="1.0" encoding="utf-8"?>
<!-- Generator: Adobe Illustrator 26.3.1, SVG Export Plug-In . SVG Version: 6.00 Build 0)  -->
<svg version="1.1" xmlns="http://www.w3.org/2000/svg" xmlns:xlink="http://www.w3.org/1999/xlink" x="0px" y="0px"
	 viewBox="0 0 644 210" style="enable-background:new 0 0 644 210;" xml:space="preserve">
<style type="text/css">
	.st0{fill:#0AAEAF;}
	.st1{fill:#242B29;}
	.st2{opacity:0.6;fill:none;stroke:#FF0045;stroke-width:2.2;stroke-miterlimit:10;enable-background:new    ;}
</style>
<g id="Layer_2">
	<g>
		<path class="st0" d="M132.4,70.7c-2.3,0-4.5-1.2-5.7-3.3c-6.2-10.8-6.3-24.7-0.4-37.3c5.9-12.6,16.7-21.4,28.9-23.6
			c2.8-0.5,5.5,0.8,6.9,3.2c6.2,10.8,6.3,24.7,0.4,37.3c-5.9,12.6-16.7,21.4-28.9,23.6C133.2,70.6,132.8,70.7,132.4,70.7z
			 M153.8,18.3c-6.8,3-12.9,9.1-16.5,16.9c-3.6,7.8-4.4,16.3-2.3,23.5c6.8-3,12.9-9.1,16.5-16.9C155,34,155.8,25.5,153.8,18.3z"/>
		<path class="st0" d="M155.4,180.6c-0.4,0.4-0.9,0.8-1.4,1.2l-0.3,0.2c-15.7,13.8-36.2,21.4-57.5,21.4c-47.2,0-85.6-36.9-85.6-82.2
			c0-10.8,2.1-21.2,6.4-31c0.4-0.9,0.9-2,1.4-3.1c0.6-1.3,1.3-2.6,2-3.9C31.8,63.2,53.1,50.8,76,50.8c5.2,0,10.2,0.6,15,1.8
			c0.7,0.2,1.6,0.3,2.5,0.7c0.8,0.2,1.5,0.4,2.1,0.6c9.4,3.2,17.5,9.6,22.7,18.2c4,6.6,6.1,14.2,6.1,21.9c0,11.5-4.6,22.3-12.8,30.3
			c-5.7,5.5-8.8,12.9-8.8,20.8c0,3.6-3,6.6-6.6,6.6s-6.6-3-6.6-6.6c0-11.5,4.5-22.3,12.8-30.3c5.7-5.5,8.8-12.9,8.8-20.8
			c0-5.3-1.4-10.6-4.2-15.1c-3.6-5.9-9.2-10.4-15.8-12.6L91,66.3l-0.4-0.1l-0.7-0.3c-0.4-0.2-1.1-0.3-1.8-0.4l-0.2-0.1
			c-3.7-0.9-7.7-1.4-11.8-1.4C57.9,64,41,73.9,31.9,89.7c-0.5,0.9-1.1,2-1.6,3.1c-0.4,0.8-0.8,1.6-1.1,2.5c-3.6,8.3-5.4,17-5.4,25.9
			c0,38.1,32.5,69,72.4,69c18.1,0,35.5-6.4,48.8-18.1l0.4-0.3c0.5-0.4,1-0.8,1.5-1.3c0.4-0.4,0.8-0.7,1.1-1.1
			c0.3-0.3,0.6-0.6,0.7-0.7l0.2-0.2c0.4-0.4,0.9-1,1.4-1.5c4.6-5.1,8.2-11.2,10.4-17.7c1.8-5.2,2.7-10.8,2.7-16.4
			c0-19.1-10.5-36.4-27.5-45.2c-3.2-1.7-4.5-5.7-2.8-8.9c1.7-3.2,5.7-4.5,8.9-2.8c21.3,11.1,34.6,32.8,34.6,56.9
			c0,7.1-1.1,14.1-3.4,20.7c-2.8,8.2-7.2,15.8-13.2,22.3c-0.6,0.7-1.2,1.3-1.8,1.9L155.4,180.6z M152.7,174.1L152.7,174.1
			L152.7,174.1z"/>
	</g>
	<g>
		<path class="st1" d="M326.4,179.1c-21.3,0-38.6-17.3-38.6-38.6s17.3-38.6,38.6-38.6s38.6,17.3,38.6,38.6S347.7,179.1,326.4,179.1z
			 M326.4,115.1c-14,0-25.4,11.4-25.4,25.4s11.4,25.4,25.4,25.4s25.4-11.4,25.4-25.4S340.5,115.1,326.4,115.1z"/>
		<path class="st1" d="M594.2,179.1c-21.3,0-38.6-17.3-38.6-38.6s17.3-38.6,38.6-38.6s38.6,17.3,38.6,38.6S615.5,179.1,594.2,179.1z
			 M594.2,115.1c-14,0-25.4,11.4-25.4,25.4s11.4,25.4,25.4,25.4s25.4-11.4,25.4-25.4S608.2,115.1,594.2,115.1z"/>
		<path class="st1" d="M417.4,179.1c-21.3,0-38.6-17.3-38.6-38.6s17.3-38.6,38.6-38.6s38.6,17.3,38.6,38.6S438.7,179.1,417.4,179.1z
			 M417.4,115.1c-14,0-25.4,11.4-25.4,25.4s11.4,25.4,25.4,25.4s25.4-11.4,25.4-25.4S431.4,115.1,417.4,115.1z"/>
		<path class="st1" d="M235.5,179.1c-3.6,0-6.6-2.9-6.6-6.6s2.9-6.6,6.6-6.6c14,0,25.4-11.4,25.4-25.4V76.2c0-3.6,3-6.6,6.6-6.6
			s6.6,2.9,6.6,6.6v64.3C274.1,161.8,256.8,179.1,235.5,179.1z"/>
		<path class="st1" d="M358.5,179.1c-1.7,0-3.4-0.6-4.7-1.9l-9.4-9.4c-2.6-2.6-2.6-6.8,0-9.3c2.6-2.6,6.8-2.6,9.3,0l9.4,9.4
			c2.6,2.6,2.6,6.8,0,9.3C361.9,178.5,360.2,179.1,358.5,179.1z"/>
		<path class="st1" d="M449.4,147.1c-3.6,0-6.6-2.9-6.6-6.6V76.2c0-3.6,3-6.6,6.6-6.6s6.6,2.9,6.6,6.6v64.3
			C456,144.2,453,147.1,449.4,147.1z"/>
		<path class="st1" d="M507.7,179.1c-21.3,0-38.6-17.3-38.6-38.6s17.3-38.6,38.6-38.6s38.6,17.3,38.6,38.6S529,179.1,507.7,179.1z
			 M507.7,115.1c-14,0-25.4,11.4-25.4,25.4s11.4,25.4,25.4,25.4s25.4-11.4,25.4-25.4S521.7,115.1,507.7,115.1z"/>
	</g>
</g>
<g id="Layer_1">
	<circle class="st2" cx="73.8" cy="113.6" r="62.6"/>
	<circle class="st2" cx="113.3" cy="132.9" r="62.6"/>
	<circle class="st2" cx="79.3" cy="90.4" r="38.9"/>
	<circle class="st2" cx="235.8" cy="140.5" r="38.9"/>
	<circle class="st2" cx="326.4" cy="140.5" r="38.9"/>
	<circle class="st2" cx="417.4" cy="140.5" r="38.9"/>
	
	<ellipse transform="matrix(0.8112 -0.5847 0.5847 0.8112 13.6613 323.3583)" class="st2" cx="507.7" cy="140.5" rx="38.9" ry="38.9"/>
	<circle class="st2" cx="594.2" cy="140.5" r="38.9"/>
	<circle class="st2" cx="119.4" cy="138.5" r="23.8"/>
	<circle class="st2" cx="95.9" cy="118.6" r="85.2"/>
</g>
</svg>
