<?xml version="1.0" encoding="utf-8"?>
<!-- Generator: Adobe Illustrator 26.3.1, SVG Export Plug-In . SVG Version: 6.00 Build 0)  -->
<svg version="1.1" id="Layer_1" xmlns="http://www.w3.org/2000/svg" xmlns:xlink="http://www.w3.org/1999/xlink" x="0px" y="0px"
	 viewBox="0 0 644 210" style="enable-background:new 0 0 644 210;" xml:space="preserve">
<style type="text/css">
	.st0{fill:#0AAEAF;}
	.st1{fill:#242B29;}
	.st2{opacity:0.6;fill:none;stroke:#FF0045;stroke-width:2.2;stroke-miterlimit:10;}
</style>
<g>
	<g>
		<path class="st0" d="M132.43,70.65c-2.34,0-4.54-1.24-5.73-3.32c-6.16-10.76-6.33-24.7-0.45-37.29
			c5.87-12.59,16.66-21.42,28.86-23.62c2.76-0.49,5.51,0.79,6.9,3.22c6.16,10.76,6.32,24.7,0.45,37.29
			c-5.87,12.59-16.66,21.42-28.86,23.62C133.21,70.61,132.82,70.65,132.43,70.65z M153.76,18.3c-6.82,3.03-12.85,9.11-16.47,16.88
			c-3.62,7.78-4.41,16.3-2.34,23.48c6.82-3.03,12.85-9.11,16.47-16.88C155.04,34,155.83,25.47,153.76,18.3z"/>
		<path class="st0" d="M155.39,180.63c-0.44,0.39-0.92,0.8-1.41,1.23l-0.3,0.25c-15.72,13.76-36.16,21.37-57.48,21.37
			c-47.2,0-85.59-36.89-85.59-82.23c0-10.8,2.15-21.23,6.39-31.02c0.37-0.93,0.86-2.03,1.36-3.08c0.64-1.34,1.33-2.61,2.01-3.87
			c11.47-20.06,32.77-32.43,55.67-32.43c5.16,0,10.21,0.61,14.99,1.8c0.71,0.16,1.59,0.35,2.54,0.65c0.83,0.16,1.53,0.4,2.1,0.62
			c9.45,3.16,17.52,9.61,22.72,18.17c4.01,6.57,6.12,14.16,6.12,21.94c0,11.52-4.55,22.28-12.81,30.3
			c-5.65,5.48-8.76,12.87-8.76,20.78c0,3.64-2.96,6.6-6.6,6.6s-6.6-2.96-6.6-6.6c0-11.52,4.53-22.26,12.77-30.26
			c5.68-5.51,8.81-12.91,8.81-20.83c0-5.35-1.45-10.56-4.2-15.07c-3.61-5.94-9.21-10.4-15.76-12.56l-0.35-0.13l-0.45-0.05
			l-0.74-0.26c-0.44-0.15-1.09-0.3-1.77-0.45l-0.21-0.05c-3.74-0.94-7.7-1.41-11.79-1.41c-18.18,0-35.09,9.83-44.14,25.65
			c-0.51,0.94-1.09,2.01-1.63,3.13c-0.37,0.78-0.75,1.62-1.09,2.47c-3.59,8.29-5.37,16.96-5.37,25.94
			c0,38.06,32.48,69.03,72.39,69.03c18.13,0,35.47-6.44,48.83-18.14l0.35-0.3c0.5-0.43,0.98-0.84,1.46-1.28
			c0.43-0.39,0.8-0.72,1.14-1.05c0.3-0.34,0.56-0.58,0.73-0.73l0.25-0.25c0.43-0.44,0.92-0.98,1.42-1.51
			c4.62-5.09,8.24-11.23,10.42-17.69c1.81-5.25,2.72-10.75,2.72-16.39c0-19.09-10.52-36.4-27.46-45.17c-3.24-1.68-4.5-5.66-2.82-8.9
			c1.68-3.23,5.66-4.5,8.9-2.82c21.34,11.05,34.59,32.85,34.59,56.89c0,7.11-1.15,14.06-3.43,20.66
			c-2.78,8.24-7.22,15.77-13.18,22.34c-0.64,0.69-1.24,1.33-1.83,1.94L155.39,180.63z M152.74,174.09h0.02H152.74z"/>
	</g>
	<g>
		<path class="st1" d="M326.44,179.14c-21.3,0-38.63-17.33-38.63-38.63s17.33-38.63,38.63-38.63s38.63,17.33,38.63,38.63
			S347.74,179.14,326.44,179.14z M326.44,115.07c-14.03,0-25.44,11.41-25.44,25.44s11.41,25.44,25.44,25.44s25.44-11.41,25.44-25.44
			S340.47,115.07,326.44,115.07z"/>
		<path class="st1" d="M594.22,179.14c-21.3,0-38.63-17.33-38.63-38.63s17.33-38.63,38.63-38.63c21.3,0,38.62,17.33,38.62,38.63
			S615.51,179.14,594.22,179.14z M594.22,115.07c-14.03,0-25.44,11.41-25.44,25.44s11.41,25.44,25.44,25.44s25.44-11.41,25.44-25.44
			S608.24,115.07,594.22,115.07z"/>
		<path class="st1" d="M417.37,179.14c-21.3,0-38.63-17.33-38.63-38.63s17.33-38.63,38.63-38.63S456,119.22,456,140.52
			S438.67,179.14,417.37,179.14z M417.37,115.07c-14.03,0-25.44,11.41-25.44,25.44s11.41,25.44,25.44,25.44
			c14.03,0,25.44-11.41,25.44-25.44S431.4,115.07,417.37,115.07z"/>
		<path class="st1" d="M235.52,179.14c-3.64,0-6.59-2.95-6.59-6.59s2.95-6.59,6.59-6.59c14.03,0,25.44-11.41,25.44-25.44V76.23
			c0-3.64,2.95-6.59,6.59-6.59s6.59,2.95,6.59,6.59v64.29C274.14,161.81,256.81,179.14,235.52,179.14z"/>
		<path class="st1" d="M358.48,179.14c-1.69,0-3.37-0.64-4.66-1.93l-9.38-9.38c-2.57-2.57-2.57-6.75,0-9.32
			c2.57-2.57,6.75-2.57,9.32,0l9.38,9.38c2.57,2.57,2.57,6.75,0,9.32C361.85,178.5,360.16,179.14,358.48,179.14z"/>
		<path class="st1" d="M449.4,147.11c-3.64,0-6.59-2.95-6.59-6.59V76.23c0-3.64,2.95-6.59,6.59-6.59s6.59,2.95,6.59,6.59v64.29
			C456,144.16,453.04,147.11,449.4,147.11z"/>
		<path class="st1" d="M507.66,179.14c-21.3,0-38.63-17.33-38.63-38.63s17.33-38.63,38.63-38.63s38.63,17.33,38.63,38.63
			S528.96,179.14,507.66,179.14z M507.66,115.07c-14.03,0-25.44,11.41-25.44,25.44s11.41,25.44,25.44,25.44s25.44-11.41,25.44-25.44
			S521.69,115.07,507.66,115.07z"/>
	</g>
	<circle class="st2" cx="73.8" cy="113.58" r="62.56"/>
	<circle class="st2" cx="113.32" cy="132.88" r="62.56"/>
	<circle class="st2" cx="79.32" cy="90.42" r="38.87"/>
	<circle class="st2" cx="235.75" cy="140.52" r="38.87"/>
	<circle class="st2" cx="326.44" cy="140.52" r="38.87"/>
	<circle class="st2" cx="417.37" cy="140.52" r="38.87"/>
	<circle class="st2" cx="507.66" cy="140.52" r="38.87"/>
	<circle class="st2" cx="594.21" cy="140.52" r="38.87"/>
	<circle class="st2" cx="119.4" cy="138.5" r="23.76"/>
	<circle class="st2" cx="95.86" cy="118.55" r="85.15"/>
</g>
</svg>
