<svg width="138" height="31" viewBox="0 0 138 31" fill="none" xmlns="http://www.w3.org/2000/svg">
<path d="M38.0096 14.292H40.9636V12.794H36.1896V21.306H37.0856C38.7376 21.306 40.1096 21.25 41.6776 20.956L41.5376 19.458C40.3056 19.682 39.2136 19.752 38.0096 19.78V14.292ZM45.1356 11.296V16.266H43.9736V11.548H42.2516V23.602H43.9736V17.75H45.1356V24.204H46.8856V11.296H45.1356ZM54.2345 13.214C55.9145 13.214 56.9925 13.718 56.9925 14.642C56.9925 15.58 55.9145 16.084 54.2345 16.084C52.5405 16.084 51.4625 15.58 51.4625 14.642C51.4625 13.718 52.5405 13.214 54.2345 13.214ZM54.2345 17.554C56.9785 17.554 58.8965 16.42 58.8965 14.642C58.8965 12.892 56.9785 11.744 54.2345 11.744C51.4765 11.744 49.5725 12.892 49.5725 14.642C49.5725 16.42 51.4765 17.554 54.2345 17.554ZM60.1005 18.52H48.4245V20.004H53.2965V24.218H55.1445V20.004H60.1005V18.52ZM62.1994 18.926C64.4394 18.52 66.0634 17.4 66.8614 15.86C67.6734 17.372 69.3114 18.45 71.5794 18.856L72.2794 17.4C69.5074 16.994 68.0094 15.44 67.8414 13.76H71.7054V12.29H61.9894V13.76H65.8534C65.6854 15.44 64.1874 17.05 61.4854 17.47L62.1994 18.926ZM67.7854 21.208V18.366H65.9374V21.208H61.0234V22.706H72.6994V21.208H67.7854ZM82.5544 20.83H84.4024V11.31H82.5544V14.054H80.1884V15.552H82.5544V20.83ZM81.3224 17.526C79.3064 16.812 78.4384 15.174 78.4384 13.494V12.094H76.5624V13.48C76.5624 15.314 75.6664 17.106 73.5384 17.82L74.5044 19.262C76.0024 18.716 76.9964 17.666 77.5424 16.336C78.0744 17.526 78.9984 18.464 80.3424 18.954L81.3224 17.526ZM77.7384 22.51V19.878H75.8904V23.98H84.6824V22.51H77.7384ZM89.3153 19.892C88.6153 19.892 88.1113 19.332 88.1113 18.366C88.1113 17.4 88.6153 16.826 89.3153 16.826C90.0153 16.826 90.5193 17.4 90.5193 18.366C90.5193 19.332 90.0153 19.892 89.3153 19.892ZM89.3153 15.286C87.6633 15.286 86.4873 16.56 86.4873 18.366C86.4873 20.158 87.6633 21.432 89.3153 21.432C90.9673 21.432 92.1433 20.158 92.1433 18.366C92.1433 16.56 90.9673 15.286 89.3153 15.286ZM90.2253 11.66H88.4053V13.256H86.2073V14.726H92.3673V13.256H90.2253V11.66ZM95.5313 11.296V16.56H94.5513V11.548H92.8293V23.658H94.5513V18.044H95.5313V24.19H97.2813V11.296H95.5313ZM100.724 15.146C100.724 14.152 101.438 13.564 102.418 13.564C103.384 13.564 104.112 14.152 104.112 15.146C104.112 16.126 103.384 16.714 102.418 16.714C101.438 16.714 100.724 16.126 100.724 15.146ZM105.904 15.146C105.904 13.312 104.392 12.01 102.418 12.01C100.43 12.01 98.9182 13.312 98.9182 15.146C98.9182 16.952 100.43 18.268 102.418 18.268C104.392 18.268 105.904 16.952 105.904 15.146ZM104.756 22.762C103.104 22.762 102.222 22.412 102.222 21.656C102.222 20.914 103.104 20.55 104.756 20.55C106.394 20.55 107.276 20.914 107.276 21.656C107.276 22.412 106.394 22.762 104.756 22.762ZM104.756 19.108C102.082 19.108 100.388 20.06 100.388 21.656C100.388 23.266 102.082 24.204 104.756 24.204C107.416 24.204 109.11 23.266 109.11 21.656C109.11 20.06 107.416 19.108 104.756 19.108ZM110.622 14.404V12.892H108.97V11.31H107.122V18.828H108.97V17.204H110.622V15.692H108.97V14.404H110.622ZM118.125 15.062V16.56H120.351V20.732H122.199V11.31H120.351V15.062H118.125ZM112.245 12.276V13.746H116.263C115.955 15.636 114.261 17.176 111.573 18.016L112.329 19.5C116.081 18.31 118.237 15.762 118.237 12.276H112.245ZM115.619 22.51V19.808H113.771V23.98H122.521V22.51H115.619ZM132.95 17.862H134.798V11.31H132.95V13.2H130.598V14.67H132.95V17.862ZM131.718 16.294C129.702 15.678 128.82 14.18 128.82 12.654V11.73H126.958V12.654C126.958 14.292 126.062 15.874 123.92 16.518L124.872 17.96C126.342 17.498 127.35 16.546 127.924 15.342C128.47 16.42 129.422 17.274 130.78 17.708L131.718 16.294ZM128.134 22.622V21.866H134.798V18.408H126.3V19.822H132.978V20.536H126.314V24.05H135.162V22.622H128.134Z" fill="white"/>
<path d="M0 24.7083H31L9.84133 31L0 24.7083Z" fill="white"/>
<path d="M7.27948 22.464H3.13086V11.6801L7.27948 9.05884V22.464Z" fill="white"/>
<path d="M13.4631 22.464H9.31445V0L13.4631 2.02019V22.464Z" fill="white"/>
<path d="M19.6467 5.09326H15.498V22.4641H19.6467V5.09326Z" fill="white"/>
<path d="M25.8342 22.464H21.6855V11.6802L25.8342 13.1028V22.464Z" fill="white"/>
</svg>
