<svg width="180" height="180" viewBox="0 0 180 180" fill="none" xmlns="http://www.w3.org/2000/svg">
<g filter="url(#filter0_d_714_414)">
<circle cx="90" cy="86" r="69.5" fill="#F6F6F6" stroke="#EDEDED"/>
<path d="M90 153C127.003 153 157 123.003 157 86C157 48.9969 127.003 19 90 19C52.9969 19 23 48.9969 23 86C23 123.003 52.9969 153 90 153Z" fill="#F6F6F6"/>
<path d="M103.707 120.337H75.567C72.0179 120.33 68.6168 118.915 66.1098 116.402C63.6029 113.89 62.1948 110.486 62.1949 106.937C62.1913 105.345 62.4751 103.766 63.0324 102.275C63.0324 102.275 63.172 101.94 63.2557 101.689C65.5449 96.1053 75.4274 83.7383 89.637 83.7383C103.847 83.7383 113.729 96.1053 116.046 101.772C116.137 101.951 116.212 102.138 116.27 102.331C117.024 104.354 117.276 106.53 117.004 108.672C116.733 110.814 115.946 112.858 114.71 114.628C113.475 116.399 111.828 117.843 109.912 118.838C107.995 119.832 105.866 120.347 103.707 120.337V120.337Z" fill="#D8D8D8"/>
<path d="M76.7676 79.16C70.9888 79.16 66.2988 72.9904 66.2988 65.3971C66.2988 57.8037 70.9888 51.6621 76.7676 51.6621C82.5463 51.6621 87.2643 57.8596 87.2643 65.3971C87.2643 72.9346 82.5463 79.16 76.7676 79.16Z" fill="#D8D8D8"/>
<path d="M57.8682 95.6038C53.1223 95.6038 49.4932 90.7742 49.4932 84.6046C49.4932 78.4351 53.234 73.6055 57.8682 73.6055C62.5023 73.6055 66.2432 78.4351 66.2432 84.6046C66.2432 90.7742 62.6419 95.6038 57.8682 95.6038Z" fill="#D8D8D8"/>
<path d="M122.132 95.6038C117.359 95.6038 113.757 90.7742 113.757 84.6046C113.757 78.4351 117.47 73.6055 122.132 73.6055C126.794 73.6055 130.647 78.4351 130.647 84.6046C130.647 90.7742 126.906 95.6038 122.132 95.6038Z" fill="#D8D8D8"/>
<path d="M102.507 79.16C96.7281 79.16 92.0381 72.9904 92.0381 65.3971C92.0381 57.8037 96.7281 51.6621 102.507 51.6621C108.286 51.6621 113.004 57.8316 113.004 65.3971C113.004 72.9625 108.286 79.16 102.507 79.16Z" fill="#D8D8D8"/>
</g>
<defs>
<filter id="filter0_d_714_414" x="0" y="0" width="180" height="180" filterUnits="userSpaceOnUse" color-interpolation-filters="sRGB">
<feFlood flood-opacity="0" result="BackgroundImageFix"/>
<feColorMatrix in="SourceAlpha" type="matrix" values="0 0 0 0 0 0 0 0 0 0 0 0 0 0 0 0 0 0 127 0" result="hardAlpha"/>
<feOffset dy="4"/>
<feGaussianBlur stdDeviation="10"/>
<feComposite in2="hardAlpha" operator="out"/>
<feColorMatrix type="matrix" values="0 0 0 0 0 0 0 0 0 0 0 0 0 0 0 0 0 0 0.2 0"/>
<feBlend mode="normal" in2="BackgroundImageFix" result="effect1_dropShadow_714_414"/>
<feBlend mode="normal" in="SourceGraphic" in2="effect1_dropShadow_714_414" result="shape"/>
</filter>
</defs>
</svg>
