<svg width="66" height="66" viewBox="0 0 66 66" fill="none" xmlns="http://www.w3.org/2000/svg">
<g clip-path="url(#clip0_551_231)">
<path d="M63.6554 17.1202C63.2246 16.4165 62.4778 16 61.6591 16H51.2899C49.8106 16 48.475 16.8186 47.8287 18.1399L44.6547 24.5022L41.1648 17.3931C40.7339 16.5314 39.8722 16 38.91 16H27.0758C26.1423 16 25.2663 16.5457 24.8354 17.3931L21.3598 24.5022L18.1859 18.1399C17.5396 16.8186 16.2039 16 14.7247 16H4.35544C3.53682 16 2.79 16.4165 2.35915 17.1202C1.92829 17.8096 1.88521 18.6713 2.25862 19.4038L15.8449 46.6625C16.9939 48.9604 19.9093 50.77 22.4801 50.77H30.8817C31.37 49.7216 31.8009 48.6157 31.9158 47.4955C32.0594 46.1167 31.9014 43.9194 31.8871 43.8189V43.7758C31.8871 43.7758 31.8871 43.7614 31.8871 43.747C31.0254 38.8209 27.3344 36.3938 27.1764 36.2933C26.8461 36.0778 26.4008 36.1784 26.1854 36.5087C25.97 36.839 26.0705 37.2842 26.4008 37.4997C26.4296 37.514 29.4743 39.5678 30.3647 43.5603C30.0487 43.747 29.6897 43.8763 29.3019 43.8763C28.1674 43.8763 27.2626 42.9571 27.2626 41.8369C27.2626 41.5066 27.3487 41.1906 27.4923 40.9178C27.0615 41.1906 26.5588 41.3486 26.0131 41.3486C24.462 41.3486 23.2125 40.0991 23.2125 38.5481C23.2125 37.8587 23.471 37.2411 23.8732 36.7672L23.6147 36.4656C23.2556 36.0635 23.0689 35.5608 23.0689 35.0151C23.0689 34.1677 23.6003 33.3634 24.3902 33.0044C24.5913 32.9039 24.821 32.8464 25.0365 32.8464L26.1711 32.789L25.6397 31.7836C25.4673 31.4533 25.3668 31.0512 25.3668 30.6634C25.3668 29.3709 26.3721 28.2794 27.6503 28.2076L28.2392 28.1788L28.3253 27.6044C28.3828 27.2022 28.5982 26.8432 28.9142 26.599L29.3881 26.24L29.1296 25.7086C28.9572 25.3352 28.8567 24.9474 28.8567 24.5596C28.8567 23.0229 30.2067 21.8022 31.7722 21.9889C32.8062 22.1181 33.6248 22.9368 33.9552 23.9277L34.0988 24.3729C34.5584 23.9852 35.1472 23.741 35.7935 23.741C37.244 23.741 38.4073 24.9187 38.4073 26.3549C38.4073 26.915 38.2206 27.4464 37.919 27.8629C38.8382 27.9921 39.5706 28.7533 39.5706 29.7012C39.5706 29.931 39.5132 30.132 39.4414 30.3331C39.7286 30.2326 40.0159 30.1751 40.3318 30.1751C41.8542 30.1751 43.0893 31.4102 43.0893 32.9326C43.0893 33.8517 42.6153 34.656 41.9116 35.1443C43.1755 35.2161 44.1664 36.2502 44.1664 37.514C44.1664 38.7779 43.1037 39.8981 41.7824 39.8981C41.5095 39.8981 41.2653 39.8406 41.0212 39.7545C41.0499 39.8981 41.0786 40.0417 41.0786 40.1997C41.0786 41.4348 40.0733 42.4545 38.8238 42.4545C38.0196 42.4545 37.3302 42.038 36.9281 41.4061L36.5547 42.3252C36.3105 42.9141 35.7791 43.1438 35.535 43.1726C34.4578 43.3018 34.1562 42.5981 34.1131 42.4688H34.0988C34.0126 41.8513 33.9264 41.3199 33.9121 41.0901C33.869 37.1837 37.3876 33.0331 37.4164 32.99C37.6749 32.6884 37.6462 32.2289 37.3446 31.9703C37.043 31.7118 36.5977 31.7406 36.3392 32.0422C36.2387 32.1571 34.6302 34.0528 33.5243 36.5805C33.2514 32.4443 33.2802 29.5288 33.2802 29.4858C33.2802 29.0836 32.9642 28.7677 32.5764 28.7533C32.1599 28.7533 31.8583 29.0693 31.844 29.457C31.844 29.5145 31.7865 34.7422 32.4759 41.1188C32.4759 41.1188 32.4759 41.1188 32.4759 41.1332V41.1906C32.519 41.6646 32.7775 43.3162 32.9786 44.5657C33.0216 44.8385 33.0647 45.0971 33.1078 45.3556L33.1653 45.7577C33.1653 45.7577 33.1653 45.7864 33.1796 45.8151C33.4669 47.5242 33.8259 49.1184 34.2424 50.7413H44.8271C46.8664 50.7413 48.7048 49.6067 49.6239 47.7827L63.756 19.4038C64.1294 18.6713 64.0863 17.8096 63.6554 17.1202Z" fill="#033F64"/>
</g>
<defs>
<clipPath id="clip0_551_231">
<rect width="62" height="34.77" fill="white" transform="translate(2 16)"/>
</clipPath>
</defs>
</svg>
