<svg width="66" height="66" viewBox="0 0 66 66" fill="none" xmlns="http://www.w3.org/2000/svg">
<g clip-path="url(#clip0_554_276)">
<path d="M16.1487 43.0974C15.1238 41.6386 14.195 39.0149 15.6256 34.8343C16.8319 31.307 18.4012 28.1389 20.216 24.481C21.1448 22.6084 22.1056 20.6706 23.0877 18.5259C21.9028 15.7497 19.7783 13.6377 16.8853 13.6377C9.5085 13.6486 4.78993 21.8137 4.08535 29.5107C3.63698 34.4424 5.03547 39.385 7.72569 42.4007C9.57255 44.4692 11.9212 45.5579 14.5153 45.5579C15.7323 45.5579 16.8746 45.2857 17.8994 44.8176C17.1949 44.3277 16.6077 43.7615 16.1487 43.0974Z" fill="#28849E"/>
<path d="M59.4699 35.1064C56.7797 32.3956 51.933 30.6646 47.2252 30.719C46.1683 30.719 45.1114 30.8388 44.0972 31.0456C44.2467 32.9835 44.2147 34.8778 43.8944 36.6523C43.0617 41.2466 40.7771 44.1207 36.4856 45.6231C37.7773 46.9186 39.368 47.7896 40.4249 48.0835C42.9443 48.7911 45.9441 49.0415 48.677 49.0415C50.4598 49.0415 52.1359 48.9327 53.481 48.7694C58.6693 48.1488 62 45.0461 61.9787 40.8547C61.968 38.7317 61.0926 36.7394 59.4593 35.0955L59.4699 35.1064Z" fill="#2DACAA"/>
<path d="M34.3717 41.519C34.1369 39.1783 34.8735 36.9683 36.4961 35.1284C38.2683 33.1144 41.0332 31.6556 44.1184 31.0459C43.7555 26.4625 42.3463 21.6941 41.14 18.1123C39.5814 13.4854 36.1332 8.92387 32.0338 9.00007C31.2972 8.9783 27.2725 9.21781 23.6322 17.3176C23.44 17.7313 23.2585 18.1341 23.077 18.526C23.7282 20.0502 24.1126 21.7703 24.1766 23.4578C24.3474 27.7907 24.4862 31.4705 22.4579 39.2546C21.7746 41.8674 20.0986 43.8161 17.8994 44.8177C19.9171 46.2221 22.9062 46.9407 26.8348 46.9407C26.9522 46.9407 27.0803 46.9407 27.1978 46.9407C31.0089 46.8971 34.0728 46.4725 36.4961 45.6233C35.4072 44.5347 34.5318 43.1412 34.3717 41.519V41.519Z" fill="#1F678F"/>
<path d="M22.4579 39.2544C24.4969 31.4703 24.3475 27.8015 24.1767 23.4576C24.1126 21.7702 23.7283 20.05 23.0771 18.5259C22.0949 20.6597 21.1342 22.6084 20.2054 24.481C18.3905 28.1389 16.8212 31.2961 15.6149 34.8343C14.1844 39.0149 15.1132 41.6386 16.138 43.0974C16.5971 43.7506 17.1842 44.3277 17.8888 44.8176C20.088 43.816 21.764 41.8672 22.4472 39.2544H22.4579Z" fill="#004064"/>
<path d="M43.9049 36.6419C44.2252 34.8673 44.2572 32.973 44.1078 31.0352C41.0226 31.6448 38.2576 33.1037 36.4855 35.1177C34.8628 36.9685 34.1369 39.1785 34.3611 41.5083C34.5212 43.1304 35.3966 44.513 36.4855 45.6126C40.777 44.0993 43.0616 41.2361 43.8943 36.6419H43.9049Z" fill="#004064"/>
<path d="M16.8747 57.0002L15.5722 44.3389L13.4585 44.6002L14.7289 57.0002H16.8747Z" fill="#28849E"/>
<path d="M31.6602 57.0002L31.9592 45.8848L29.8241 45.8086L29.5251 57.0002H31.6602Z" fill="#1F678F"/>
<path d="M48.1646 57.0002L48.4315 47.975L46.2964 47.9097L46.0295 57.0002H48.1646Z" fill="#2DACAA"/>
</g>
<defs>
<clipPath id="clip0_554_276">
<rect width="58" height="48" fill="white" transform="translate(4 9)"/>
</clipPath>
</defs>
</svg>
